<?xml version="1.0" encoding="utf-8"?>
<!-- Generator: Adobe Illustrator 15.0.2, SVG Export Plug-In . SVG Version: 6.00 Build 0)  -->
<!DOCTYPE svg PUBLIC "-//W3C//DTD SVG 1.1//EN" "http://www.w3.org/Graphics/SVG/1.1/DTD/svg11.dtd">
<svg version="1.1" id="Calque_1" xmlns="http://www.w3.org/2000/svg" xmlns:xlink="http://www.w3.org/1999/xlink" x="0px" y="0px"
	 width="160px" height="34px" viewBox="-32 0 160 34" enable-background="new -32 0 160 34" xml:space="preserve">
<circle opacity="0.5" fill="#D31147" enable-background="new    " cx="16" cy="17" r="12"/>
<g>
	<g>
		<polygon fill="#FFFBFF" points="9.5,15.024 9.5,21.822 22.5,21.822 22.5,15.024 16,18.255 		"/>
		<polygon fill="#FFFBFF" points="9.5,12.178 9.5,13.987 16,17.218 22.5,13.987 22.5,12.178 		"/>
	</g>
</g>
<circle opacity="0.5" fill="#D31147" enable-background="new    " cx="-16" cy="17" r="12"/>
<g>
	<g>
		<polygon fill="#FFFBFF" points="-22.5,15.024 -22.5,21.822 -9.5,21.822 -9.5,15.024 -16,18.255 		"/>
		<polygon fill="#FFFBFF" points="-22.5,12.178 -22.5,13.987 -16,17.218 -9.5,13.987 -9.5,12.178 		"/>
	</g>
</g>
<circle fill="#D31147" cx="112" cy="17" r="12"/>
<g>
	<g>
		<polygon fill="#FFFBFF" points="105.5,15.024 105.5,21.822 118.5,21.822 118.5,15.024 112,18.255 		"/>
		<polygon fill="#FFFBFF" points="105.5,12.178 105.5,13.987 112,17.218 118.5,13.987 118.5,12.178 		"/>
	</g>
</g>
<circle fill="#D31147" cx="48" cy="17" r="12"/>
<g>
	<g>
		<polygon fill="#FFFBFF" points="41.5,15.024 41.5,21.823 54.5,21.823 54.5,15.024 48,18.255 		"/>
		<polygon fill="#FFFBFF" points="41.5,12.177 41.5,13.987 48,17.218 54.5,13.987 54.5,12.177 		"/>
	</g>
</g>
<circle fill="#D31147" cx="80" cy="17" r="12"/>
<g>
	<g>
		<polygon fill="#FFFBFF" points="73.5,15.024 73.5,21.823 86.5,21.823 86.5,15.024 80,18.255 		"/>
		<polygon fill="#FFFBFF" points="73.5,12.177 73.5,13.987 80,17.218 86.5,13.987 86.5,12.177 		"/>
	</g>
</g>
</svg>
