<?xml version="1.0" encoding="utf-8"?>
<!-- Generator: Adobe Illustrator 15.0.2, SVG Export Plug-In . SVG Version: 6.00 Build 0)  -->
<!DOCTYPE svg PUBLIC "-//W3C//DTD SVG 1.1//EN" "http://www.w3.org/Graphics/SVG/1.1/DTD/svg11.dtd">
<svg version="1.1" id="Calque_1" xmlns="http://www.w3.org/2000/svg" xmlns:xlink="http://www.w3.org/1999/xlink" x="0px" y="0px"
	 width="80px" height="24px" viewBox="0 0 80 24" enable-background="new 0 0 80 24" xml:space="preserve">
<path fill="#1DA9B6" d="M80,22c0,1.1-0.9,2-2,2H2c-1.1,0-2-0.9-2-2V2c0-1.1,0.9-2,2-2h76c1.1,0,2,0.9,2,2V22z"/>
<path fill="#D3117E" d="M0,1c0-0.55,0.45-1,1-1h78c0.55,0,1,0.45,1,1v20c0,0.55-0.45,1-1,1H1c-0.55,0-1-0.45-1-1V1z"/>
<path opacity="0.35" fill="#1DA9B6" d="M79,1v21H1V1H79 M79,0H1C0.45,0,0,0.45,0,1v21c0,0.55,0.45,1,1,1h78c0.55,0,1-0.45,1-1V1
	C80,0.45,79.55,0,79,0L79,0z"/>
</svg>
