<?xml version="1.0" encoding="utf-8"?>
<!-- Generator: Adobe Illustrator 15.0.2, SVG Export Plug-In . SVG Version: 6.00 Build 0)  -->
<!DOCTYPE svg PUBLIC "-//W3C//DTD SVG 1.1//EN" "http://www.w3.org/Graphics/SVG/1.1/DTD/svg11.dtd">
<svg version="1.1" id="Calque_1" xmlns="http://www.w3.org/2000/svg" xmlns:xlink="http://www.w3.org/1999/xlink" x="0px" y="0px"
	 width="24px" height="24px" viewBox="0 0 24 24" enable-background="new 0 0 24 24" xml:space="preserve">
<g>
	<path fill="none" d="M8.5,17v-4H8.49v4c0,0.275,0.224,0.5,0.5,0.5H9C8.725,17.5,8.5,17.275,8.5,17z"/>
	<path fill="none" d="M8.5,7c0-0.275,0.225-0.5,0.5-0.5H8.99c-0.276,0-0.5,0.225-0.5,0.5v2.5H8.5V7z"/>
	<circle fill="none" cx="16.25" cy="11.25" r="0.75"/>
	<path fill="none" d="M15.49,17v-4H8.5v4c0,0.275,0.225,0.5,0.5,0.5h5.99C15.264,17.5,15.49,17.275,15.49,17z"/>
	<path fill="none" d="M8.5,7v2.5h6.99V7c0-0.275-0.227-0.5-0.5-0.5H9C8.725,6.5,8.5,6.725,8.5,7z"/>
	<polygon fill="#5F5F77" points="9.5,15 9.5,16 14.5,16 14.5,15 9.51,15 	"/>
	<path fill="#5F5F77" d="M17,9.5h-0.51V7c0-0.827-0.674-1.5-1.5-1.5h-6c-0.827,0-1.5,0.673-1.5,1.5v2.5H7
		c-0.828,0-1.5,0.672-1.5,1.5v3c0,0.828,0.672,1.5,1.5,1.5h0.49V17c0,0.827,0.673,1.5,1.5,1.5h6c0.826,0,1.5-0.673,1.5-1.5v-1.5H17
		c0.828,0,1.5-0.672,1.5-1.5v-3C18.5,10.172,17.828,9.5,17,9.5z M8.49,7c0-0.275,0.224-0.5,0.5-0.5H9h5.99H15
		c0.275,0,0.5,0.225,0.5,0.5v2.5h-0.01H8.5H8.49V7z M15.5,17c0,0.275-0.225,0.5-0.5,0.5h-0.01H9H8.99c-0.276,0-0.5-0.225-0.5-0.5v-4
		H8.5h6.99h0.01V17z M16.25,12c-0.414,0-0.75-0.336-0.75-0.75s0.336-0.75,0.75-0.75S17,10.836,17,11.25S16.664,12,16.25,12z"/>
	<path fill="#9595A4" d="M15.49,17c0,0.275-0.227,0.5-0.5,0.5H15c0.275,0,0.5-0.225,0.5-0.5v-4h-0.01V17z"/>
	<path fill="#9595A4" d="M15.49,7v2.5h0.01V7c0-0.275-0.225-0.5-0.5-0.5h-0.01C15.264,6.5,15.49,6.725,15.49,7z"/>
</g>
</svg>
