<?xml version="1.0" encoding="utf-8"?>
<!-- Generator: Adobe Illustrator 15.0.2, SVG Export Plug-In . SVG Version: 6.00 Build 0)  -->
<!DOCTYPE svg PUBLIC "-//W3C//DTD SVG 1.1//EN" "http://www.w3.org/Graphics/SVG/1.1/DTD/svg11.dtd">
<svg version="1.1" id="Calque_1" xmlns="http://www.w3.org/2000/svg" xmlns:xlink="http://www.w3.org/1999/xlink" x="0px" y="0px"
	 width="160px" height="34px" viewBox="-32 0 160 34" enable-background="new -32 0 160 34" xml:space="preserve">
<circle opacity="0.5" fill="#D31147" enable-background="new    " cx="16" cy="17" r="12"/>
<g>
	<g>
		<g>
			<polygon fill="#FFFBFF" points="21.715,18.43 21.715,22.657 10.378,22.657 10.378,18.43 16.048,14.105 			"/>
		</g>
		<g>
			<polygon fill="#FFFBFF" points="8.698,18.188 8,17.233 16.051,11.343 24,17.236 23.298,18.184 16.046,12.808 			"/>
		</g>
	</g>
</g>
<circle opacity="0.5" fill="#D31147" enable-background="new    " cx="-16" cy="17" r="12"/>
<g>
	<g>
		<g>
			<polygon fill="#FFFBFF" points="-10.285,18.43 -10.285,22.657 -21.622,22.657 -21.622,18.43 -15.952,14.105 			"/>
		</g>
		<g>
			<polygon fill="#FFFBFF" points="-23.302,18.188 -24,17.233 -15.949,11.343 -8,17.236 -8.702,18.184 -15.954,12.808 			"/>
		</g>
	</g>
</g>
<circle fill="#D31147" cx="112" cy="17" r="12"/>
<g>
	<g>
		<g>
			<polygon fill="#FFFBFF" points="117.715,18.43 117.715,22.657 106.378,22.657 106.378,18.43 112.048,14.105 			"/>
		</g>
		<g>
			<polygon fill="#FFFBFF" points="104.697,18.188 104,17.233 112.051,11.343 120,17.236 119.298,18.184 112.046,12.808 			"/>
		</g>
	</g>
</g>
<circle fill="#D31147" cx="48" cy="17" r="12"/>
<g>
	<g>
		<polygon fill="#FFFBFF" points="53.715,18.43 53.715,22.657 42.378,22.657 42.378,18.43 48.048,14.105 		"/>
	</g>
	<g>
		<polygon fill="#FFFBFF" points="40.698,18.188 40,17.233 48.051,11.343 56,17.236 55.298,18.184 48.046,12.808 		"/>
	</g>
</g>
<circle fill="#D31147" cx="80" cy="17" r="12"/>
<g>
	<g>
		<polygon fill="#FFFBFF" points="85.715,18.43 85.715,22.657 74.378,22.657 74.378,18.43 80.048,14.105 		"/>
	</g>
	<g>
		<polygon fill="#FFFBFF" points="72.697,18.188 72,17.233 80.051,11.343 88,17.236 87.298,18.184 80.046,12.808 		"/>
	</g>
</g>
</svg>
