<?xml version="1.0" encoding="utf-8"?>
<!-- Generator: Adobe Illustrator 15.0.2, SVG Export Plug-In . SVG Version: 6.00 Build 0)  -->
<!DOCTYPE svg PUBLIC "-//W3C//DTD SVG 1.1//EN" "http://www.w3.org/Graphics/SVG/1.1/DTD/svg11.dtd">
<svg version="1.1" id="Calque_1" xmlns="http://www.w3.org/2000/svg" xmlns:xlink="http://www.w3.org/1999/xlink" x="0px" y="0px"
	 width="24px" height="24px" viewBox="0 0 24 24" enable-background="new 0 0 24 24" xml:space="preserve">
<circle opacity="0.5" fill="#D31147" enable-background="new    " cx="12" cy="12" r="12"/>
<g>
	<path fill="#FFFBFF" d="M11.999,6.267c-2.116,0-3.829,1.715-3.829,3.829c0,2.117,1.715,3.831,3.829,3.831
		c2.117,0,3.83-1.714,3.83-3.831C15.829,7.98,14.116,6.267,11.999,6.267z M12.186,13.128c-1.141,0-2.146-0.749-2.73-1.883h5.462
		C14.332,12.379,13.328,13.128,12.186,13.128z"/>
	<path fill="#FFFBFF" d="M14.312,14.424c-0.689,0.368-1.477,0.58-2.312,0.58c-0.834,0-1.622-0.21-2.311-0.58
		C8.2,14.813,7.034,15.74,6.5,17.733h11C16.966,15.74,15.801,14.813,14.312,14.424z"/>
</g>
</svg>
