<?xml version="1.0" encoding="utf-8"?>
<!-- Generator: Adobe Illustrator 15.0.2, SVG Export Plug-In . SVG Version: 6.00 Build 0)  -->
<!DOCTYPE svg PUBLIC "-//W3C//DTD SVG 1.1//EN" "http://www.w3.org/Graphics/SVG/1.1/DTD/svg11.dtd">
<svg version="1.1" id="Calque_1" xmlns="http://www.w3.org/2000/svg" xmlns:xlink="http://www.w3.org/1999/xlink" x="0px" y="0px"
	 width="160px" height="34px" viewBox="-32 0 160 34" enable-background="new -32 0 160 34" xml:space="preserve">
<circle opacity="0.5" fill="#D31147" enable-background="new    " cx="16" cy="17" r="12"/>
<g>
	<path fill="#FFFBFF" d="M15.999,11.267c-2.116,0-3.829,1.715-3.829,3.829c0,2.117,1.715,3.832,3.829,3.832
		c2.117,0,3.83-1.715,3.83-3.832C19.829,12.98,18.116,11.267,15.999,11.267z M16.186,18.128c-1.141,0-2.146-0.749-2.73-1.883h5.462
		C18.332,17.379,17.328,18.128,16.186,18.128z"/>
	<path fill="#FFFBFF" d="M18.313,19.424c-0.689,0.368-1.478,0.58-2.313,0.58c-0.834,0-1.622-0.21-2.311-0.58
		c-1.489,0.389-2.655,1.316-3.189,3.309h11C20.966,20.74,19.801,19.813,18.313,19.424z"/>
</g>
<circle opacity="0.5" fill="#D31147" enable-background="new    " cx="-16" cy="17" r="12"/>
<g>
	<path fill="#FFFBFF" d="M-16.001,11.267c-2.116,0-3.829,1.715-3.829,3.829c0,2.117,1.715,3.832,3.829,3.832
		c2.117,0,3.83-1.715,3.83-3.832C-12.171,12.98-13.884,11.267-16.001,11.267z M-15.814,18.128c-1.141,0-2.146-0.749-2.73-1.883
		h5.462C-13.668,17.379-14.672,18.128-15.814,18.128z"/>
	<path fill="#FFFBFF" d="M-13.687,19.424c-0.689,0.368-1.478,0.58-2.313,0.58c-0.834,0-1.622-0.21-2.311-0.58
		c-1.489,0.389-2.655,1.316-3.189,3.309h11C-11.034,20.74-12.199,19.813-13.687,19.424z"/>
</g>
<circle fill="#D31147" cx="112" cy="17" r="12"/>
<g>
	<path fill="#FFFBFF" d="M111.999,11.267c-2.116,0-3.829,1.715-3.829,3.829c0,2.117,1.715,3.832,3.829,3.832
		c2.117,0,3.83-1.715,3.83-3.832C115.829,12.98,114.116,11.267,111.999,11.267z M112.186,18.128c-1.141,0-2.146-0.749-2.729-1.883
		h5.462C114.332,17.379,113.328,18.128,112.186,18.128z"/>
	<path fill="#FFFBFF" d="M114.313,19.424c-0.688,0.368-1.478,0.58-2.313,0.58c-0.834,0-1.622-0.21-2.311-0.58
		c-1.489,0.389-2.655,1.316-3.189,3.309h11C116.966,20.74,115.801,19.813,114.313,19.424z"/>
</g>
<circle fill="#D31147" cx="48" cy="17" r="12"/>
<g>
	<path fill="#FFFBFF" d="M47.999,11.268c-2.116,0-3.829,1.715-3.829,3.829c0,2.117,1.715,3.831,3.829,3.831
		c2.117,0,3.83-1.717,3.83-3.831C51.829,12.983,50.116,11.268,47.999,11.268z M48.186,18.13c-1.141,0-2.146-0.75-2.73-1.884h5.462
		C50.332,17.38,49.328,18.13,48.186,18.13z"/>
	<path fill="#FFFBFF" d="M50.313,19.424c-0.689,0.369-1.478,0.58-2.313,0.58c-0.834,0-1.622-0.209-2.311-0.58
		c-1.489,0.391-2.655,1.317-3.189,3.312h11C52.966,20.741,51.801,19.814,50.313,19.424z"/>
</g>
<circle fill="#D31147" cx="80" cy="17" r="12"/>
<g>
	<path fill="#FFFBFF" d="M79.999,11.268c-2.116,0-3.829,1.715-3.829,3.829c0,2.117,1.715,3.831,3.829,3.831
		c2.117,0,3.83-1.717,3.83-3.831C83.829,12.983,82.116,11.268,79.999,11.268z M80.186,18.13c-1.141,0-2.146-0.75-2.729-1.884h5.462
		C82.332,17.38,81.328,18.13,80.186,18.13z"/>
	<path fill="#FFFBFF" d="M82.313,19.424c-0.688,0.369-1.478,0.58-2.313,0.58c-0.834,0-1.622-0.209-2.311-0.58
		c-1.489,0.391-2.655,1.317-3.189,3.312h11C84.966,20.741,83.801,19.814,82.313,19.424z"/>
</g>
</svg>
