<?xml version="1.0" encoding="utf-8"?>
<!-- Generator: Adobe Illustrator 15.0.2, SVG Export Plug-In . SVG Version: 6.00 Build 0)  -->
<!DOCTYPE svg PUBLIC "-//W3C//DTD SVG 1.1//EN" "http://www.w3.org/Graphics/SVG/1.1/DTD/svg11.dtd">
<svg version="1.1" id="Calque_1" xmlns="http://www.w3.org/2000/svg" xmlns:xlink="http://www.w3.org/1999/xlink" x="0px" y="0px"
	 width="24px" height="24px" viewBox="28 0 24 24" enable-background="new 28 0 24 24" xml:space="preserve">
<path fill="#0000FF" d="M46.345,16.468l-2.45-2.451c-0.216-0.215-0.605-0.195-0.997,0.01l-1.068-1.067
	c1.393-1.819,1.261-4.433-0.404-6.099c-1.813-1.812-4.751-1.812-6.565,0c-1.812,1.813-1.812,4.753,0,6.564
	c1.666,1.665,4.279,1.797,6.099,0.403l1.068,1.067c-0.203,0.393-0.225,0.781-0.01,0.998l2.451,2.451
	c0.31,0.309,0.982,0.139,1.499-0.381C46.484,17.448,46.654,16.776,46.345,16.468z M35.548,12.733c-1.431-1.432-1.431-3.753,0-5.186
	c1.433-1.432,3.751-1.431,5.185,0c1.432,1.431,1.432,3.752,0,5.186C39.3,14.165,36.979,14.165,35.548,12.733z"/>
</svg>
