<?xml version="1.0" encoding="utf-8"?>
<!-- Generator: Adobe Illustrator 15.0.2, SVG Export Plug-In . SVG Version: 6.00 Build 0)  -->
<!DOCTYPE svg PUBLIC "-//W3C//DTD SVG 1.1//EN" "http://www.w3.org/Graphics/SVG/1.1/DTD/svg11.dtd">
<svg version="1.1" id="Calque_1" xmlns="http://www.w3.org/2000/svg" xmlns:xlink="http://www.w3.org/1999/xlink" x="0px" y="0px"
	 width="347px" height="200px" viewBox="0 0 347 200" enable-background="new 0 0 347 200" xml:space="preserve">
<path fill="#FFFFFF" enable-background="new    " d="M173.5,5c-52.465,0-95,42.535-95,95s42.535,95,95,95s95-42.535,95-95
	S225.965,5,173.5,5z M238.044,117.044c0,2.263-1.849,4.106-4.107,4.106h-4.663l-12.785,17.24v-17.24h-38.583v12.523
	c0,2.258-1.845,4.104-4.1,4.104h-6.367v17.238l-12.788-17.244h-41.592c-2.254,0-4.103-1.847-4.103-4.098v-52.13
	c0-2.26,1.849-4.11,4.103-4.11h56.031V64.918c-0.003-2.257,1.841-4.104,4.1-4.104h60.747c2.261,0,4.107,1.847,4.107,4.104V117.044z"
	/>
<path opacity="0.5" fill="#542954" enable-background="new    " d="M173.5,5c-52.465,0-95,42.535-95,95s42.535,95,95,95
	s95-42.535,95-95S225.965,5,173.5,5z M238.044,117.044c0,2.263-1.849,4.106-4.107,4.106h-4.663l-12.785,17.24v-17.24h-38.583v12.523
	c0,2.258-1.845,4.104-4.1,4.104h-6.367v17.238l-12.788-17.244h-41.592c-2.254,0-4.103-1.847-4.103-4.098v-52.13
	c0-2.26,1.849-4.11,4.103-4.11h56.031V64.918c-0.003-2.257,1.841-4.104,4.1-4.104h60.747c2.261,0,4.107,1.847,4.107,4.104V117.044z"
	/>
</svg>
