<?xml version="1.0" encoding="utf-8"?>
<!-- Generator: Adobe Illustrator 15.0.2, SVG Export Plug-In . SVG Version: 6.00 Build 0)  -->
<!DOCTYPE svg PUBLIC "-//W3C//DTD SVG 1.1//EN" "http://www.w3.org/Graphics/SVG/1.1/DTD/svg11.dtd">
<svg version="1.1" id="Calque_1" xmlns="http://www.w3.org/2000/svg" xmlns:xlink="http://www.w3.org/1999/xlink" x="0px" y="0px"
	 width="24px" height="24px" viewBox="0 0 24 24" enable-background="new 0 0 24 24" xml:space="preserve">
<g>
	<path fill="#2E2E2D" d="M3.128,18.559c0.089-0.234,0.218-0.42,0.386-0.563l4.252-4.041c0.301,0.458,0.639,0.879,1.023,1.263
		c0.449,0.444,0.943,0.833,1.486,1.166L5.923,20.52c-0.142,0.157-0.319,0.277-0.539,0.357C5.167,20.957,4.949,21,4.725,21
		c-0.229,0-0.453-0.045-0.666-0.135c-0.213-0.094-0.406-0.227-0.574-0.403c-0.164-0.172-0.285-0.36-0.367-0.567
		c-0.081-0.211-0.12-0.425-0.12-0.644C2.998,19.021,3.041,18.792,3.128,18.559z"/>
	<path fill="#2E2E2D" d="M14.467,3c-3.609,0-6.533,2.925-6.533,6.534c0,3.608,2.926,6.534,6.533,6.534
		c3.609,0,6.535-2.926,6.535-6.534C21.002,5.924,18.076,3,14.467,3z M14.467,14.102c-2.521,0-4.566-2.045-4.566-4.566
		c0-2.522,2.045-4.566,4.566-4.566c2.523,0,4.568,2.044,4.568,4.566C19.035,12.057,16.99,14.102,14.467,14.102z"/>
</g>
</svg>
