<?xml version="1.0" encoding="utf-8"?>
<!-- Generator: Adobe Illustrator 15.0.2, SVG Export Plug-In . SVG Version: 6.00 Build 0)  -->
<!DOCTYPE svg PUBLIC "-//W3C//DTD SVG 1.1//EN" "http://www.w3.org/Graphics/SVG/1.1/DTD/svg11.dtd">
<svg version="1.1" id="Calque_1" xmlns="http://www.w3.org/2000/svg" xmlns:xlink="http://www.w3.org/1999/xlink" x="0px" y="0px"
	 width="280px" height="175px" viewBox="0 0 280 175" enable-background="new 0 0 280 175" xml:space="preserve">
<g>
	<path fill="#E9EAEE" d="M2.269,127.98c0.324,0.379,0.596,0.788,0.822,1.21l10.616-11.582c-2.952-2.45-3.734-6.74-1.653-10.089
		c0.468-0.752,1.063-1.369,1.714-1.895L2.18,95.883l-0.47,4.73c1.784,2.463,2.561,5.635,1.799,8.831
		c-0.522,2.182-1.674,4.052-3.217,5.457L0,117.837v8.437C0.844,126.667,1.623,127.23,2.269,127.98z"/>
	<path fill="#E9EAEE" d="M50.924,170.79l1.452,2.616c0.248-0.167,0.509-0.316,0.762-0.477v-2.225L50.924,170.79z"/>
	<path fill="#E9EAEE" d="M53.521,156.868l-3.728,1.382l4.016,5.334c0.394-1.114,1.03-2.397,2.03-3.693
		C55.246,158.748,54.458,157.728,53.521,156.868z"/>
	<path fill="#E9EAEE" d="M185.904,89.662L185.8,80.36l-12.701-0.726c-0.285,1.023-0.597,2.015-0.929,2.925L185.904,89.662z"/>
	<path fill="#E9EAEE" d="M100.329,75.813l6.33,5.321c-0.443-1.424-0.882-3.041-1.261-4.663L100.329,75.813z"/>
	<polygon fill="#E9EAEE" points="19.875,157.01 15.38,152.499 0,143.286 0,171.833 21.412,171.011 	"/>
	<path fill="#E9EAEE" d="M173.69,100.448l-5.947-12.983c-0.211,1.38-0.773,4.533-1.96,8.189L173.69,100.448z"/>
	<path fill="#E9EAEE" d="M1.184,131.274l1.473-1.613c-0.227-0.452-0.489-0.893-0.834-1.296c-0.524-0.612-1.148-1.081-1.822-1.433
		v3.034l1.129,1.319L1.184,131.274z"/>
	<path fill="#E9EAEE" d="M0,137.065v0.883c0.19-0.103,0.385-0.189,0.566-0.313L0,137.065z"/>
	<polygon fill="#E9EAEE" points="22.43,171.885 22.772,175 37.802,175 34.243,171.432 	"/>
	<path fill="#E9EAEE" d="M0.982,138.052c-0.314,0.221-0.645,0.403-0.982,0.566v3.594l12.731,7.629L0.982,138.052z"/>
	<polygon fill="#E9EAEE" points="0,172.744 0,175 21.848,175 21.51,171.921 	"/>
	<path fill="#E9EAEE" d="M51.612,173.926l-1.485-2.671l-6.771,0.575l-0.083,0.109L42.569,175h7.509
		c0.118-0.047,0.238-0.089,0.354-0.139C50.817,174.537,51.206,174.219,51.612,173.926z"/>
	<path fill="#E9EAEE" d="M168.615,87.171l6.469,14.127l4.653,2.817c1.274-0.904,2.827-1.442,4.51-1.375
		c0.63,0.019,1.229,0.146,1.807,0.317l-0.126-11.312L171.47,84.27C170.591,86.179,169.611,87.388,168.615,87.171z"/>
	<path fill="#E9EAEE" d="M161.233,111.664c4.563-3.153,10.216-4.298,15.601-3.24c0.053-0.227,0.139-0.435,0.208-0.648l-2.673-5.842
		l-8.885-5.389c-1.044,3.021-2.51,6.304-4.549,9.177L161.233,111.664z"/>
	<path fill="#E9EAEE" d="M174.884,69.32c0,1.914-0.598,5.767-1.542,9.409l12.021,0.684l-12.307-16.917
		c-0.131,0.809-0.264,1.623-0.415,2.473C172.642,64.969,174.884,64.649,174.884,69.32z"/>
	<path fill="#E9EAEE" d="M135.112,12.48c-1.806,0.661-3.23,1.911-4.134,3.454c0.732,0.289,1.708,0.592,2.962,0.863l1.868-2.41
		l5.646,1.21l0.737,2.013c0.341,0.005,0.664,0.016,1.021,0.016c0.745,0,1.497,0.026,2.25,0.075
		c-0.046-0.157-0.077-0.315-0.134-0.472C143.821,13.104,139.243,10.978,135.112,12.48z"/>
	<path fill="#E9EAEE" d="M164.521,120.456l3.239-4.283l11.58,0.996l0.535-1.051c-1.65-1.119-2.82-2.879-3.139-4.914l-15.243,5.648
		l0.083,1.663C161.576,118.516,162.832,119.66,164.521,120.456z"/>
	<path fill="#E9EAEE" d="M131.762,18.138c0,0-0.684-0.358-1.376-0.943c-0.104,0.277-0.195,0.558-0.268,0.845
		C130.633,18.1,131.181,18.138,131.762,18.138z"/>
	<path fill="#E9EAEE" d="M173.256,61.214l12.522,17.215l-0.399-35.464l-11.242-5.751l-0.943,0.148
		C174.528,41.766,175.095,49.081,173.256,61.214z"/>
	<path fill="#E9EAEE" d="M220.68,157.1l3.946,2.244l5.915-4.682l-1.729-15.517l-27.067-37.212l-11.535,4.271
		c0.742,1.198,1.151,2.622,1.097,4.132c-0.073,2.126-1.067,3.99-2.561,5.273c4.87,6.014,5.939,14.325,2.688,21.378l2.151,4.706
		l23.023,13.091c0.889,0.412,1.395,0.646,1.395,0.646S219.213,156.027,220.68,157.1z"/>
	<path fill="#E9EAEE" d="M176.676,110.245c-0.003-0.024-0.006-0.056-0.006-0.086c-5.331-1.098-10.972,0.169-15.333,3.579
		l0.107,2.152L176.676,110.245z"/>
	<path fill="#E9EAEE" d="M194.239,143.124l0.765,1.666c4.039,1.866,8.072,3.73,11.607,5.367L194.239,143.124z"/>
	<path fill="#E9EAEE" d="M187.793,139.732c0.048-0.062,0.088-0.135,0.137-0.202l-6.322-3.593l-1.502,1.988
		c2.006,0.92,4.261,1.958,6.651,3.06C187.117,140.586,187.463,140.169,187.793,139.732z"/>
	<path fill="#E9EAEE" d="M192.877,142.349l-3.438-1.956c-0.092,0.128-0.171,0.263-0.266,0.391c-0.251,0.332-0.521,0.642-0.787,0.953
		c1.741,0.803,3.534,1.631,5.338,2.464L192.877,142.349z"/>
	<path fill="#E9EAEE" d="M223.85,159.955l-0.188-0.106c0.043,0.051,0.085,0.103,0.127,0.154L223.85,159.955z"/>
	<path fill="#E9EAEE" d="M228.055,162.351l-3.35-1.907l-0.369,0.292c0.563,0.818,1.015,1.716,1.276,2.687L228.055,162.351z"/>
	<path fill="#E9EAEE" d="M215.361,15.438c0.066-0.043,0.141-0.079,0.214-0.122L210.836,0h-7.544l-2.935,0.38L215.361,15.438z"/>
	<path fill="#E9EAEE" d="M280,15.107v-2.372l-1.209,1.236C279.222,14.313,279.62,14.699,280,15.107z"/>
	<path fill="#E9EAEE" d="M278.009,13.458L280,11.421V9.268c-1.11,1.118-2.049,2.347-2.847,3.635
		C277.453,13.062,277.722,13.275,278.009,13.458z"/>
	<path fill="#E9EAEE" d="M279.108,22.693l-3.532,6.24l-0.537-0.037c0.257,0.88,0.592,1.736,0.978,2.573
		c0.25-0.11,0.514-0.184,0.758-0.318c1.317-0.71,2.395-1.684,3.226-2.816v-7.79l-1.887,0.295L279.108,22.693z"/>
	<path fill="#E9EAEE" d="M278.138,14.644l-2.17,2.218l1.223,2.268l2.81-0.443v-2.141C279.456,15.821,278.832,15.182,278.138,14.644z
		"/>
	<path fill="#E9EAEE" d="M0,100.016v8.521l0.759-7.661C0.524,100.574,0.267,100.291,0,100.016z"/>
	<path fill="#E9EAEE" d="M275.442,12.193c0.922-1.552,2.035-3.025,3.379-4.352c0.382-0.377,0.776-0.735,1.179-1.077V0h-18.409
		l5.961,12.676C270.113,11.491,272.918,11.368,275.442,12.193z"/>
	<polygon fill="#E9EAEE" points="280,117.816 280,116.731 278.62,117.822 	"/>
	<path fill="#E9EAEE" d="M240.002,148.35l-0.452,1.938c2.494,0.396,4.406,2.45,4.602,4.999L280,139.553V119.65l-3.715,0.019
		L240.002,148.35z"/>
	<path fill="#E9EAEE" d="M248.26,0h-0.616c0.083,0.1,0.159,0.204,0.248,0.301L248.26,0z"/>
	<path fill="#E9EAEE" d="M277.208,31.958c-0.263,0.146-0.543,0.22-0.813,0.342c0.898,1.754,2.071,3.404,3.526,4.883
		c0.025,0.025,0.052,0.049,0.078,0.073v-7.493C279.221,30.625,278.291,31.374,277.208,31.958z"/>
	<path fill="#E9EAEE" d="M128.117,18.907c0,0-1.792-1.344-2.367-2.113c0,0,1.397,0.77,3.629,1.144
		c0.106-0.444,0.254-0.875,0.428-1.295c-0.48-0.523-0.86-1.151-0.86-1.831c0,0,0.364,0.363,1.346,0.826
		c0.984-1.721,2.555-3.117,4.563-3.848c4.516-1.65,9.521,0.672,11.172,5.188c0.095,0.259,0.152,0.521,0.221,0.783
		c10.629,0.914,21.343,6.434,21.343,12.917c0,0,2.825,0.138,4.845,4.626l0.47,0.241l12.366-1.943l-0.04-3.557
		c-1.421,0.165-2.899,0.061-4.357-0.379c-3.511-1.051-6.074-3.734-7.147-6.967l-25.894-15.51L17.535,24.08
		c-0.324,2.267-1.311,4.461-3.007,6.246c-0.688,0.727-1.467,1.302-2.279,1.809l38.603,30.386c2.854-5.14,9.103-7.535,14.725-5.33
		c5.018,1.974,7.89,6.974,7.459,12.083l11.755-4.125L68.858,51.752c-4.901,3.074-11.294,3.343-16.531,0.08
		c-7.322-4.559-9.552-14.185-4.993-21.506c4.565-7.315,14.185-9.552,21.506-4.993s9.552,14.185,4.993,21.506
		c-0.941,1.51-2.136,2.744-3.441,3.801l16.413,13.8l8.302-2.915c-4.012-5.036-5.766-11.783-4.155-18.536
		c2.551-10.675,12.597-17.594,23.223-16.518c0.566-1.387,1.489-2.938,3.132-4.558C121.91,17.372,128.117,18.907,128.117,18.907z"/>
	<path fill="#E9EAEE" d="M266.776,79.48c2.506,5.231,0.403,11.446-4.663,14.154L280,109.767V41.051l-20.117,32.715
		C262.798,74.566,265.37,76.541,266.776,79.48z"/>
	<path fill="#E9EAEE" d="M252.622,93.958l-5.567,24.012l30.08-0.141l2.865-2.267v-4.556l-18.779-16.945
		C258.36,95.266,255.28,95.149,252.622,93.958z"/>
	<path fill="#E9EAEE" d="M259.589,0.355c0.105-0.115,0.197-0.235,0.29-0.355h-4.153l-0.335,0.362L253.454,0h-3.737l-1.171,0.955
		C251.785,3.748,256.674,3.509,259.589,0.355z"/>
	<path fill="#E9EAEE" d="M7.414,33.785c-2.56,0.273-5.174-0.32-7.414-1.78v36.857l3.913,0.223L7.414,33.785z"/>
	<path fill="#E9EAEE" d="M225.396,18.671l21.928-17.906c-0.223-0.246-0.425-0.502-0.614-0.765h-27.492l2.09,14.76
		C223.171,15.414,224.656,16.844,225.396,18.671z"/>
	<polygon fill="#E9EAEE" points="0,24.853 0,28.175 0.71,27.631 	"/>
	<path fill="#E9EAEE" d="M7.512,32.795l0.296-2.982l-0.162-0.128l0.144-0.183l-6.075-1.21L0,29.943v0.879
		C2.215,32.466,4.903,33.124,7.512,32.795z"/>
	<polygon fill="#E9EAEE" points="3.824,70.001 0,69.784 0,92.853 1.438,94.062 	"/>
	<path fill="#E9EAEE" d="M1.327,95.162L0,94.047v4.666c0.312,0.267,0.612,0.545,0.89,0.843L1.327,95.162z"/>
	<path fill="#E9EAEE" d="M2.216,12.768C1.438,13.087,0.697,13.509,0,14.016v5.621l3.806-4.009L2.216,12.768z"/>
	<path fill="#E9EAEE" d="M30.209,8.606l-6.447-1.531L23.548,7.28l-2.014,1.938c2.561,2.121,6.114,2.927,9.488,1.778
		C35.669,9.412,38.369,4.691,37.579,0h-3.887l1.034,3.032L30.209,8.606z"/>
	<path fill="#E9EAEE" d="M31.322,11.863c-3.728,1.271-7.642,0.354-10.447-2.011l-5.717,5.5c1.797,2.268,2.61,5.036,2.442,7.792
		L146.562,6.427L135.832,0H38.508C39.29,5.083,36.36,10.148,31.322,11.863z"/>
	<path fill="#E9EAEE" d="M0,8.771v4.063c0.559-0.359,1.137-0.677,1.737-0.933L0,8.771z"/>
	<path fill="#E9EAEE" d="M218.894,14.351c0.501-0.012,0.983,0.037,1.454,0.128L218.296,0h-6.501l4.604,14.889
		C217.17,14.564,218.007,14.369,218.894,14.351z"/>
	<path fill="#E9EAEE" d="M18.47,4.817c0.504,1.485,1.351,2.738,2.393,3.777l2.207-2.124l-2.13-6.243L21.123,0h-3.044
		C17.814,1.564,17.923,3.213,18.47,4.817z"/>
	<path fill="#E9EAEE" d="M14.1,14.131c0.174,0.165,0.296,0.354,0.458,0.531l5.641-5.433c-1.127-1.131-2.047-2.5-2.597-4.113
		C17.021,3.412,16.897,1.665,17.152,0H0v6.882l2.626,4.73C6.503,10.335,10.928,11.124,14.1,14.131z"/>
	<polygon fill="#E9EAEE" points="196.139,0 139.41,0 149.502,6.045 	"/>
	<path fill="#E9EAEE" d="M257.347,77.897l3.63,0.421l3.062,6.411l-3.832,6.062l-1.43-0.164l2.634,2.37
		c4.828-2.389,6.881-8.244,4.547-13.127c-1.326-2.774-3.801-4.602-6.576-5.292L257.347,77.897z"/>
	<path fill="#E9EAEE" d="M184.98,114.229l-3.064-0.109l-0.095,0.188l-0.409,0.801l0.62,1.351c0.541,0.172,1.104,0.294,1.695,0.312
		c1.141,0.043,2.207-0.227,3.166-0.696C186.313,115.421,185.666,114.81,184.98,114.229z"/>
	<path fill="#E9EAEE" d="M242.202,43.777c-6.521,0-12.271,3.367-15.621,8.446l5.012,3l10.609-6.673l11.483,7.218v13.433
		l-6.734,4.241l3.782,1.938c0.514-0.367,1.046-0.709,1.632-0.99c1.62-0.776,3.337-1.063,5.012-1.002
		c2.212-3.074,3.532-6.833,3.532-10.903C260.909,52.168,252.519,43.777,242.202,43.777z"/>
	<path fill="#E9EAEE" d="M256.723,74.261c-1.332,0.043-2.683,0.342-3.96,0.954c-0.385,0.183-0.722,0.428-1.075,0.654l2.261,1.155
		C254.969,76.204,255.898,75.275,256.723,74.261z"/>
	<path fill="#E9EAEE" d="M205.246,99.659l40.99-15.192c-0.013-0.226,0.023-0.446,0.029-0.666l-8.715-0.495
		c-0.231,0.08-0.439,0.202-0.684,0.269c-2.732,0.794-5.513,0.428-7.865-0.758l-41.763-2.377l11.554,15.884L205.246,99.659z"/>
	<path fill="#E9EAEE" d="M229.13,99.061c4.033,0.178,7.603,1.968,10.139,4.712l8.604-13.982c-0.207-0.33-0.434-0.636-0.604-0.99
		c-0.525-1.1-0.795-2.243-0.935-3.392l-39.987,14.82l10.071,5.2C219.192,101.408,223.887,98.835,229.13,99.061z"/>
	<path fill="#E9EAEE" d="M221.356,27.661l0.012,0.257l2.781-0.44c0.141-0.629,0.22-1.271,0.201-1.943
		C223.568,26.494,222.548,27.234,221.356,27.661z"/>
	<path fill="#E9EAEE" d="M249.554,90.56c0.716,0.825,1.521,1.546,2.433,2.091l0.752-3.239l0.092,0.024l-1.131-2.365L249.554,90.56z"
		/>
	<path fill="#E9EAEE" d="M236.904,110.313l-0.337,7.706l4.614-0.024c0.391-1.161,0.685-2.371,0.739-3.654
		c0.129-2.892-0.69-5.599-2.151-7.86l-2.499,4.059L236.904,110.313z"/>
	<path fill="#E9EAEE" d="M253.539,90.017l-0.013,0.055l-0.69,2.976c2.341,1.101,5.06,1.271,7.615,0.324l-3.245-2.927L253.539,90.017
		z"/>
	<path fill="#E9EAEE" d="M224.247,24.728c-0.141-1.039-0.471-1.999-0.966-2.866l-1.913,3.184h-0.109l0.073,2.011
		C222.529,26.586,223.544,25.773,224.247,24.728z"/>
	<path fill="#E9EAEE" d="M221.484,17.73l1.772,2.689l1.656-1.351c-0.611-1.668-1.882-3.007-3.515-3.673l0.324,2.304L221.484,17.73z"
		/>
	<path fill="#E9EAEE" d="M224.827,23.646c0.331-0.782,0.514-1.644,0.495-2.548c-0.006-0.366-0.061-0.721-0.128-1.076l-1.442,1.18
		C224.222,21.953,224.607,22.76,224.827,23.646z"/>
	<path fill="#E9EAEE" d="M218.465,17.376l2.286-0.049l-0.317-2.218c-0.489-0.11-0.996-0.189-1.528-0.177
		c-0.831,0.019-1.613,0.202-2.335,0.514l0.532,1.711C217.567,17.192,218.02,17.266,218.465,17.376z"/>
	<path fill="#E9EAEE" d="M225.097,25.455c0.024,0.654-0.031,1.284-0.146,1.901l36.368-5.727c0.269-3.465,2.188-6.71,5.408-8.556
		L260.658,0.16c-0.177,0.232-0.323,0.477-0.525,0.696c-3.227,3.484-8.636,3.719-12.174,0.578l-22.258,18.172
		c0.116,0.477,0.195,0.972,0.201,1.479c0.031,1.29-0.323,2.494-0.922,3.539C225.017,24.899,225.084,25.168,225.097,25.455z"/>
	<path fill="#E9EAEE" d="M274.257,32.049c-0.471-1.069-0.862-2.164-1.155-3.282l-4.688-0.318l-3.02-5.604l-3.165,0.495
		c0.116,1.295,0.482,2.585,1.136,3.801C265.523,31.126,270.033,33.003,274.257,32.049z"/>
	<path fill="#E9EAEE" d="M273.547,16.288c0.38-1.13,0.844-2.237,1.419-3.3c-2.262-0.69-4.749-0.538-7.028,0.52l1.167,2.481
		L273.547,16.288z"/>
	<path fill="#E9EAEE" d="M262.235,21.483l3.532-0.556l2.542-4.492l-1.185-2.524C264.283,15.561,262.541,18.415,262.235,21.483z"/>
	<path fill="#E9EAEE" d="M244.481,74.994c-0.128,0.752-0.342,1.473-0.617,2.176l3.196,2.885c0.63-1.54,1.613-2.916,2.903-4.04
		l-3.918-2.005L244.481,74.994z"/>
	<path fill="#E9EAEE" d="M240.369,75.27l-4.327,4.858c1.222,0.428,2.493,0.733,3.819,0.898c1.253-0.96,2.23-2.207,2.897-3.612
		l-2.329-2.103L240.369,75.27z"/>
	<path fill="#E9EAEE" d="M210.802,31.438c1.516,1.498,3.605,2.408,5.897,2.323c2.958-0.116,5.451-1.858,6.734-4.309l-4.528,0.709
		l-2.285,1.564l-1.638-0.947L210.802,31.438z"/>
	<path fill="#E9EAEE" d="M186.1,25.742l0.027,2.243l1.078,0.648c2.726-0.947,4.981-3.068,6.032-5.947l-2.576-0.929L186.1,25.742z"/>
	<path fill="#E9EAEE" d="M243.144,76.522c0.104-0.275,0.177-0.562,0.251-0.843l-0.697,0.434L243.144,76.522z"/>
	<path fill="#E9EAEE" d="M246.346,82.505c-0.593,0.122-1.198,0.208-1.803,0.275l1.772,0.104
		C246.327,82.756,246.327,82.627,246.346,82.505z"/>
	<path fill="#E9EAEE" d="M247.171,84.119l0.63-0.232l-0.617-0.037C247.184,83.941,247.171,84.033,247.171,84.119z"/>
	<path fill="#E9EAEE" d="M247.946,82.09c-0.195,0.061-0.396,0.104-0.592,0.159c-0.043,0.226-0.092,0.452-0.123,0.685l1.767,0.104
		L247.946,82.09z"/>
	<path fill="#E9EAEE" d="M248.955,81.759l1.332,1.204v0.006l0.067,0.055l1.639-2.597C251.027,80.959,250.007,81.393,248.955,81.759z
		"/>
	<path fill="#E9EAEE" d="M248.411,88.91l2.348-3.813l-0.398-0.825l-0.274-0.251l-2.873,1.063c0.11,1.118,0.374,2.243,0.887,3.318
		C248.191,88.586,248.313,88.738,248.411,88.91z"/>
	<path fill="#E9EAEE" d="M241.133,81.136c0.354,0.024,0.708,0.055,1.069,0.055c1.448,0,2.848-0.178,4.205-0.489l-2.928-2.646
		C242.893,79.217,242.099,80.25,241.133,81.136z"/>
	<path fill="#E9EAEE" d="M186.206,35.313l0.083,7.083l35.568,18.206c0.251-2.763,1.051-5.366,2.292-7.694l-31.156-18.665
		L186.206,35.313z"/>
	<path fill="#E9EAEE" d="M225.646,53.8c-1.217,2.316-1.95,4.914-2.097,7.664l4.81,2.463c0.733-0.434,1.51-0.806,2.359-1.063v-6.02
		l-0.471-0.287L225.646,53.8z"/>
	<path fill="#E9EAEE" d="M229.008,78.294l-0.079-0.287c-1.992-1.699-3.644-3.777-4.865-6.118c-0.177,1.32-0.098,2.695,0.293,4.058
		c0.776,2.67,2.586,4.749,4.859,5.964l8.183,0.464c0.024-0.006,0.043-0.018,0.062-0.024c-2.995-0.715-5.739-2.072-8.062-3.942
		L229.008,78.294z"/>
	<path fill="#E9EAEE" d="M223.495,62.484c0,1.943,0.3,3.819,0.855,5.585c0.752-1.399,1.827-2.603,3.129-3.563l-3.984-2.035
		C223.495,62.478,223.495,62.484,223.495,62.484z"/>
	<polygon fill="#E9EAEE" points="186.188,33.455 190.539,32.771 186.148,30.143 	"/>
	<path fill="#E9EAEE" d="M186.298,43.435l0.409,36.057l40.681,2.316c-1.809-1.363-3.238-3.264-3.917-5.61
		c-0.556-1.913-0.514-3.85-0.055-5.653c-1.063-2.469-1.656-5.194-1.656-8.061c0-0.293,0.03-0.587,0.049-0.88L186.298,43.435z"/>
	<path fill="#E9EAEE" d="M230.719,63.847c-0.482,0.165-0.966,0.336-1.405,0.568l1.405,0.721V63.847z"/>
	<path fill="#E9EAEE" d="M224.81,69.323c0.751,1.913,1.809,3.673,3.116,5.219l-0.892-3.068l3.685-4.138v-1.167l-2.305-1.18
		C226.795,66.065,225.561,67.575,224.81,69.323z"/>
	<path fill="#E9EAEE" d="M262.56,27.57c-0.703-1.308-1.106-2.695-1.241-4.083l-36.992,5.824c-1.308,2.934-4.168,5.054-7.597,5.183
		c-2.694,0.11-5.127-1.051-6.795-2.915l-14.112,2.218l29.268,17.528c3.648-5.58,9.949-9.277,17.112-9.277
		c11.287,0,20.437,9.149,20.437,20.437c0,1.338-0.134,2.646-0.379,3.911l16.874-27.446c-0.171-0.165-0.349-0.306-0.52-0.477
		c-1.656-1.681-2.971-3.563-3.967-5.567C269.979,34.048,264.948,32,262.56,27.57z"/>
	<path fill="#E9EAEE" d="M238.145,152.291h-0.006l0.061-0.244l-0.855-1.174c-0.403,0.116-0.782,0.275-1.137,0.478l-1.198,0.947
		c-0.831,0.897-1.351,2.09-1.351,3.403c0,1.382,0.563,2.634,1.467,3.545l1.9-0.838l-1.424-0.897v-3.618L238.145,152.291z"/>
	<path fill="#E9EAEE" d="M237.332,149.297l1.845-1.455l6.503-28.033l-3.839,0.019c-2.193,4.816-6.905,8.141-12.387,8.508
		l1.332,11.972L237.332,149.297z"/>
	<path fill="#E9EAEE" d="M238.841,149.267l-0.972,0.77l0.165,0.232c0.195-0.024,0.391-0.062,0.593-0.062L238.841,149.267z"/>
	<path fill="#E9EAEE" d="M240.448,119.834l-4.84,0.024v-0.397l-6.717,3.813l0.428,3.826
		C234.147,126.801,238.327,123.971,240.448,119.834z"/>
	<path fill="#E9EAEE" d="M220.312,125.902l8.299,11.41l-0.99-8.917C224.9,128.236,222.42,127.326,220.312,125.902z"/>
	<path fill="#E9EAEE" d="M236.2,108.766l2.378-3.862c-2.335-2.671-5.695-4.431-9.51-4.596c-4.736-0.208-8.996,2.084-11.551,5.696
		l3.888,2.004l7.517-4.271L236.2,108.766z"/>
	<path fill="#E9EAEE" d="M215.465,107.012l-11.453-5.916l-1.375,0.508l11.795,16.219c-0.434-1.503-0.703-3.073-0.629-4.718
		C213.9,110.898,214.512,108.852,215.465,107.012z"/>
	<path fill="#E9EAEE" d="M227.021,123.054l-6.998-4.846l0.373-8.647l-3.826-1.975c-0.873,1.681-1.436,3.551-1.521,5.568
		c-0.323,7.267,5.226,13.427,12.425,13.964L227.021,123.054z"/>
	<polygon fill="#E9EAEE" points="201.213,99.642 202.075,100.833 202.912,100.521 	"/>
	<path fill="#E9EAEE" d="M238.511,150.684c-0.055,0.007-0.104,0.013-0.158,0.019l0.116,0.165L238.511,150.684z"/>
	<path fill="#E9EAEE" d="M233.194,155.701c0-0.88,0.226-1.699,0.599-2.438l-1.437,1.13l0.642,5.781l1.681-0.733
		C233.769,158.458,233.194,157.149,233.194,155.701z"/>
	<path fill="#E9EAEE" d="M239.929,160.566c1.479-0.379,2.701-1.412,3.331-2.775l-3.967,1.742L239.929,160.566z"/>
	<path fill="#E9EAEE" d="M238.688,161.202c-0.771,0-1.504-0.159-2.17-0.446l-3.294,1.441l0.238,2.17l11.898,6.766l-6.147-9.98
		C239.042,161.165,238.871,161.202,238.688,161.202z"/>
	<path fill="#E9EAEE" d="M212.739,21.349c0.006,0.269,0.061,0.525,0.098,0.788l1.735-1.191l1.809-3.013l-0.024-0.092
		c-0.091,0-0.183-0.018-0.274-0.012c-0.941,0.037-1.821,0.263-2.652,0.599C212.99,19.307,212.721,20.297,212.739,21.349z"/>
	<path fill="#E9EAEE" d="M239.445,150.745l-0.256,1.112l0.14,0.195l-0.219,0.159l2.67,1.681v2.432l1.932-0.85
		C243.602,153.061,241.793,151.1,239.445,150.745z"/>
	<polygon fill="#E9EAEE" points="230.657,155.738 225.481,159.826 229.1,161.886 231.238,160.951 	"/>
	<polygon fill="#E9EAEE" points="230.994,142.141 232.234,153.324 236.61,149.865 	"/>
	<polygon fill="#E9EAEE" points="231.208,163.084 231.495,163.249 231.464,162.968 	"/>
	<path fill="#E9EAEE" d="M238.944,160.713l-0.494-0.807l-1.29,0.568c0.483,0.152,0.99,0.263,1.528,0.263
		C238.78,160.737,238.859,160.713,238.944,160.713z"/>
	<path fill="#E9EAEE" d="M186.849,92.222l0.128,11.16c1.045,0.471,1.94,1.191,2.655,2.065l11.551-4.284l-1.785-2.456L186.849,92.222
		z"/>
	<polygon fill="#E9EAEE" points="175.68,36.969 185.366,41.926 185.293,35.454 	"/>
	<path fill="#E9EAEE" d="M182.25,105.875l3.837,0.146l-0.024-2.304c-0.583-0.195-1.188-0.336-1.833-0.36
		c-1.445-0.055-2.793,0.366-3.921,1.106l2.045,1.24L182.25,105.875z"/>
	<polygon fill="#E9EAEE" points="180.482,24.606 185.201,27.436 185.187,26.018 	"/>
	<path fill="#E9EAEE" d="M214.053,17.425c0.55-0.153,1.119-0.25,1.705-0.293l-0.727-0.727
		C214.671,16.709,214.341,17.052,214.053,17.425z"/>
	<path fill="#E9EAEE" d="M178.537,108.839c0.32,0.092,0.639,0.184,0.956,0.287l1.971-2.89l-1.935-1.174
		c-0.709,0.629-1.283,1.405-1.675,2.285L178.537,108.839z"/>
	<path fill="#E9EAEE" d="M181.137,28.786c1.121,0.336,2.253,0.421,3.358,0.366L175.06,23.5
		C176.218,25.957,178.338,27.949,181.137,28.786z"/>
	<path fill="#E9EAEE" d="M187.077,8.955c5.629,1.687,8.837,7.541,7.315,13.176l13.408,4.834c-0.036-0.281-0.104-0.544-0.116-0.831
		c-0.141-3.771,2.14-7.034,5.439-8.379c0.391-0.672,0.905-1.259,1.497-1.76L199.215,0.53l-48.442,6.279l22.454,13.452
		c-0.12-1.326-0.013-2.695,0.394-4.046C175.331,10.488,181.357,7.243,187.077,8.955z"/>
	<path fill="#E9EAEE" d="M190.891,20.866l2.634,0.953c1.345-5.133-1.595-10.457-6.704-11.984c-5.23-1.568-10.756,1.412-12.32,6.637
		c-0.442,1.479-0.486,2.97-0.254,4.4l4.422,2.646l-1.754-6.325l5.402-4.718l6.809,2.035L190.891,20.866z"/>
	<path fill="#E9EAEE" d="M180.926,114.052l0.214-0.422l-1.494-2.591c-0.039-0.019-0.082-0.037-0.125-0.055L180.926,114.052z"/>
	<path fill="#E9EAEE" d="M187.27,107.3l1.708,2.951l-2.2,3.227c0.565,0.52,1.088,1.076,1.58,1.645
		c1.356-1.174,2.256-2.873,2.325-4.81c0.056-1.424-0.352-2.763-1.075-3.881L187.27,107.3z"/>
	<path fill="#E9EAEE" d="M183.704,117.395c-0.459-0.018-0.898-0.091-1.33-0.183l8.073,17.631c2.24-6.172,1.055-13.163-3.153-18.272
		C186.216,117.12,185.002,117.444,183.704,117.395z"/>
	<path fill="#E9EAEE" d="M186.982,104.078l0.027,2.341l2.014-0.745C188.455,105.02,187.765,104.476,186.982,104.078z"/>
	<path fill="#E9EAEE" d="M189.956,139.628l2.267,1.29l-1.319-2.885C190.613,138.577,190.298,139.108,189.956,139.628z"/>
	<path fill="#E9EAEE" d="M178.961,104.72l-3.199-1.943l1.767,3.851C177.907,105.918,178.381,105.264,178.961,104.72z"/>
	<path fill="#E9EAEE" d="M181.187,116.82c-0.178-0.072-0.353-0.146-0.522-0.232l-0.34,0.667l0.947,0.079l4.81,12.688l-3.914,5.177
		l6.279,3.575c0.593-0.899,1.1-1.822,1.521-2.775L181.187,116.82z"/>
	<path fill="#E9EAEE" d="M178.341,110.605l-0.996,0.373c0.257,1.889,1.302,3.538,2.812,4.59l0.238-0.478L178.341,110.605z"/>
	<path fill="#E9EAEE" d="M24.336,107.354l-1.799,1.967l0.935,1.92l0.382,0.104l1.91,0.514
		C25.81,110.251,25.321,108.656,24.336,107.354z"/>
	<path fill="#E9EAEE" d="M72.714,46.136c4.162-6.686,2.115-15.511-4.577-19.679c-6.686-4.174-15.511-2.121-19.679,4.571
		c-4.168,6.686-2.121,15.511,4.571,19.679c4.651,2.903,10.313,2.732,14.75,0.141l-3.761-3.16l0.092-0.11l-9.161,0.042l-4.522-9.326
		l5.427-8.709l10.365-0.042l4.522,9.326l-4.935,7.915l3.563,3C70.649,48.782,71.807,47.591,72.714,46.136z"/>
	<polygon fill="#E9EAEE" points="33.366,170.553 20.915,158.055 22.332,170.974 	"/>
	<path fill="#E9EAEE" d="M63.395,122.98l-2.833-0.77c-0.208,1.87,0.104,3.813,1.023,5.604c2.494,4.846,8.471,6.766,13.323,4.271
		c2.084-1.069,3.584-2.799,4.47-4.791l-3.544-0.954l-2.075,3.502l-7.15-0.617L63.395,122.98z"/>
	<path fill="#E9EAEE" d="M56.861,79.37c-1.665-0.654-3.077-1.663-4.238-2.878l-27.837,30.374c1.155,1.485,1.717,3.318,1.625,5.171
		l27.07,7.314l7.771-1.771c0.999-1.602,2.389-2.977,4.189-3.905c0.238-0.123,0.486-0.184,0.728-0.281l-3.753-33.308
		C60.586,80.274,58.692,80.091,56.861,79.37z"/>
	<path fill="#E9EAEE" d="M36.825,170.418l4.77-0.184l-3.227-4.284l-0.141,0.232l-0.397-0.232l-2.509-1.503
		c-0.018,0.446-0.061,0.886-0.021,1.344C35.444,167.49,36.006,169.043,36.825,170.418z"/>
	<path fill="#E9EAEE" d="M62.567,117.279l3.941-0.898l-0.232-2.054c-0.138,0.062-0.278,0.092-0.413,0.159
		C64.522,115.177,63.428,116.154,62.567,117.279z"/>
	<polygon fill="#E9EAEE" points="68.504,71.841 68.446,71.669 68.271,71.651 68.275,71.627 66.86,72.672 70.731,72.892 
		68.739,71.755 	"/>
	<path fill="#E9EAEE" d="M62.835,75.636l0.376,3.331c3.031-0.568,5.742-2.408,7.37-5.164l-4.88-0.281L62.835,75.636z"/>
	<path fill="#E9EAEE" d="M60.021,60.62l7.291,2.86l1.354,7.181l0.162,0.092l3.175-1.112c0.602-4.828-2.065-9.65-6.799-11.508
		c-5.186-2.042-10.973,0.226-13.546,5.023l2.38,1.87L60.021,60.62z"/>
	<path fill="#E9EAEE" d="M50.942,71.761l3.976,0.226l-1.152-6.075l-0.034,0.042l-2.505-1.967c-0.046,0.11-0.116,0.202-0.159,0.312
		C50.09,66.787,50.142,69.409,50.942,71.761z"/>
	<path fill="#E9EAEE" d="M34.292,165.87c-0.058-0.684-0.025-1.356,0.033-2.021l-12.149-7.279l13.198,13.243
		C34.815,168.597,34.411,167.282,34.292,165.87z"/>
	<path fill="#E9EAEE" d="M83.364,73.607l-10.933-1.417c-0.052,0.146-0.067,0.299-0.125,0.446c-0.009,0.024-0.027,0.049-0.037,0.073
		l0.522,0.299L83.364,73.607z"/>
	<path fill="#E9EAEE" d="M71.385,72.208c0.021-0.049,0.024-0.098,0.043-0.147l-0.395-0.055L71.385,72.208z"/>
	<path fill="#E9EAEE" d="M71.679,71.168c0.046-0.165,0.101-0.33,0.137-0.495l-1.06,0.372L71.679,71.168z"/>
	<path fill="#E9EAEE" d="M85.604,65.833L72.962,70.27c-0.061,0.349-0.189,0.685-0.281,1.027l22.973,2.982L85.604,65.833z"/>
	<path fill="#E9EAEE" d="M60.742,121.313l3.068,0.831l2.882-4.87l-4.88,1.111C61.292,119.296,60.953,120.286,60.742,121.313z"/>
	<path fill="#E9EAEE" d="M55.364,119.858l4.489,1.216c0.177-0.844,0.443-1.65,0.813-2.427L55.364,119.858z"/>
	<path fill="#E9EAEE" d="M21.477,107.134l0.632,1.302l1.626-1.778c-0.385-0.392-0.81-0.758-1.299-1.063
		c-2.322-1.448-5.149-1.362-7.364-0.073l1.876,1.577l-0.042,0.055L21.477,107.134z"/>
	<path fill="#E9EAEE" d="M52.715,75.031l1.959-2.139l-3.41-0.189C51.636,73.54,52.144,74.304,52.715,75.031z"/>
	<path fill="#E9EAEE" d="M11.741,17.37l2.117-2.036c-0.149-0.165-0.269-0.348-0.431-0.501c-2.851-2.701-6.817-3.44-10.322-2.353
		l1.623,2.921l6.86,1.369L11.741,17.37z"/>
	<path fill="#E9EAEE" d="M24.722,115.415c0.513-0.825,0.834-1.717,0.981-2.622l-2.218-0.599l-2.46,3.936l-4.706,0.024l0.248,2.274
		C19.585,119.363,22.971,118.221,24.722,115.415z"/>
	<path fill="#E9EAEE" d="M22.784,105.031c0.526,0.324,0.981,0.715,1.399,1.137l27.844-30.385c-0.78-0.959-1.416-2.005-1.864-3.147
		L4.744,70.05L2.29,94.776l12.241,10.292C16.979,103.535,20.172,103.4,22.784,105.031z"/>
	<path fill="#E9EAEE" d="M8.67,30.491l-0.22,2.194c0.721-0.159,1.424-0.404,2.105-0.709L8.67,30.491z"/>
	<path fill="#E9EAEE" d="M62.304,79.083l-0.375-3.331l-6.344-2.494l-0.123,0.135l-2.151,2.347c1.069,1.137,2.374,2.084,3.923,2.695
		C58.903,79.089,60.629,79.254,62.304,79.083z"/>
	<path fill="#E9EAEE" d="M3.864,131.604c0.223,1.803-0.272,3.66-1.449,5.133l17.109,17.173l0.012,0.007l-2.771-25.259L3.864,131.604
		z"/>
	<path fill="#E9EAEE" d="M3.292,131.732l-1.631,0.373l-0.187,0.201l-0.14-0.128l-0.049,0.012l-0.807,2.604l1.528,1.533
		C3.035,135.002,3.476,133.346,3.292,131.732z"/>
	<path fill="#E9EAEE" d="M25.278,115.764c-1.864,2.988-5.405,4.241-8.632,3.367l0.923,8.409l34.007-7.755l-25.24-6.82
		C26.17,113.93,25.828,114.883,25.278,115.764z"/>
	<path fill="#E9EAEE" d="M14.876,117.683c0.006,0,0.012,0.006,0.018,0.013c0.226,0.14,0.467,0.231,0.703,0.348l-0.113-1.026
		L14.876,117.683z"/>
	<path fill="#E9EAEE" d="M15.353,115.807l-0.006-0.062l0.067-0.006l0.156-0.171l-1.977-4.07l2.463-3.948l-0.049-0.043l-1.727-1.454
		c-0.636,0.501-1.213,1.094-1.665,1.82c-1.913,3.063-1.18,7.01,1.537,9.247L15.353,115.807z"/>
	<path fill="#E9EAEE" d="M3.047,130.59l-0.302,0.33l0.354-0.086C3.078,130.755,3.072,130.669,3.047,130.59z"/>
	<path fill="#E9EAEE" d="M16.664,127.742l-0.981-8.929c-0.385-0.159-0.77-0.33-1.136-0.557c-0.043-0.024-0.074-0.061-0.116-0.092
		L3.488,130.106c0.07,0.202,0.131,0.397,0.183,0.6L16.664,127.742z"/>
	<path fill="#E9EAEE" d="M67.496,116.771l6.667,0.581l3.251,6.319l-1.094,1.852l3.422,0.923c0.828-2.445,0.715-5.207-0.556-7.683
		c-2.276-4.43-7.45-6.368-12.027-4.785l0.293,2.616L67.496,116.771z"/>
	<path fill="#E9EAEE" d="M194.1,22.998c-1.063,2.903-3.246,5.085-5.919,6.222l5.191,3.105l15.376-2.42
		c-0.323-0.599-0.592-1.229-0.77-1.9L194.1,22.998z"/>
	<path fill="#E9EAEE" d="M108.125,84.986c-0.058-0.108-0.12-0.244-0.181-0.372l-10.992-9.241l-0.987-0.128l-21.38-1.216
		l38.858,22.096c-1.348-3.318-2.472-6.656-2.472-8.572C110.972,87.553,109.563,87.667,108.125,84.986z"/>
	<polygon fill="#E9EAEE" points="248.821,175 250.308,175 248.021,173.699 	"/>
	<path fill="#E9EAEE" d="M106.78,65.322l-0.512-5.299l-1.056-1.078l-7.599,2.67c1.932,2.055,4.315,3.716,7.045,4.811
		C105.138,65.24,106.002,65.322,106.78,65.322z"/>
	<path fill="#E9EAEE" d="M247.972,80.274c1.863-0.611,3.6-1.51,5.157-2.634l-2.297-1.18
		C249.554,77.494,248.595,78.808,247.972,80.274z"/>
	<path fill="#E9EAEE" d="M276.683,13.691c-0.392,0.715-0.739,1.442-1.033,2.182l1.705-1.742
		C277.129,13.99,276.921,13.813,276.683,13.691z"/>
	<path fill="#E9EAEE" d="M230.156,163.543l-4.285,1.881c0,4.073,0,7.124,0,8.595l1.503,0.981h5.427l-1.178-10.626L230.156,163.543z"
		/>
	<path fill="#E9EAEE" d="M104.315,68.25c-3.389-1.292-6.305-3.368-8.583-5.974l-8.116,2.848l11.135,9.363l6.29,0.357
		c-0.452-2.19-0.756-4.258-0.756-5.685C104.286,68.824,104.298,68.529,104.315,68.25z"/>
	<path fill="#E9EAEE" d="M240.179,160.976l6.839,11.099l5.146,2.926H280v-33.329l-36.142,15.858
		C243.266,159.203,241.902,160.487,240.179,160.976z"/>
	<polygon fill="#E9EAEE" points="233.591,165.498 234.647,175 247.742,175 246.363,172.759 	"/>
	<path fill="#E9EAEE" d="M53.18,166.285l-1.849,3.576l1.807-0.069v-2.844C53.138,166.948,53.137,166.698,53.18,166.285z"/>
	<polygon fill="#E9EAEE" points="186.726,81.289 186.827,90.138 196.983,95.388 	"/>
	<path fill="#E9EAEE" d="M208.425,26.103c0.018,0.391,0.091,0.77,0.164,1.143l3.008,1.088l-0.202-5.213l0.904-0.617
		c-0.073-0.373-0.128-0.746-0.141-1.137c-0.018-0.904,0.146-1.76,0.446-2.555C210.025,20.218,208.302,22.974,208.425,26.103z"/>
	<path fill="#E9EAEE" d="M106.377,134.594l-26.103-7.054c-0.957,2.23-2.619,4.168-4.944,5.366
		c-5.311,2.726-11.825,0.635-14.557-4.67c-1.033-2.011-1.372-4.186-1.115-6.27l-6.203-1.675l-35.789,8.158l2.86,26.06l13.937,8.348
		c0.895-5.219,5.179-9.398,10.701-9.863c3.282-0.281,6.365,0.8,8.697,2.774l33.579-12.446c9.364-4.445,17.518-8.364,17.518-8.364
		S105.549,134.955,106.377,134.594z"/>
	<polygon fill="#E9EAEE" points="211.902,29.409 212.446,29.324 212.018,29.079 	"/>
	<polygon fill="#E9EAEE" points="186.854,106.474 186.793,106.474 186.806,106.492 	"/>
	<path fill="#E9EAEE" d="M209.536,29.782l2.348-0.373l-3.013-1.088C209.048,28.835,209.268,29.324,209.536,29.782z"/>
	<path fill="#E9EAEE" d="M111.61,121.27c0,0,5.937-1.609,5.937-3.428c0-1.819,0.462-11.781,0.462-11.781s-2.091-4.075-3.993-8.559
		L72.528,73.913l-0.853-0.049c-1.751,3.288-4.853,5.476-8.352,6.111l3.728,33.069c4.959-1.62,10.49,0.52,12.947,5.305
		c1.381,2.689,1.522,5.684,0.642,8.342l26.848,7.252C109.37,132.544,111.61,129.215,111.61,121.27z"/>
	<path fill="#E9EAEE" d="M62.478,154.92c3.186-1.377,9.039-4.089,15.401-7.08l-23.319,8.644c0.766,0.766,1.427,1.637,1.969,2.586
		C57.894,157.557,59.789,156.083,62.478,154.92z"/>
	<polygon fill="#E9EAEE" points="240.332,146.926 274.8,119.675 246.627,119.803 	"/>
	<path fill="#E9EAEE" d="M12.004,18.39l1.357,5.305l0.055-0.006l3.203-0.416c0.199-2.555-0.52-5.134-2.161-7.248L12.004,18.39z"/>
	<path fill="#E9EAEE" d="M249.06,91.372l-8.587,13.965c1.797,2.567,2.842,5.684,2.695,9.058c-0.056,1.259-0.312,2.444-0.66,3.594
		l3.6-0.013l5.665-24.408C250.759,93.005,249.859,92.253,249.06,91.372z"/>
	<path fill="#E9EAEE" d="M37.412,171.31c0.834,1.131,1.87,2.085,3.062,2.818l1.949-2.592l0.037-0.152l-0.195-0.264L37.412,171.31z"
		/>
	<path fill="#E9EAEE" d="M41.699,158.531l7.334-0.624l-0.116-0.312l0.434-0.158l3.355-1.241c-2.072-1.564-4.675-2.432-7.456-2.194
		c-5.177,0.44-9.201,4.449-9.873,9.406l2.903,1.735L41.699,158.531z"/>
	<path fill="#E9EAEE" d="M13.067,24.575l-4.373,4.608l0.101,0.012l-0.019,0.208l2.646,2.084c0.862-0.495,1.684-1.07,2.402-1.828
		c1.482-1.564,2.386-3.471,2.719-5.451l-3.465,0.446L13.067,24.575z"/>
	<path fill="#E9EAEE" d="M8.352,33.675L4.832,69.14L49.858,71.7c-0.749-2.469-0.749-5.183,0.269-7.774
		c0.079-0.208,0.205-0.379,0.293-0.574L11.38,32.624C10.412,33.113,9.4,33.474,8.352,33.675z"/>
	<path fill="#E9EAEE" d="M0.444,113.374c1.008-1.161,1.791-2.549,2.172-4.144c0.608-2.543,0.15-5.072-1.048-7.181L0.444,113.374z"/>
	<path fill="#E9EAEE" d="M112.634,31.734c0.505-0.597,0.546-1.834,0.951-3.454c-9.56-0.759-18.55,5.519-20.849,15.136
		c-1.525,6.393,0.262,12.797,4.226,17.454l7.544-2.646l-5.977-6.105l3.306-13.849l3.754-1.272c0.237-0.602,0.529-1.158,0.903-1.619
		C108.987,32.309,111.579,32.98,112.634,31.734z"/>
	<path fill="#E9EAEE" d="M41.687,174.757l0.235-1.027l-0.639,0.85C41.415,174.646,41.552,174.695,41.687,174.757z"/>
	<polygon fill="#FFFFFF" points="255.726,0 253.454,0 255.391,0.362 	"/>
	<path fill="#FFFFFF" d="M134.855,11.79c-2.007,0.73-3.578,2.127-4.563,3.848c0.203,0.096,0.426,0.194,0.686,0.296
		c0.904-1.542,2.328-2.792,4.134-3.454c4.131-1.503,8.709,0.624,10.218,4.749c0.057,0.156,0.088,0.314,0.134,0.472
		c0.261,0.017,0.522,0.038,0.784,0.061c-0.068-0.261-0.126-0.524-0.221-0.783C144.377,12.462,139.372,10.14,134.855,11.79z"/>
	<path fill="#FFFFFF" d="M130.118,18.04c0.072-0.287,0.164-0.568,0.268-0.845c-0.198-0.167-0.395-0.352-0.579-0.552
		c-0.174,0.42-0.321,0.852-0.428,1.295C129.616,17.978,129.863,18.011,130.118,18.04z"/>
	<path fill="#FFFFFF" d="M225.871,175h1.503l-1.503-0.981C225.871,174.653,225.871,175,225.871,175z"/>
	<path fill="#FFFFFF" d="M135.809,14.387l-1.868,2.41c1.967,0.425,4.653,0.758,8.251,0.813l-0.737-2.013L135.809,14.387z"/>
	<path fill="#FFFFFF" d="M244.151,155.286c-0.195-2.549-2.107-4.603-4.602-4.999l0.452-1.938l36.283-28.681L280,119.65v-1.834
		l-1.38,0.006l1.38-1.091v-1.169l-2.865,2.267l-30.08,0.141l5.567-24.012c2.658,1.191,5.738,1.308,8.599,0.104L280,111.007v-1.24
		l-17.887-16.133c5.066-2.708,7.169-8.922,4.663-14.154c-1.406-2.939-3.979-4.914-6.894-5.714L280,41.051v-3.794
		c-0.026-0.024-0.053-0.048-0.078-0.073c-1.455-1.479-2.628-3.129-3.526-4.883c0.27-0.122,0.55-0.195,0.813-0.342
		c1.083-0.584,2.013-1.333,2.792-2.194v-1.429c-0.831,1.132-1.908,2.106-3.226,2.816c-0.244,0.134-0.508,0.208-0.758,0.318
		c-0.386-0.837-0.721-1.693-0.978-2.573l0.537,0.037l3.532-6.24l-0.995-1.852L280,20.545v-1.859l-2.81,0.443l-1.223-2.268
		l2.17-2.218c0.694,0.538,1.318,1.177,1.862,1.901v-1.438c-0.38-0.409-0.778-0.795-1.209-1.136L280,12.735v-1.314l-1.991,2.037
		c-0.287-0.183-0.556-0.397-0.855-0.556c0.798-1.288,1.736-2.517,2.847-3.635V6.765c-0.402,0.342-0.797,0.7-1.179,1.077
		c-1.344,1.327-2.457,2.799-3.379,4.352c-2.524-0.825-5.329-0.703-7.891,0.483L261.591,0h-1.712
		c-0.093,0.121-0.185,0.241-0.29,0.355c-2.915,3.154-7.804,3.392-11.043,0.599L249.717,0h-1.457l-0.368,0.301
		C247.803,0.204,247.727,0.1,247.644,0h-0.935c0.189,0.263,0.392,0.52,0.614,0.765l-21.928,17.906
		c-0.739-1.827-2.225-3.257-4.089-3.911L219.217,0h-0.921l2.052,14.479c-0.471-0.092-0.953-0.141-1.454-0.128
		c-0.887,0.019-1.724,0.214-2.494,0.538L211.795,0h-0.959l4.739,15.316c-0.073,0.043-0.147,0.079-0.214,0.122L200.357,0.38
		L203.292,0h-7.153l-46.637,6.045L139.41,0h-3.578l10.729,6.427L17.599,23.145c0.168-2.756-0.645-5.524-2.442-7.792l5.717-5.5
		c2.805,2.365,6.719,3.282,10.447,2.011C36.36,10.148,39.29,5.083,38.508,0h-0.929c0.79,4.691-1.91,9.412-6.557,10.996
		c-3.374,1.149-6.927,0.342-9.488-1.778l2.014-1.938l0.214-0.205l6.447,1.531l4.517-5.574L33.692,0h-12.57l-0.184,0.227l2.13,6.243
		l-2.207,2.124c-1.042-1.039-1.888-2.292-2.393-3.777C17.923,3.213,17.814,1.564,18.078,0h-0.926
		c-0.254,1.665-0.13,3.412,0.45,5.116c0.55,1.613,1.47,2.982,2.597,4.113l-5.641,5.433c-0.162-0.177-0.284-0.366-0.458-0.531
		c-3.172-3.007-7.597-3.795-11.474-2.518L0,6.882v1.888L1.737,11.9c-0.6,0.256-1.178,0.574-1.737,0.933v1.183
		c0.697-0.507,1.438-0.929,2.216-1.249l1.589,2.86L0,19.637v5.216l0.71,2.778L0,28.175v1.768l1.715-1.652l6.075,1.21l-0.144,0.183
		l0.162,0.128l-0.296,2.982C4.903,33.124,2.215,32.466,0,30.822v1.183c2.24,1.46,4.854,2.053,7.414,1.78L3.913,69.084L0,68.862
		v0.922l3.824,0.217L1.438,94.062L0,92.853v1.194l1.327,1.115L0.89,99.556C0.612,99.258,0.312,98.979,0,98.713v1.303
		c0.267,0.275,0.524,0.559,0.759,0.86L0,108.537v9.3l0.292-2.936c1.543-1.405,2.695-3.275,3.217-5.457
		c0.761-3.196-0.015-6.368-1.799-8.831l0.47-4.73l11.587,9.742c-0.651,0.525-1.247,1.143-1.714,1.895
		c-2.081,3.349-1.299,7.639,1.653,10.089L3.09,129.19c-0.226-0.422-0.498-0.831-0.822-1.21c-0.646-0.75-1.425-1.313-2.269-1.707
		v0.659c0.674,0.352,1.298,0.82,1.822,1.433c0.345,0.403,0.608,0.844,0.834,1.296l-1.473,1.613l-0.055,0.012L0,129.967v7.099
		l0.566,0.57c-0.181,0.123-0.376,0.21-0.566,0.313v0.67c0.337-0.163,0.667-0.346,0.982-0.566l11.75,11.789L0,142.212v1.074
		l15.38,9.213l4.495,4.511l1.537,14.001L0,171.833v0.911l21.51-0.823L21.848,175h0.924l-0.342-3.115l11.813-0.453L37.802,175h4.768
		l0.704-3.061l0.083-0.109l6.771-0.575l1.485,2.671c-0.406,0.293-0.794,0.611-1.179,0.936c-0.116,0.05-0.236,0.092-0.354,0.139h3.06
		v-2.07c-0.253,0.16-0.514,0.31-0.762,0.477l-1.452-2.616l2.213-0.085v-0.913l-1.807,0.069l1.849-3.576
		c0.061-0.596,0.225-1.553,0.63-2.701l-4.016-5.334l3.728-1.382c0.937,0.859,1.725,1.88,2.318,3.022
		c0.212-0.274,0.443-0.548,0.69-0.821c-0.542-0.949-1.204-1.82-1.969-2.586l23.319-8.644c3.15-1.48,6.421-3.027,9.561-4.518
		l-33.579,12.446c-2.332-1.975-5.415-3.056-8.697-2.774c-5.521,0.465-9.806,4.645-10.701,9.863l-13.937-8.348l-2.86-26.06
		l35.789-8.158l6.203,1.675c-0.257,2.084,0.082,4.259,1.115,6.27c2.732,5.305,9.247,7.396,14.557,4.67
		c2.326-1.198,3.988-3.136,4.944-5.366l26.103,7.054c0.339-0.147,0.717-0.357,1.112-0.651l-26.848-7.252
		c0.88-2.658,0.739-5.652-0.642-8.342c-2.457-4.785-7.987-6.925-12.947-5.305l-3.728-33.069c3.499-0.636,6.601-2.824,8.352-6.111
		l0.853,0.049l41.487,23.589c-0.193-0.456-0.385-0.916-0.572-1.377L74.585,74.029l21.38,1.216l0.987,0.128l10.992,9.241
		c-0.394-0.827-0.84-2.048-1.285-3.479l-6.33-5.321l5.069,0.658c-0.127-0.546-0.245-1.089-0.356-1.628l-6.29-0.357l-11.135-9.363
		l8.116-2.848c2.277,2.606,5.194,4.682,8.583,5.974c0.052-0.81,0.172-1.4,0.343-1.823c-2.73-1.094-5.114-2.756-7.045-4.811
		l7.599-2.67l1.056,1.078l-1.408-14.567c0,0-0.614-5.053,0.729-8.458l-3.754,1.272l-3.306,13.849l5.977,6.105l-7.544,2.646
		c-3.963-4.657-5.75-11.062-4.226-17.454c2.299-9.618,11.29-15.896,20.849-15.136c0.14-0.561,0.327-1.167,0.589-1.81
		c-10.626-1.076-20.672,5.843-23.223,16.518c-1.61,6.753,0.144,13.5,4.155,18.536l-8.302,2.915l-16.413-13.8
		c1.305-1.057,2.5-2.292,3.441-3.801c4.559-7.321,2.328-16.947-4.993-21.506s-16.941-2.322-21.506,4.993
		c-4.559,7.321-2.329,16.947,4.993,21.506c5.237,3.263,11.63,2.995,16.531-0.08l15.932,13.396l-11.755,4.125
		c0.431-5.109-2.441-10.108-7.459-12.083c-5.623-2.206-11.871,0.19-14.725,5.33L12.249,32.135c0.813-0.507,1.592-1.082,2.279-1.809
		c1.696-1.785,2.683-3.979,3.007-6.246L147.833,7.188l25.894,15.51c1.073,3.233,3.637,5.916,7.147,6.967
		c1.458,0.44,2.937,0.544,4.357,0.379l0.04,3.557l-12.366,1.943l-0.47-0.241c0.271,0.602,0.524,1.289,0.758,2.057l0.943-0.148
		l11.242,5.751l0.399,35.464l-12.522-17.215c-0.063,0.422-0.13,0.848-0.199,1.282l12.307,16.917l-12.021-0.684
		c-0.078,0.304-0.16,0.605-0.243,0.905L185.8,80.36l0.104,9.302l-13.734-7.103c-0.225,0.614-0.459,1.186-0.7,1.71l14.458,7.477
		l0.126,11.312c-0.577-0.171-1.177-0.299-1.807-0.317c-1.683-0.067-3.235,0.471-4.51,1.375l-4.653-2.817l-6.469-14.127
		c-0.256-0.056-0.512-0.194-0.769-0.451c0,0-0.031,0.267-0.104,0.745l5.947,12.983l-7.907-4.794
		c-0.096,0.294-0.195,0.591-0.299,0.891l8.885,5.389l2.673,5.842c-0.069,0.214-0.155,0.422-0.208,0.648
		c-5.385-1.058-11.038,0.087-15.601,3.24l0.104,2.074c4.361-3.41,10.002-4.677,15.333-3.579c0,0.03,0.003,0.062,0.006,0.086
		l-15.231,5.646l0.049,0.962l15.243-5.648c0.318,2.035,1.488,3.795,3.139,4.914l-0.535,1.051l-11.58-0.996l-3.239,4.283
		c0.899,0.424,1.918,0.751,2.94,0.751c0,0-2.877,9.657,6.716,14.009c1.469,0.666,3.518,1.603,5.929,2.71l1.502-1.988l6.322,3.593
		c-0.049,0.067-0.089,0.141-0.137,0.202c-0.33,0.437-0.676,0.854-1.036,1.253c0.536,0.247,1.081,0.498,1.63,0.751
		c0.267-0.312,0.536-0.621,0.787-0.953c0.095-0.128,0.174-0.263,0.266-0.391l3.438,1.956l0.848,1.852
		c0.427,0.196,0.853,0.394,1.279,0.59l-0.765-1.666l12.372,7.033c4.455,2.061,8.109,3.753,9.998,4.628l-23.023-13.091l-2.151-4.706
		c3.251-7.053,2.182-15.364-2.688-21.378c1.493-1.283,2.487-3.147,2.561-5.273c0.055-1.51-0.354-2.934-1.097-4.132l11.535-4.271
		l27.067,37.212l1.729,15.517l-5.915,4.682l-3.946-2.244c0.975,0.713,2.054,1.64,2.982,2.749l0.188,0.106l-0.061,0.048
		c0.191,0.236,0.373,0.48,0.547,0.732l0.369-0.292l3.35,1.907l-2.442,1.071c0.155,0.577,0.259,1.174,0.259,1.8
		c0,0.069,0,0.134,0,0.202l4.285-1.881l1.467,0.831L232.801,175h1.847l-1.057-9.502l12.772,7.261l1.379,2.241h1.079l-0.801-1.301
		l2.287,1.301h1.855l-5.146-2.926l-6.839-11.099c1.724-0.488,3.087-1.772,3.68-3.446L280,141.671v-2.118L244.151,155.286z
		 M276.683,13.691c0.238,0.122,0.446,0.299,0.672,0.44l-1.705,1.742C275.943,15.133,276.291,14.406,276.683,13.691z M2.617,109.23
		c-0.382,1.595-1.164,2.982-2.172,4.144l1.124-11.324C2.767,104.158,3.225,106.688,2.617,109.23z M41.687,174.757
		c-0.135-0.062-0.272-0.11-0.403-0.178l0.639-0.85L41.687,174.757z M42.423,171.536l-1.949,2.592
		c-1.192-0.733-2.228-1.688-3.062-2.818l4.853-0.189l0.195,0.264L42.423,171.536z M45.25,154.002
		c2.781-0.237,5.384,0.63,7.456,2.194l-3.355,1.241l-0.434,0.158l0.116,0.312l-7.334,0.624l-3.419,6.612l-2.903-1.735
		C36.049,158.451,40.073,154.442,45.25,154.002z M35.322,164.447l2.509,1.503l0.397,0.232l0.141-0.232l3.227,4.284l-4.77,0.184
		c-0.819-1.375-1.381-2.928-1.525-4.627C35.261,165.333,35.304,164.894,35.322,164.447z M34.326,163.849
		c-0.058,0.665-0.091,1.338-0.033,2.021c0.119,1.412,0.522,2.727,1.082,3.942l-13.198-13.243L34.326,163.849z M33.366,170.553
		l-11.034,0.421l-1.417-12.919L33.366,170.553z M65.806,46.784l4.935-7.915l-4.522-9.326l-10.365,0.042l-5.427,8.709l4.522,9.326
		l9.161-0.042l-0.092,0.11l3.761,3.16c-4.437,2.591-10.099,2.762-14.75-0.141c-6.692-4.168-8.739-12.993-4.571-19.679
		c4.168-6.692,12.993-8.746,19.679-4.571c6.692,4.168,8.739,12.993,4.577,19.679c-0.908,1.455-2.065,2.646-3.346,3.648
		L65.806,46.784z M4.728,15.402L3.105,12.48c3.505-1.087,7.472-0.348,10.322,2.353c0.162,0.153,0.281,0.336,0.431,0.501
		l-2.117,2.036l-0.153-0.599L4.728,15.402z M8.67,30.491l1.886,1.485c-0.682,0.305-1.384,0.55-2.105,0.709L8.67,30.491z
		 M2.29,94.776L4.744,70.05l45.42,2.585c0.449,1.143,1.084,2.188,1.864,3.147l-27.844,30.385c-0.418-0.422-0.874-0.813-1.399-1.137
		c-2.612-1.631-5.806-1.496-8.253,0.037L2.29,94.776z M52.715,75.031c-0.571-0.727-1.079-1.491-1.451-2.328l3.41,0.189
		L52.715,75.031z M55.462,73.393l0.123-0.135l6.344,2.494l0.375,3.331c-1.674,0.171-3.401,0.006-5.069-0.647
		c-1.549-0.611-2.854-1.559-3.923-2.695L55.462,73.393z M15.072,105.521c2.215-1.289,5.042-1.375,7.364,0.073
		c0.489,0.306,0.914,0.672,1.299,1.063l-1.626,1.778l-0.632-1.302l-4.571,0.019l0.042-0.055L15.072,105.521z M21.024,116.13
		l2.46-3.936l2.218,0.599c-0.147,0.905-0.468,1.797-0.981,2.622c-1.751,2.806-5.137,3.948-8.155,3.014l-0.248-2.274L21.024,116.13z
		 M23.854,111.345l-0.382-0.104l-0.935-1.92l1.799-1.967c0.984,1.302,1.473,2.896,1.427,4.504L23.854,111.345z M12.615,107.873
		c0.452-0.727,1.029-1.319,1.665-1.82l1.727,1.454l0.049,0.043l-2.463,3.948l1.977,4.07l-0.156,0.171l-0.067,0.006l0.006,0.062
		l-1.201,1.313C11.436,114.883,10.702,110.936,12.615,107.873z M15.597,118.043c-0.235-0.116-0.477-0.208-0.703-0.348
		c-0.006-0.007-0.012-0.013-0.018-0.013l0.608-0.666L15.597,118.043z M14.43,118.165c0.042,0.031,0.073,0.067,0.116,0.092
		c0.367,0.227,0.751,0.397,1.136,0.557l0.981,8.929l-12.993,2.964c-0.052-0.202-0.113-0.397-0.183-0.6L14.43,118.165z M3.047,130.59
		c0.025,0.079,0.031,0.165,0.052,0.244l-0.354,0.086L3.047,130.59z M0.478,134.795l0.807-2.604l0.049-0.012l0.14,0.128l0.187-0.201
		l1.631-0.373c0.184,1.613-0.257,3.27-1.287,4.596L0.478,134.795z M19.536,153.917l-0.012-0.007L2.415,136.737
		c1.177-1.473,1.671-3.33,1.449-5.133l12.901-2.946L19.536,153.917z M17.568,127.54l-0.923-8.409
		c3.227,0.874,6.769-0.379,8.632-3.367c0.55-0.881,0.892-1.834,1.057-2.799l25.24,6.82L17.568,127.54z M55.364,119.858l5.302-1.211
		c-0.37,0.776-0.636,1.583-0.813,2.427L55.364,119.858z M79.187,118.764c1.271,2.476,1.384,5.237,0.556,7.683l-3.422-0.923
		l1.094-1.852l-3.251-6.319l-6.667-0.581l-0.043-0.177l-0.293-2.616C71.737,112.396,76.91,114.334,79.187,118.764z M73.76,129.844
		l2.075-3.502l3.544,0.954c-0.886,1.992-2.386,3.722-4.47,4.791c-4.853,2.494-10.83,0.574-13.323-4.271
		c-0.919-1.791-1.231-3.734-1.023-5.604l2.833,0.77l3.215,6.246L73.76,129.844z M63.81,122.144l-3.068-0.831
		c0.211-1.026,0.55-2.017,1.07-2.928l4.88-1.111L63.81,122.144z M66.508,116.381l-3.941,0.898c0.861-1.125,1.955-2.103,3.297-2.793
		c0.134-0.067,0.275-0.098,0.413-0.159L66.508,116.381z M66.169,113.393c-0.241,0.098-0.489,0.158-0.728,0.281
		c-1.8,0.929-3.19,2.304-4.189,3.905l-7.771,1.771l-27.07-7.314c0.091-1.853-0.471-3.686-1.625-5.171l27.837-30.374
		c1.162,1.216,2.573,2.224,4.238,2.878c1.831,0.721,3.725,0.904,5.555,0.715L66.169,113.393z M63.211,78.966l-0.376-3.331
		l2.866-2.114l4.88,0.281C68.953,76.559,66.243,78.398,63.211,78.966z M66.86,72.672l1.415-1.045l-0.003,0.024l0.174,0.018
		l0.058,0.171l0.235-0.085l1.992,1.136L66.86,72.672z M71.385,72.208l-0.352-0.202l0.395,0.055
		C71.41,72.109,71.407,72.159,71.385,72.208z M71.679,71.168l-0.923-0.123l1.06-0.372C71.779,70.838,71.725,71.003,71.679,71.168z
		 M72.962,70.27l12.642-4.437l10.05,8.446l-22.973-2.982C72.772,70.955,72.901,70.619,72.962,70.27z M72.305,72.635
		c0.058-0.146,0.073-0.299,0.125-0.446l10.933,1.417l-10.573-0.599l-0.522-0.299C72.278,72.684,72.296,72.66,72.305,72.635z
		 M65.204,58.133c4.733,1.858,7.401,6.68,6.799,11.508l-3.175,1.112l-0.162-0.092l-1.354-7.181l-7.291-2.86l-5.983,4.406l-2.38-1.87
		C54.231,58.359,60.018,56.091,65.204,58.133z M51.068,64.299c0.043-0.11,0.113-0.202,0.159-0.312l2.505,1.967l0.034-0.042
		l1.152,6.075l-3.976-0.226C50.142,69.409,50.09,66.787,51.068,64.299z M50.42,63.352c-0.088,0.195-0.214,0.367-0.293,0.574
		c-1.018,2.591-1.018,5.305-0.269,7.774L4.832,69.14l3.52-35.464c1.048-0.202,2.06-0.563,3.028-1.051L50.42,63.352z M13.825,29.66
		c-0.718,0.758-1.54,1.333-2.402,1.828l-2.646-2.084l0.019-0.208l-0.101-0.012l4.373-4.608l0.012,0.08l3.465-0.446
		C16.211,26.188,15.307,28.095,13.825,29.66z M16.618,23.273l-3.203,0.416l-0.055,0.006l-1.357-5.305l2.454-2.365
		C16.098,18.14,16.817,20.719,16.618,23.273z M274.8,119.675l-34.468,27.251l6.295-27.123L274.8,119.675z M246.107,117.976
		l-3.6,0.013c0.349-1.149,0.604-2.335,0.66-3.594c0.146-3.374-0.898-6.49-2.695-9.058l8.587-13.965
		c0.8,0.881,1.699,1.633,2.713,2.195L246.107,117.976z M186.726,81.289l10.258,14.099l-10.156-5.25L186.726,81.289z
		 M186.854,106.474l-0.049,0.019l-0.013-0.019H186.854z M212.299,22.503l-0.904,0.617l0.202,5.213l-3.008-1.088
		c-0.073-0.373-0.146-0.751-0.164-1.143c-0.123-3.129,1.601-5.885,4.18-7.291c-0.3,0.794-0.464,1.65-0.446,2.555
		C212.171,21.758,212.226,22.131,212.299,22.503z M212.446,29.324l-0.544,0.085l0.115-0.33L212.446,29.324z M211.884,29.409
		l-2.348,0.373c-0.269-0.458-0.488-0.947-0.665-1.461L211.884,29.409z M208.748,29.904l-15.376,2.42l-5.191-3.105
		c2.673-1.137,4.855-3.318,5.919-6.222l13.879,5.006C208.156,28.676,208.425,29.305,208.748,29.904z M253.129,77.641
		c-1.558,1.124-3.294,2.022-5.157,2.634c0.623-1.467,1.582-2.781,2.86-3.813L253.129,77.641z M251.688,75.868
		c0.354-0.226,0.69-0.471,1.075-0.654c1.277-0.611,2.628-0.911,3.96-0.954c-0.824,1.015-1.754,1.943-2.774,2.762L251.688,75.868z
		 M247.801,83.886l-0.63,0.232c0-0.085,0.013-0.177,0.013-0.269L247.801,83.886z M247.231,82.933
		c0.031-0.232,0.08-0.458,0.123-0.685c0.195-0.055,0.396-0.098,0.592-0.159l1.052,0.947L247.231,82.933z M250.086,84.021
		l0.274,0.251l0.398,0.825l-2.348,3.813c-0.098-0.172-0.22-0.324-0.312-0.508c-0.513-1.075-0.776-2.2-0.887-3.318L250.086,84.021z
		 M250.354,83.024l-0.067-0.055v-0.006l-1.332-1.204c1.052-0.367,2.072-0.8,3.038-1.332L250.354,83.024z M247.061,80.055
		l-3.196-2.885c0.275-0.703,0.489-1.424,0.617-2.176l1.564-0.984l3.918,2.005C248.674,77.139,247.69,78.515,247.061,80.055z
		 M246.407,80.702c-1.357,0.312-2.757,0.489-4.205,0.489c-0.361,0-0.715-0.031-1.069-0.055c0.966-0.886,1.76-1.919,2.347-3.08
		L246.407,80.702z M246.346,82.505c-0.019,0.122-0.019,0.25-0.03,0.379l-1.772-0.104C245.147,82.713,245.753,82.627,246.346,82.505z
		 M243.144,76.522l-0.446-0.409l0.697-0.434C243.32,75.96,243.247,76.247,243.144,76.522z M242.759,77.415
		c-0.667,1.405-1.645,2.652-2.897,3.612c-1.326-0.165-2.598-0.471-3.819-0.898l4.327-4.858l0.061,0.042L242.759,77.415z
		 M237.46,82.353c-0.019,0.006-0.037,0.018-0.062,0.024l-8.183-0.464c-2.273-1.216-4.083-3.294-4.859-5.964
		c-0.391-1.363-0.47-2.738-0.293-4.058c1.222,2.341,2.873,4.418,4.865,6.118l0.079,0.287l0.391,0.116
		C231.721,80.28,234.465,81.637,237.46,82.353z M223.416,70.545c-0.459,1.803-0.501,3.741,0.055,5.653
		c0.679,2.347,2.108,4.247,3.917,5.61l-40.681-2.316l-0.409-36.057l35.511,18.169c-0.019,0.293-0.049,0.587-0.049,0.88
		C221.76,65.351,222.353,68.076,223.416,70.545z M230.719,66.169v1.167l-3.685,4.138l0.892,3.068
		c-1.308-1.546-2.365-3.306-3.116-5.219c0.751-1.748,1.985-3.257,3.604-4.333L230.719,66.169z M229.313,64.416
		c0.439-0.232,0.923-0.404,1.405-0.568v1.29L229.313,64.416z M224.351,68.07c-0.556-1.766-0.855-3.642-0.855-5.585
		c0,0,0-0.006,0-0.012l3.984,2.035C226.178,65.467,225.103,66.67,224.351,68.07z M230.719,62.863
		c-0.85,0.257-1.626,0.629-2.359,1.063l-4.81-2.463c0.146-2.75,0.88-5.347,2.097-7.664l4.602,2.756l0.471,0.287V62.863z
		 M221.857,60.602l-35.568-18.206l-0.083-7.083l6.787-1.07l31.156,18.665C222.908,55.236,222.108,57.839,221.857,60.602z
		 M186.188,33.455l-0.04-3.313l4.391,2.628L186.188,33.455z M187.205,28.633l-1.078-0.648l-0.027-2.243l4.562-3.984l2.576,0.929
		C192.187,25.565,189.931,27.686,187.205,28.633z M186.894,116.075c-0.959,0.47-2.025,0.739-3.166,0.696
		c-0.592-0.018-1.154-0.14-1.695-0.312l-0.62-1.351l0.409-0.801l0.095-0.188l3.064,0.109
		C185.666,114.81,186.313,115.421,186.894,116.075z M187.239,80.439l41.763,2.377c2.353,1.186,5.133,1.552,7.865,0.758
		c0.244-0.067,0.452-0.189,0.684-0.269l8.715,0.495c-0.006,0.22-0.042,0.44-0.029,0.666l-40.99,15.192l-6.453-3.336L187.239,80.439z
		 M246.334,85.408c0.14,1.149,0.409,2.292,0.935,3.392c0.171,0.354,0.397,0.66,0.604,0.99l-8.604,13.982
		c-2.536-2.744-6.105-4.534-10.139-4.712c-5.243-0.226-9.938,2.348-12.712,6.368l-10.071-5.2L246.334,85.408z M239.77,106.479
		c1.461,2.262,2.28,4.969,2.151,7.86c-0.055,1.283-0.349,2.493-0.739,3.654l-4.614,0.024l0.337-7.706l0.366,0.226L239.77,106.479z
		 M252.738,89.411l-0.752,3.239c-0.911-0.545-1.717-1.266-2.433-2.091l2.146-3.489l1.131,2.365L252.738,89.411z M252.836,93.047
		l0.69-2.976l0.013-0.055l3.667,0.428l3.245,2.927C257.896,94.318,255.177,94.147,252.836,93.047z M265.957,79.871
		c2.334,4.883,0.281,10.738-4.547,13.127l-2.634-2.37l1.43,0.164l3.832-6.062l-3.062-6.411l-3.63-0.421l2.034-3.319
		C262.156,75.27,264.631,77.097,265.957,79.871z M257.377,73.387c-1.675-0.062-3.392,0.226-5.012,1.002
		c-0.586,0.281-1.118,0.624-1.632,0.99l-3.782-1.938l6.734-4.241V55.768l-11.483-7.218l-10.609,6.673l-5.012-3
		c3.35-5.079,9.101-8.446,15.621-8.446c10.316,0,18.707,8.391,18.707,18.707C260.909,66.554,259.589,70.313,257.377,73.387z
		 M278.614,38.472c0.171,0.171,0.349,0.312,0.52,0.477L262.26,66.396c0.245-1.265,0.379-2.573,0.379-3.911
		c0-11.288-9.149-20.437-20.437-20.437c-7.163,0-13.464,3.698-17.112,9.277l-29.268-17.528l14.112-2.218
		c1.668,1.864,4.101,3.025,6.795,2.915c3.429-0.128,6.289-2.249,7.597-5.183l36.992-5.824c0.135,1.387,0.538,2.774,1.241,4.083
		c2.389,4.431,7.419,6.478,12.088,5.335C275.644,34.91,276.958,36.792,278.614,38.472z M224.149,27.478l-2.781,0.44l-0.012-0.257
		c1.191-0.427,2.212-1.167,2.994-2.126C224.369,26.207,224.29,26.849,224.149,27.478z M262.229,23.341l3.165-0.495l3.02,5.604
		l4.688,0.318c0.293,1.118,0.685,2.212,1.155,3.282c-4.224,0.954-8.733-0.923-10.892-4.908
		C262.712,25.926,262.346,24.636,262.229,23.341z M274.966,12.988c-0.575,1.063-1.039,2.17-1.419,3.3l-4.442-0.299l-1.167-2.481
		C270.217,12.45,272.704,12.297,274.966,12.988z M268.31,16.435l-2.542,4.492l-3.532,0.556c0.306-3.068,2.048-5.922,4.89-7.572
		L268.31,16.435z M225.701,19.606l22.258-18.172c3.538,3.142,8.947,2.906,12.174-0.578c0.202-0.22,0.349-0.464,0.525-0.696
		l6.068,12.914c-3.22,1.845-5.14,5.09-5.408,8.556l-36.368,5.727c0.115-0.617,0.171-1.247,0.146-1.901
		c-0.013-0.287-0.08-0.556-0.116-0.831c0.599-1.045,0.953-2.249,0.922-3.539C225.896,20.578,225.817,20.083,225.701,19.606z
		 M225.322,21.098c0.019,0.904-0.164,1.766-0.495,2.548c-0.22-0.886-0.605-1.693-1.075-2.444l1.442-1.18
		C225.262,20.376,225.316,20.731,225.322,21.098z M224.913,19.069l-1.656,1.351l-1.772-2.689l0.238-0.031l-0.324-2.304
		C223.031,16.062,224.302,17.4,224.913,19.069z M221.368,25.045l1.913-3.184c0.495,0.868,0.825,1.827,0.966,2.866
		c-0.703,1.045-1.718,1.858-2.915,2.328l-0.073-2.011H221.368z M218.905,14.931c0.532-0.012,1.039,0.067,1.528,0.177l0.317,2.218
		l-2.286,0.049c-0.445-0.11-0.897-0.184-1.362-0.22l-0.532-1.711C217.292,15.133,218.074,14.95,218.905,14.931z M216.62,31.726
		l2.285-1.564l4.528-0.709c-1.283,2.451-3.776,4.192-6.734,4.309c-2.292,0.085-4.382-0.825-5.897-2.323l4.181-0.66L216.62,31.726z
		 M216.356,17.84l0.024,0.092l-1.809,3.013l-1.735,1.191c-0.037-0.263-0.092-0.52-0.098-0.788c-0.019-1.051,0.251-2.042,0.69-2.921
		c0.831-0.336,1.711-0.563,2.652-0.599C216.174,17.822,216.266,17.84,216.356,17.84z M215.758,17.131
		c-0.586,0.043-1.155,0.141-1.705,0.293c0.288-0.373,0.618-0.715,0.979-1.021L215.758,17.131z M173.62,16.215
		c-0.406,1.351-0.514,2.72-0.394,4.046L150.772,6.809l48.442-6.279l15.406,15.465c-0.592,0.501-1.106,1.088-1.497,1.76
		c-3.3,1.345-5.58,4.608-5.439,8.379c0.013,0.287,0.08,0.55,0.116,0.831l-13.408-4.834c1.521-5.635-1.687-11.49-7.315-13.176
		C181.357,7.243,175.331,10.488,173.62,16.215z M181.137,28.786c-2.799-0.837-4.919-2.83-6.077-5.287l9.436,5.653
		C183.39,29.208,182.258,29.122,181.137,28.786z M180.482,24.606l4.704,1.412l0.015,1.418L180.482,24.606z M175.68,36.969
		l9.613-1.516l0.073,6.472L175.68,36.969z M182.316,12.475l-5.402,4.718l1.754,6.325l-4.422-2.646
		c-0.232-1.43-0.188-2.921,0.254-4.4c1.564-5.226,7.09-8.205,12.32-6.637c5.109,1.528,8.049,6.851,6.704,11.984l-2.634-0.953
		l-1.766-6.356L182.316,12.475z M184.229,103.357c0.645,0.024,1.25,0.165,1.833,0.36l0.024,2.304l-3.837-0.146l0.104-0.171
		l-2.045-1.24C181.437,103.724,182.784,103.303,184.229,103.357z M179.529,105.063l1.935,1.174l-1.971,2.89
		c-0.317-0.104-0.636-0.195-0.956-0.287l-0.683-1.491C178.246,106.468,178.82,105.691,179.529,105.063z M181.14,113.63l-0.214,0.422
		l-1.405-3.067c0.043,0.018,0.086,0.036,0.125,0.055L181.14,113.63z M175.762,102.776l3.199,1.943
		c-0.58,0.544-1.054,1.198-1.433,1.907L175.762,102.776z M177.345,110.979l0.996-0.373l2.054,4.485l-0.238,0.478
		C178.646,114.517,177.602,112.867,177.345,110.979z M188.446,138.773l-6.279-3.575l3.914-5.177l-4.81-12.688l-0.947-0.079
		l0.34-0.667c0.17,0.086,0.345,0.16,0.522,0.232l8.781,19.178C189.546,136.951,189.039,137.874,188.446,138.773z M192.223,140.918
		l-2.267-1.29c0.342-0.52,0.657-1.051,0.947-1.595L192.223,140.918z M190.447,134.843l-8.073-17.631
		c0.432,0.092,0.871,0.165,1.33,0.183c1.298,0.05,2.512-0.274,3.59-0.824C191.502,121.68,192.688,128.671,190.447,134.843z
		 M190.683,110.313c-0.069,1.937-0.969,3.636-2.325,4.81c-0.492-0.568-1.015-1.125-1.58-1.645l2.2-3.227l-1.708-2.951l2.338-0.868
		C190.331,107.55,190.738,108.889,190.683,110.313z M186.982,104.078c0.782,0.397,1.473,0.941,2.041,1.596l-2.014,0.745
		L186.982,104.078z M189.632,105.447c-0.715-0.874-1.61-1.595-2.655-2.065l-0.128-11.16l12.549,6.485l1.785,2.456L189.632,105.447z
		 M201.213,99.642l1.699,0.88l-0.837,0.312L201.213,99.642z M202.637,101.604l1.375-0.508l11.453,5.916
		c-0.953,1.84-1.564,3.887-1.662,6.093c-0.074,1.645,0.195,3.215,0.629,4.718L202.637,101.604z M215.049,113.154
		c0.086-2.018,0.648-3.888,1.521-5.568l3.826,1.975l-0.373,8.647l6.998,4.846l0.452,4.064
		C220.274,126.581,214.726,120.421,215.049,113.154z M220.312,125.902c2.108,1.424,4.589,2.334,7.309,2.493l0.99,8.917
		L220.312,125.902z M221.405,108.008l-3.888-2.004c2.555-3.612,6.814-5.904,11.551-5.696c3.814,0.165,7.175,1.925,9.51,4.596
		l-2.378,3.862l-7.278-5.029L221.405,108.008z M228.892,123.274l6.717-3.813v0.397l4.84-0.024
		c-2.121,4.137-6.301,6.967-11.129,7.267L228.892,123.274z M229.454,128.335c5.481-0.367,10.193-3.691,12.387-8.508l3.839-0.019
		l-6.503,28.033l-1.845,1.455l-6.546-8.99L229.454,128.335z M237.025,158.408l-1.9,0.838c-0.904-0.911-1.467-2.163-1.467-3.545
		c0-1.313,0.52-2.506,1.351-3.403l1.198-0.947c0.354-0.202,0.733-0.361,1.137-0.478l0.855,1.174l-0.061,0.244h0.006l-2.543,1.602
		v3.618L237.025,158.408z M238.034,150.269l-0.165-0.232l0.972-0.77l-0.214,0.94C238.425,150.207,238.229,150.244,238.034,150.269z
		 M238.511,150.684l-0.042,0.184l-0.116-0.165C238.407,150.696,238.456,150.69,238.511,150.684z M238.45,159.906l0.494,0.807
		c-0.085,0-0.164,0.024-0.256,0.024c-0.538,0-1.045-0.11-1.528-0.263L238.45,159.906z M229.1,161.886l-3.618-2.06l5.176-4.088
		l0.581,5.213L229.1,161.886z M231.208,163.084l0.256-0.116l0.031,0.281L231.208,163.084z M230.994,142.141l5.616,7.725
		l-4.376,3.459L230.994,142.141z M232.356,154.394l1.437-1.13c-0.373,0.738-0.599,1.558-0.599,2.438c0,1.448,0.574,2.757,1.484,3.74
		l-1.681,0.733L232.356,154.394z M245.361,171.133l-11.898-6.766l-0.238-2.17l3.294-1.441c0.666,0.287,1.399,0.446,2.17,0.446
		c0.183,0,0.354-0.037,0.525-0.05L245.361,171.133z M239.929,160.566l-0.636-1.033l3.967-1.742
		C242.63,159.154,241.408,160.188,239.929,160.566z M241.78,156.324v-2.432l-2.67-1.681l0.219-0.159l-0.14-0.195l0.256-1.112
		c2.348,0.354,4.156,2.315,4.267,4.729L241.78,156.324z"/>
	<path fill="#FFFFFF" d="M225.871,165.424c0-0.068,0-0.133,0-0.202c0-0.626-0.104-1.223-0.259-1.8
		c-0.262-0.971-0.713-1.868-1.276-2.687c-0.174-0.252-0.355-0.496-0.547-0.732c-0.042-0.052-0.084-0.104-0.127-0.154
		c-0.929-1.109-2.008-2.036-2.982-2.749c-1.467-1.072-2.676-1.668-2.676-1.668s-0.506-0.234-1.395-0.646
		c-1.889-0.875-5.543-2.567-9.998-4.628c-3.535-1.637-7.568-3.501-11.607-5.367c-0.427-0.196-0.853-0.394-1.279-0.59
		c-1.804-0.833-3.597-1.661-5.338-2.464c-0.549-0.253-1.094-0.504-1.63-0.751c-2.391-1.102-4.646-2.14-6.651-3.06
		c-2.411-1.107-4.46-2.044-5.929-2.71c-9.593-4.352-6.716-14.009-6.716-14.009c-1.022,0-2.041-0.327-2.94-0.751
		c-1.688-0.796-2.944-1.94-2.944-1.94l-0.083-1.663l-0.049-0.962l-0.107-2.152l-0.104-2.074l-0.298-5.942
		c2.039-2.873,3.505-6.155,4.549-9.177c0.104-0.3,0.203-0.597,0.299-0.891c1.187-3.656,1.749-6.809,1.96-8.189
		c0.072-0.479,0.104-0.745,0.104-0.745c0.257,0.256,0.513,0.395,0.769,0.451c0.996,0.217,1.976-0.992,2.854-2.901
		c0.241-0.524,0.476-1.096,0.7-1.71c0.332-0.91,0.644-1.902,0.929-2.925c0.083-0.299,0.165-0.601,0.243-0.905
		c0.944-3.642,1.542-7.495,1.542-9.409c0-4.671-2.242-4.352-2.242-4.352c0.151-0.85,0.284-1.665,0.415-2.473
		c0.069-0.434,0.136-0.86,0.199-1.282c1.839-12.133,1.272-19.448-0.063-23.853c-0.233-0.769-0.487-1.455-0.758-2.057
		c-2.02-4.489-4.845-4.626-4.845-4.626c0-6.483-10.714-12.003-21.343-12.917c-0.262-0.022-0.523-0.044-0.784-0.061
		c-0.753-0.049-1.505-0.075-2.25-0.075c-0.357,0-0.681-0.01-1.021-0.016c-3.598-0.056-6.285-0.389-8.251-0.813
		c-1.254-0.271-2.23-0.574-2.962-0.863c-0.259-0.102-0.482-0.201-0.686-0.296c-0.981-0.463-1.346-0.826-1.346-0.826
		c0,0.68,0.38,1.308,0.86,1.831c0.184,0.201,0.381,0.386,0.579,0.552c0.693,0.584,1.376,0.943,1.376,0.943
		c-0.582,0-1.129-0.038-1.644-0.098c-0.255-0.029-0.502-0.063-0.739-0.102c-2.232-0.374-3.629-1.144-3.629-1.144
		c0.574,0.77,2.367,2.113,2.367,2.113s-6.207-1.535-10.811,3.006c-1.643,1.62-2.566,3.171-3.132,4.558
		c-0.262,0.643-0.449,1.249-0.589,1.81c-0.405,1.62-0.446,2.857-0.951,3.454c-1.055,1.246-3.646,0.574-6.141,3.645
		c-0.375,0.461-0.666,1.018-0.903,1.619c-1.344,3.404-0.729,8.458-0.729,8.458l1.408,14.567l0.512,5.299
		c-0.778,0-1.642-0.083-2.122,1.104c-0.171,0.423-0.291,1.014-0.343,1.823c-0.018,0.279-0.03,0.574-0.03,0.909
		c0,1.427,0.304,3.495,0.756,5.685c0.111,0.539,0.229,1.082,0.356,1.628c0.378,1.622,0.817,3.239,1.261,4.663
		c0.445,1.432,0.892,2.652,1.285,3.479c0.061,0.128,0.123,0.264,0.181,0.372c1.438,2.681,2.846,2.566,2.846,2.566
		c0,1.916,1.124,5.254,2.472,8.572c0.188,0.461,0.379,0.921,0.572,1.377c1.902,4.483,3.993,8.559,3.993,8.559
		s-0.462,9.962-0.462,11.781c0,1.818-5.937,3.428-5.937,3.428c0,7.945-2.24,11.274-4.121,12.673
		c-0.395,0.294-0.773,0.504-1.112,0.651c-0.828,0.361-1.42,0.364-1.42,0.364s-8.154,3.919-17.518,8.364
		c-3.139,1.49-6.411,3.037-9.561,4.518c-6.362,2.991-12.216,5.703-15.401,7.08c-2.689,1.163-4.584,2.637-5.948,4.149
		c-0.247,0.273-0.478,0.547-0.69,0.821c-1,1.296-1.636,2.579-2.03,3.693c-0.405,1.148-0.569,2.105-0.63,2.701
		c-0.043,0.413-0.042,0.663-0.042,0.663v2.844v0.913v2.225V175h172.733c0,0,0-0.347,0-0.981
		C225.871,172.548,225.871,169.497,225.871,165.424z"/>
</g>
</svg>
