<?xml version="1.0" encoding="utf-8"?>
<!-- Generator: Adobe Illustrator 15.0.2, SVG Export Plug-In . SVG Version: 6.00 Build 0)  -->
<!DOCTYPE svg PUBLIC "-//W3C//DTD SVG 1.1//EN" "http://www.w3.org/Graphics/SVG/1.1/DTD/svg11.dtd">
<svg version="1.1" id="Calque_1" xmlns="http://www.w3.org/2000/svg" xmlns:xlink="http://www.w3.org/1999/xlink" x="0px" y="0px"
	 width="280px" height="365px" viewBox="0 0 280 365" enable-background="new 0 0 280 365" xml:space="preserve">
<g>
	<path fill="#E9EAEE" d="M235.524,167.607l-26.49-1.514c-0.594,2.135-1.245,4.203-1.938,6.102l28.647,14.814L235.524,167.607z"/>
	<path fill="#E9EAEE" d="M70.461,169.224c-0.925-2.969-1.84-6.342-2.63-9.726l-10.573-1.373L70.461,169.224z"/>
	<path fill="#E9EAEE" d="M197.864,182.427c-0.439,2.879-1.613,9.455-4.088,17.081l16.492,9.998L197.864,182.427z"/>
	<path fill="#E9EAEE" d="M222.881,217.154c2.658-1.886,5.896-3.009,9.405-2.867c1.313,0.038,2.565,0.306,3.769,0.662l-0.263-23.593
		l-30.155-15.595c-1.833,3.982-3.876,6.504-5.954,6.052l13.493,29.464L222.881,217.154z"/>
	<path fill="#E9EAEE" d="M216.825,226.142c0.109-0.474,0.289-0.906,0.435-1.354l-5.576-12.184l-18.53-11.239
		c-2.178,6.303-5.234,13.147-9.487,19.14l0.621,12.394C193.803,226.322,205.594,223.936,216.825,226.142z"/>
	<path fill="#E9EAEE" d="M208.946,130.348c-0.272,1.686-0.55,3.385-0.865,5.158c0,0,4.677-0.667,4.677,9.076
		c0,3.991-1.247,12.027-3.217,19.624l25.073,1.426L208.946,130.348z"/>
	<path fill="#E9EAEE" d="M129.806,26.031c-3.767,1.378-6.737,3.986-8.622,7.203c1.527,0.603,3.563,1.236,6.179,1.8l3.896-5.026
		l11.777,2.523l1.537,4.199c0.711,0.011,1.386,0.032,2.132,0.032c1.553,0,3.121,0.054,4.692,0.156
		c-0.096-0.329-0.161-0.658-0.279-0.984C147.971,27.331,138.421,22.896,129.806,26.031z"/>
	<path fill="#E9EAEE" d="M222.051,244.382l1.117-2.192c-3.442-2.335-5.883-6.005-6.546-10.249l-31.794,11.78l0.173,3.469
		c0,0,2.62,2.387,6.142,4.047l6.757-8.933L222.051,244.382z"/>
	<path fill="#E9EAEE" d="M122.818,37.83c0,0-1.426-0.748-2.871-1.967c-0.216,0.578-0.407,1.165-0.558,1.763
		C120.463,37.751,121.605,37.83,122.818,37.83z"/>
	<path fill="#E9EAEE" d="M234.647,89.612L211.2,77.617l-1.969,0.309c2.784,9.187,3.966,24.444,0.13,49.75l26.119,35.905
		L234.647,89.612z"/>
	<path fill="#E9EAEE" d="M244.724,221.513c1.548,2.5,2.401,5.469,2.288,8.618c-0.153,4.435-2.227,8.323-5.341,10.999
		c10.157,12.543,12.388,29.878,5.606,44.589l4.487,9.815L280,311.588v-83.562l-11.218-15.422L244.724,221.513z"/>
	<path fill="#E9EAEE" d="M216.483,229.761c-11.119-2.29-22.884,0.353-31.981,7.465l0.225,4.489l31.77-11.774
		C216.489,229.89,216.483,229.823,216.483,229.761z"/>
	<path fill="#E9EAEE" d="M254.722,301.99c8.425,3.894,16.837,7.781,24.211,11.195l-25.805-14.67L254.722,301.99z"/>
	<path fill="#E9EAEE" d="M239.968,291.02l-13.187-7.493l-3.133,4.147c4.184,1.919,8.888,4.084,13.872,6.381
		c0.753-0.833,1.474-1.702,2.162-2.612C239.782,291.313,239.866,291.161,239.968,291.02z"/>
	<path fill="#E9EAEE" d="M243.117,292.818c-0.192,0.268-0.356,0.549-0.555,0.814c-0.523,0.693-1.085,1.339-1.642,1.989
		c3.632,1.674,7.371,3.401,11.133,5.139l-1.767-3.862L243.117,292.818z"/>
	<polygon fill="#E9EAEE" points="280,14.956 280,0 272.01,0 265.889,0.793 	"/>
	<path fill="#E9EAEE" d="M46.365,128.324c-8.368-10.504-12.026-24.576-8.667-38.661c5.32-22.266,26.273-36.696,48.436-34.453
		c1.18-2.892,3.106-6.127,6.532-9.505c9.603-9.471,22.549-6.27,22.549-6.27s-3.739-2.803-4.936-4.408c0,0,2.913,1.606,7.569,2.386
		c0.222-0.926,0.53-1.825,0.893-2.702c-1.001-1.092-1.794-2.4-1.794-3.819c0,0,0.76,0.756,2.807,1.724
		c2.053-3.589,5.33-6.502,9.516-8.025c9.42-3.442,19.859,1.402,23.302,10.821c0.197,0.54,0.318,1.088,0.461,1.633
		c22.168,1.906,44.515,13.419,44.515,26.94c0,0,5.893,0.287,10.104,9.649l0.98,0.502l25.793-4.053l-0.084-7.418
		c-2.964,0.344-6.047,0.127-9.088-0.79c-7.323-2.193-12.67-7.789-14.907-14.532l-54.007-32.35L0,35.261v25.124
		c8.204,10.469,9.435,25.359,1.995,37.308C1.383,98.674,0.706,99.582,0,100.458v9.52l29.05,24.425L46.365,128.324z"/>
	<path fill="#E9EAEE" d="M0.331,144.486l24.519-8.604L0,114.988v22.924C0.39,140.058,0.518,142.265,0.331,144.486z"/>
	<polygon fill="#E9EAEE" points="131.307,0 0,0 0,33.328 153.685,13.406 	"/>
	<polygon fill="#E9EAEE" points="257.09,0 138.769,0 159.818,12.609 	"/>
	<path fill="#E9EAEE" d="M233.816,238.251l-6.392-0.229l-0.197,0.394l-0.854,1.67l1.294,2.817c1.128,0.358,2.302,0.613,3.535,0.649
		c2.379,0.09,4.603-0.473,6.603-1.451C236.597,240.735,235.246,239.46,233.816,238.251z"/>
	<polygon fill="#E9EAEE" points="262.625,200.902 276.084,207.861 280,206.41 280,170.135 238.528,167.774 	"/>
	<polygon fill="#E9EAEE" points="280,209.885 280,208.447 278.38,209.048 	"/>
	<path fill="#E9EAEE" d="M236.151,53.691l0.056,4.678l2.25,1.352c5.684-1.976,10.389-6.4,12.581-12.404l-5.374-1.937L236.151,53.691
		z"/>
	<polygon fill="#E9EAEE" points="236.373,73.653 236.546,88.426 280,110.669 280,89.077 250.528,71.421 	"/>
	<polygon fill="#E9EAEE" points="236.336,69.778 245.41,68.35 236.253,62.869 	"/>
	<polygon fill="#E9EAEE" points="237.418,165.798 280,168.223 280,112.817 236.563,90.593 	"/>
	<polygon fill="#E9EAEE" points="280,84.607 280,66.786 256.429,70.491 	"/>
	<polygon fill="#E9EAEE" points="270.643,211.916 280,224.783 280,214.209 273.511,210.856 	"/>
	<polygon fill="#E9EAEE" points="271.217,209.658 267.672,207.824 269.471,210.31 	"/>
	<path fill="#E9EAEE" d="M237.979,215.625c2.179,0.981,4.048,2.485,5.539,4.309l24.092-8.936l-3.724-5.123l-26.174-13.527
		L237.979,215.625z"/>
	<polygon fill="#E9EAEE" points="214.418,77.107 234.621,87.445 234.468,73.946 	"/>
	<path fill="#E9EAEE" d="M228.121,220.825l8.003,0.306l-0.051-4.806c-1.216-0.407-2.479-0.7-3.822-0.751
		c-3.015-0.114-5.826,0.764-8.179,2.308l4.265,2.587L228.121,220.825z"/>
	<polygon fill="#E9EAEE" points="224.435,51.321 234.277,57.223 234.247,54.265 	"/>
	<path fill="#E9EAEE" d="M220.377,227.007c0.669,0.191,1.333,0.383,1.995,0.599l4.109-6.026l-4.034-2.449
		c-1.479,1.313-2.678,2.932-3.493,4.767L220.377,227.007z"/>
	<path fill="#E9EAEE" d="M225.799,60.04c2.339,0.701,4.7,0.879,7.006,0.764l-19.68-11.79
		C215.54,54.138,219.962,58.293,225.799,60.04z"/>
	<path fill="#E9EAEE" d="M162.469,14.202l46.832,28.056c-0.25-2.766-0.025-5.622,0.821-8.438
		c3.568-11.944,16.138-18.713,28.067-15.144c11.741,3.518,18.432,15.729,15.258,27.482L280,55.731V17.662L263.506,1.105
		L162.469,14.202z"/>
	<path fill="#E9EAEE" d="M220.65,49.051l-3.658-13.192l11.268-9.84l14.2,4.245l3.683,13.256l5.493,1.988
		c2.806-10.707-3.325-21.809-13.982-24.996c-10.908-3.271-22.434,2.944-25.696,13.843c-0.923,3.085-1.015,6.194-0.529,9.177
		L220.65,49.051z"/>
	<path fill="#E9EAEE" d="M225.359,237.879l0.446-0.88l-3.117-5.403c-0.081-0.039-0.17-0.077-0.261-0.113L225.359,237.879z"/>
	<path fill="#E9EAEE" d="M238.59,223.797l3.563,6.155l-4.589,6.73c1.179,1.083,2.269,2.244,3.296,3.429
		c2.828-2.447,4.705-5.991,4.849-10.031c0.117-2.97-0.733-5.762-2.242-8.094L238.59,223.797z"/>
	<path fill="#E9EAEE" d="M231.154,244.852c-0.957-0.037-1.874-0.19-2.773-0.381l16.838,36.772c4.672-12.873,2.2-27.454-6.577-38.11
		C236.393,244.279,233.861,244.956,231.154,244.852z"/>
	<path fill="#E9EAEE" d="M237.992,217.078l0.057,4.882l4.2-1.555C241.063,219.041,239.624,217.906,237.992,217.078z"/>
	<path fill="#E9EAEE" d="M244.194,291.224l4.728,2.691l-2.752-6.017C245.565,289.032,244.907,290.141,244.194,291.224z"/>
	<path fill="#E9EAEE" d="M221.262,218.416l-6.673-4.054l3.684,8.031C219.063,220.915,220.051,219.55,221.262,218.416z"/>
	<path fill="#E9EAEE" d="M225.903,243.653c-0.37-0.15-0.735-0.306-1.09-0.483l-0.709,1.39l1.976,0.166l10.031,26.462l-8.163,10.798
		l13.097,7.456c1.237-1.875,2.294-3.8,3.173-5.789L225.903,243.653z"/>
	<path fill="#E9EAEE" d="M219.969,230.691l-2.078,0.777c0.535,3.94,2.715,7.38,5.864,9.573l0.496-0.995L219.969,230.691z"/>
	<path fill="#E9EAEE" d="M0,65.309V95.65C5.704,86.018,5.356,74.391,0,65.309z"/>
	<path fill="#E9EAEE" d="M13.562,265.503l-7.393-1.99l-4.327,7.305L0,270.658v6.442c1.439-0.375,2.861-0.897,4.238-1.605
		C8.585,273.265,11.713,269.658,13.562,265.503z"/>
	<polygon fill="#E9EAEE" points="0,150.687 0,152.284 21.873,153.523 	"/>
	<path fill="#E9EAEE" d="M26.545,137.31l-26.367,9.254c-0.042,0.24-0.113,0.475-0.178,0.711v1.483l47.506,6.167L26.545,137.31z"/>
	<path fill="#E9EAEE" d="M9.465,257.944l-2.283,3.862l7.139,1.925c1.727-5.102,1.492-10.861-1.161-16.024
		c-2.791-5.43-7.674-9.048-13.16-10.451v7.274l2.683,0.233L9.465,257.944z"/>
	<path fill="#E9EAEE" d="M240.491,60.944l10.828,6.477L280,62.905v-5.141l-27.163-9.797
		C250.618,54.023,246.065,58.573,240.491,60.944z"/>
	<path fill="#E9EAEE" d="M48.156,156.939l-44.593-2.536l81.047,46.086c-2.812-6.922-5.155-13.883-5.155-17.879
		c0,0-2.938,0.238-5.936-5.354c-0.122-0.226-0.25-0.508-0.378-0.776l-22.926-19.274L48.156,156.939z"/>
	<path fill="#E9EAEE" d="M51.593,128.514c4.028,4.286,9,7.751,14.694,10.033c1-2.475,2.803-2.303,4.425-2.303l-1.068-11.052
		l-2.202-2.248L51.593,128.514z"/>
	<path fill="#E9EAEE" d="M47.672,129.891l-16.927,5.939l23.225,19.528l13.119,0.745c-0.943-4.569-1.578-8.88-1.578-11.857
		c0-0.698,0.025-1.314,0.063-1.895C58.504,139.655,52.421,135.326,47.672,129.891z"/>
	<polygon fill="#E9EAEE" points="258.852,198.951 237.456,169.546 237.669,188.002 	"/>
	<path fill="#E9EAEE" d="M66.912,281.483c0,0,1.234-0.006,2.961-0.76l-54.444-14.711c-1.995,4.651-5.462,8.692-10.312,11.192
		c-1.661,0.853-3.378,1.474-5.117,1.886v31.097l30.375-11.259C49.905,289.657,66.912,281.483,66.912,281.483z"/>
	<polygon fill="#E9EAEE" points="237.598,222.073 237.623,222.112 237.725,222.073 	"/>
	<path fill="#E9EAEE" d="M14.855,246.841c2.88,5.61,3.174,11.854,1.339,17.399l55.998,15.125c3.923-2.916,8.596-9.859,8.596-26.432
		c0,0,12.382-3.357,12.382-7.149c0-3.795,0.963-24.571,0.963-24.571s-4.36-8.5-8.329-17.852L0,154.574v80.694
		C6.189,236.713,11.723,240.738,14.855,246.841z"/>
	<path fill="#E9EAEE" d="M0,312.219v1.019c3.343-1.559,6.847-3.199,10.434-4.886L0,312.219z"/>
	<path fill="#E9EAEE" d="M41.42,90.554c-3.181,13.333,0.547,26.692,8.813,36.405l15.736-5.52l-12.466-12.734l6.896-28.884
		l7.83-2.653c0.495-1.254,1.103-2.415,1.884-3.377c5.203-6.404,10.608-5.003,12.809-7.603c1.053-1.244,1.14-3.825,1.984-7.204
		C64.967,57.401,46.216,70.495,41.42,90.554z"/>
	<path fill="#FFFFFF" d="M129.27,24.591c-4.186,1.523-7.462,4.436-9.516,8.025c0.424,0.199,0.889,0.405,1.43,0.618
		c1.885-3.217,4.855-5.825,8.622-7.203c8.616-3.135,18.165,1.3,21.312,9.904c0.118,0.326,0.184,0.656,0.279,0.984
		c0.543,0.034,1.089,0.079,1.636,0.126c-0.143-0.545-0.264-1.093-0.461-1.633C149.129,25.993,138.689,21.148,129.27,24.591z"/>
	<path fill="#FFFFFF" d="M119.389,37.626c0.151-0.599,0.342-1.186,0.558-1.763c-0.412-0.347-0.824-0.733-1.207-1.152
		c-0.363,0.877-0.67,1.776-0.893,2.702C118.341,37.496,118.858,37.565,119.389,37.626z"/>
	<path fill="#FFFFFF" d="M131.258,30.008l-3.896,5.026c4.102,0.886,9.706,1.58,17.209,1.697l-1.537-4.199L131.258,30.008z"/>
	<path fill="#FFFFFF" d="M84.61,200.489L3.563,154.403l44.593,2.536l2.059,0.268l22.926,19.274c-0.821-1.725-1.752-4.271-2.68-7.257
		l-13.203-11.098l10.573,1.373c-0.266-1.138-0.512-2.272-0.743-3.396l-13.119-0.745L30.745,135.83l16.927-5.939
		c4.75,5.435,10.833,9.765,17.9,12.459c0.107-1.688,0.358-2.92,0.715-3.803c-5.695-2.282-10.666-5.748-14.694-10.033l15.849-5.569
		l2.202,2.248l-2.936-30.384c0,0-1.281-10.54,1.521-17.64l-7.83,2.653l-6.896,28.884l12.466,12.734l-15.736,5.52
		c-8.267-9.713-11.994-23.072-8.813-36.405c4.795-20.06,23.546-33.153,43.485-31.569c0.292-1.169,0.682-2.434,1.229-3.775
		c-22.163-2.244-43.116,12.187-48.436,34.453c-3.359,14.085,0.299,28.157,8.667,38.661l-17.315,6.08L0,109.978v5.01l24.849,20.894
		l-24.519,8.604c0.188-2.221,0.059-4.428-0.331-6.574v9.363c0.065-0.236,0.136-0.471,0.178-0.711l26.367-9.254l20.961,17.616
		L0,148.758v1.929l21.873,2.836L0,152.284v2.29l85.804,48.788C85.401,202.41,85.002,201.45,84.61,200.489z"/>
	<path fill="#FFFFFF" d="M30.375,298.929L0,310.188v2.031l10.434-3.867C17.004,305.264,23.828,302.038,30.375,298.929z"/>
	<path fill="#FFFFFF" d="M210.345,47.343c2.237,6.743,7.584,12.339,14.907,14.532c3.041,0.917,6.124,1.134,9.088,0.79l0.084,7.418
		l-25.793,4.053l-0.98-0.502c0.565,1.256,1.095,2.687,1.581,4.291l1.969-0.309l23.447,11.995l0.833,73.968l-26.119-35.905
		c-0.132,0.88-0.27,1.769-0.415,2.673l25.668,35.284l-25.073-1.426c-0.163,0.633-0.333,1.263-0.507,1.887l26.49,1.514l0.22,19.401
		l-28.647-14.814c-0.468,1.281-0.957,2.474-1.46,3.567l30.155,15.595l0.263,23.593c-1.203-0.356-2.455-0.624-3.769-0.662
		c-3.509-0.142-6.747,0.981-9.405,2.867l-9.705-5.876l-13.493-29.464c-0.533-0.117-1.066-0.406-1.603-0.94
		c0,0-0.064,0.556-0.216,1.554l12.404,27.079l-16.492-9.998c-0.2,0.613-0.407,1.232-0.623,1.857l18.53,11.239l5.576,12.184
		c-0.146,0.447-0.325,0.88-0.435,1.354c-11.231-2.206-23.022,0.181-32.538,6.757l0.215,4.327c9.098-7.112,20.862-9.755,31.981-7.465
		c0,0.063,0.006,0.129,0.013,0.18l-31.77,11.774l0.102,2.006l31.794-11.78c0.663,4.244,3.104,7.914,6.546,10.249l-1.117,2.192
		l-24.151-2.078l-6.757,8.933c1.876,0.885,4.001,1.567,6.133,1.567c0,0-6.001,20.142,14.007,29.219
		c3.064,1.389,7.337,3.341,12.366,5.651l3.133-4.147l13.187,7.493c-0.102,0.142-0.186,0.294-0.285,0.423
		c-0.688,0.91-1.409,1.779-2.162,2.612c1.119,0.516,2.256,1.039,3.4,1.567c0.557-0.65,1.118-1.296,1.642-1.989
		c0.198-0.266,0.362-0.547,0.555-0.814l7.17,4.08l1.767,3.862c0.891,0.409,1.778,0.82,2.668,1.229l-1.594-3.475l25.805,14.67
		c0.36,0.166,0.713,0.33,1.067,0.494v-2.092l-28.235-16.054l-4.487-9.815c6.781-14.711,4.551-32.046-5.606-44.589
		c3.114-2.676,5.188-6.564,5.341-10.999c0.113-3.149-0.74-6.118-2.288-8.618l24.059-8.908L280,228.026v-3.243l-9.357-12.867
		l2.868-1.06l6.489,3.353v-4.324l-1.62-0.837l1.62-0.601v-2.037l-3.916,1.451l-13.459-6.959l-24.097-33.128L280,170.135v-1.912
		l-42.582-2.425l-0.854-75.205L280,112.817v-2.148l-43.454-22.243l-0.173-14.773l14.155-2.231L280,89.077v-4.47l-23.571-14.116
		L280,66.786v-3.881l-28.681,4.515l-10.828-6.477c5.574-2.371,10.127-6.921,12.346-12.977L280,57.765v-2.033l-26.553-9.573
		c3.174-11.753-3.517-23.964-15.258-27.482c-11.93-3.569-24.499,3.199-28.067,15.144c-0.847,2.816-1.071,5.672-0.821,8.438
		l-46.832-28.056L263.506,1.105L280,17.662v-2.707L265.889,0.793L272.01,0h-14.92l-97.271,12.609L138.769,0h-7.462l22.378,13.406
		L0,33.328v1.933l156.338-20.268L210.345,47.343z M225.799,60.04c-5.837-1.747-10.259-5.902-12.674-11.026l19.68,11.79
		C230.499,60.918,228.138,60.74,225.799,60.04z M224.435,51.321l9.813,2.944l0.03,2.958L224.435,51.321z M214.418,77.107
		l20.05-3.162l0.153,13.499L214.418,77.107z M232.251,215.574c1.344,0.051,2.606,0.344,3.822,0.751l0.051,4.806l-8.003-0.306
		l0.216-0.356l-4.265-2.587C226.425,216.338,229.236,215.46,232.251,215.574z M222.447,219.13l4.034,2.449l-4.109,6.026
		c-0.662-0.216-1.326-0.407-1.995-0.599l-1.423-3.11C219.77,222.062,220.968,220.442,222.447,219.13z M225.806,236.999l-0.446,0.88
		l-2.932-6.396c0.091,0.036,0.18,0.074,0.261,0.113L225.806,236.999z M214.589,214.362l6.673,4.054
		c-1.211,1.134-2.198,2.499-2.989,3.978L214.589,214.362z M217.891,231.469l2.078-0.777l4.282,9.355l-0.496,0.995
		C220.605,238.849,218.426,235.409,217.891,231.469z M241.045,289.441l-13.097-7.456l8.163-10.798l-10.031-26.462l-1.976-0.166
		l0.709-1.39c0.354,0.178,0.72,0.333,1.09,0.483l18.314,39.999C243.339,285.642,242.282,287.566,241.045,289.441z M248.922,293.915
		l-4.728-2.691c0.713-1.083,1.371-2.191,1.976-3.325L248.922,293.915z M245.219,281.243l-16.838-36.772
		c0.899,0.19,1.816,0.344,2.773,0.381c2.707,0.104,5.238-0.572,7.487-1.719C247.419,253.789,249.891,268.37,245.219,281.243z
		 M245.709,230.08c-0.144,4.04-2.021,7.584-4.849,10.031c-1.027-1.185-2.117-2.346-3.296-3.429l4.589-6.73l-3.563-6.155l4.877-1.811
		C244.976,224.318,245.826,227.11,245.709,230.08z M237.598,222.073h0.127l-0.102,0.039L237.598,222.073z M237.992,217.078
		c1.632,0.828,3.071,1.963,4.257,3.327l-4.2,1.555L237.992,217.078z M271.217,209.658l-1.746,0.651l-1.799-2.485L271.217,209.658z
		 M263.887,205.875l3.724,5.123l-24.092,8.936c-1.491-1.823-3.36-3.327-5.539-4.309l-0.267-23.277L263.887,205.875z
		 M258.852,198.951l-21.183-10.949l-0.213-18.456L258.852,198.951z M237.806,242.101c-2,0.979-4.224,1.541-6.603,1.451
		c-1.233-0.036-2.407-0.291-3.535-0.649l-1.294-2.817l0.854-1.67l0.197-0.394l6.392,0.229
		C235.246,239.46,236.597,240.735,237.806,242.101z M245.41,68.35l-9.074,1.428l-0.083-6.909L245.41,68.35z M238.457,59.721
		l-2.25-1.352l-0.056-4.678l9.513-8.311l5.374,1.937C248.846,53.321,244.141,57.746,238.457,59.721z M211.957,34.355
		c3.263-10.899,14.788-17.113,25.696-13.843c10.657,3.187,16.788,14.289,13.982,24.996l-5.493-1.988l-3.683-13.256l-14.2-4.245
		l-11.268,9.84l3.658,13.192l-9.223-5.519C210.942,40.549,211.034,37.44,211.957,34.355z"/>
	<path fill="#FFFFFF" d="M15.429,266.013l54.444,14.711c0.707-0.307,1.495-0.745,2.319-1.358L16.194,264.24
		c1.835-5.545,1.542-11.789-1.339-17.399C11.723,240.738,6.189,236.713,0,235.268v1.988c5.486,1.403,10.37,5.021,13.16,10.451
		c2.652,5.163,2.887,10.923,1.161,16.024l-7.139-1.925l2.283-3.862l-6.782-13.181L0,244.53v26.128l1.842,0.159l4.327-7.305
		l7.393,1.99c-1.849,4.155-4.977,7.762-9.324,9.992c-1.377,0.708-2.799,1.23-4.238,1.605v1.99c1.739-0.412,3.457-1.033,5.117-1.886
		C9.967,274.705,13.435,270.664,15.429,266.013z"/>
	<path fill="#FFFFFF" d="M0,60.385v4.924c5.356,9.082,5.704,20.709,0,30.342v4.808c0.706-0.876,1.383-1.784,1.995-2.765
		C9.435,85.744,8.204,70.854,0,60.385z"/>
	<path fill="#FFFFFF" d="M278.933,313.186c-7.374-3.414-15.786-7.302-24.211-11.195c-0.89-0.409-1.777-0.82-2.668-1.229
		c-3.762-1.737-7.501-3.465-11.133-5.139c-1.145-0.528-2.281-1.052-3.4-1.567c-4.984-2.297-9.688-4.462-13.872-6.381
		c-5.029-2.311-9.302-4.263-12.366-5.651c-20.008-9.077-14.007-29.219-14.007-29.219c-2.132,0-4.257-0.683-6.133-1.567
		c-3.521-1.66-6.142-4.047-6.142-4.047l-0.173-3.469l-0.102-2.006l-0.225-4.489l-0.215-4.327l-0.621-12.394
		c4.253-5.992,7.31-12.837,9.487-19.14c0.216-0.625,0.423-1.244,0.623-1.857c2.475-7.626,3.648-14.201,4.088-17.081
		c0.151-0.998,0.216-1.554,0.216-1.554c0.536,0.535,1.069,0.824,1.603,0.94c2.078,0.452,4.121-2.07,5.954-6.052
		c0.503-1.093,0.992-2.286,1.46-3.567c0.692-1.898,1.344-3.967,1.938-6.102c0.174-0.625,0.344-1.254,0.507-1.887
		c1.97-7.596,3.217-15.633,3.217-19.624c0-9.743-4.677-9.076-4.677-9.076c0.315-1.773,0.593-3.472,0.865-5.158
		c0.146-0.904,0.283-1.793,0.415-2.673c3.836-25.306,2.654-40.563-0.13-49.75c-0.486-1.604-1.016-3.035-1.581-4.291
		c-4.211-9.363-10.104-9.649-10.104-9.649c0-13.521-22.347-25.035-44.515-26.94c-0.547-0.047-1.093-0.092-1.636-0.126
		c-1.571-0.102-3.14-0.156-4.692-0.156c-0.746,0-1.421-0.021-2.132-0.032c-7.504-0.117-13.108-0.811-17.209-1.697
		c-2.617-0.564-4.652-1.197-6.179-1.8c-0.541-0.213-1.006-0.418-1.43-0.618c-2.047-0.967-2.807-1.724-2.807-1.724
		c0,1.418,0.792,2.727,1.794,3.819c0.383,0.419,0.794,0.805,1.207,1.152c1.445,1.219,2.871,1.967,2.871,1.967
		c-1.212,0-2.354-0.079-3.429-0.204c-0.531-0.061-1.048-0.13-1.541-0.213c-4.656-0.78-7.569-2.386-7.569-2.386
		c1.197,1.605,4.936,4.408,4.936,4.408s-12.946-3.202-22.549,6.27c-3.426,3.378-5.352,6.613-6.532,9.505
		c-0.547,1.341-0.937,2.605-1.229,3.775c-0.844,3.379-0.931,5.959-1.984,7.204c-2.2,2.599-7.605,1.198-12.809,7.603
		c-0.781,0.962-1.389,2.123-1.884,3.377c-2.802,7.1-1.521,17.64-1.521,17.64l2.936,30.384l1.068,11.052
		c-1.622,0-3.425-0.172-4.425,2.303c-0.356,0.883-0.607,2.115-0.715,3.803c-0.037,0.581-0.063,1.197-0.063,1.895
		c0,2.977,0.635,7.289,1.578,11.857c0.231,1.124,0.478,2.257,0.743,3.396c0.79,3.383,1.705,6.756,2.63,9.726
		c0.928,2.986,1.859,5.533,2.68,7.257c0.127,0.268,0.256,0.55,0.378,0.776c2.998,5.591,5.936,5.354,5.936,5.354
		c0,3.996,2.344,10.957,5.155,17.879c0.392,0.961,0.791,1.921,1.193,2.872c3.968,9.352,8.329,17.852,8.329,17.852
		s-0.963,20.776-0.963,24.571c0,3.792-12.382,7.149-12.382,7.149c0,16.572-4.673,23.516-8.596,26.432
		c-0.824,0.613-1.612,1.052-2.319,1.358c-1.728,0.754-2.961,0.76-2.961,0.76s-17.007,8.174-36.537,17.445
		c-6.547,3.109-13.371,6.335-19.94,9.423c-3.587,1.687-7.091,3.327-10.434,4.886V365h280v-51.32
		C279.646,313.516,279.293,313.352,278.933,313.186z"/>
</g>
</svg>
