<?xml version="1.0" encoding="utf-8"?>
<!-- Generator: Adobe Illustrator 15.0.2, SVG Export Plug-In . SVG Version: 6.00 Build 0)  -->
<!DOCTYPE svg PUBLIC "-//W3C//DTD SVG 1.1//EN" "http://www.w3.org/Graphics/SVG/1.1/DTD/svg11.dtd">
<svg version="1.1" id="Calque_1" xmlns="http://www.w3.org/2000/svg" xmlns:xlink="http://www.w3.org/1999/xlink" x="0px" y="0px"
	 width="369px" height="384px" viewBox="0 0 369 384" enable-background="new 0 0 369 384" xml:space="preserve">
<path fill="#FFFFFF" enable-background="new    " d="M184.5,19.5C89.235,19.5,12,96.735,12,192c0,95.266,77.234,172.5,172.5,172.5
	S357,287.266,357,192C357,96.735,279.765,19.5,184.5,19.5z M301.698,222.948c0,4.108-3.354,7.458-7.46,7.458h-8.467l-23.214,31.303
	v-31.303h-70.059v22.742c0,4.098-3.351,7.447-7.443,7.447h-11.561v31.301l-23.224-31.313H74.75c-4.093,0-7.447-3.352-7.447-7.438
	V158.49c0-4.103,3.354-7.463,7.447-7.463h101.741v-22.729c-0.006-4.098,3.342-7.452,7.442-7.452h110.304
	c4.104,0,7.461,3.354,7.461,7.452V222.948L301.698,222.948z"/>
<path opacity="0.5" fill="#542954" enable-background="new    " d="M184.5,19.5C89.235,19.5,12,96.735,12,192
	c0,95.266,77.234,172.5,172.5,172.5S357,287.266,357,192C357,96.735,279.765,19.5,184.5,19.5z M301.698,222.948
	c0,4.108-3.354,7.458-7.46,7.458h-8.467l-23.214,31.303v-31.303h-70.059v22.742c0,4.098-3.351,7.447-7.443,7.447h-11.561v31.301
	l-23.224-31.313H74.75c-4.093,0-7.447-3.352-7.447-7.438V158.49c0-4.103,3.354-7.463,7.447-7.463h101.741v-22.729
	c-0.006-4.098,3.342-7.452,7.442-7.452h110.304c4.104,0,7.461,3.354,7.461,7.452V222.948L301.698,222.948z"/>
</svg>
