<?xml version="1.0" encoding="utf-8"?>
<!-- Generator: Adobe Illustrator 15.0.2, SVG Export Plug-In . SVG Version: 6.00 Build 0)  -->
<!DOCTYPE svg PUBLIC "-//W3C//DTD SVG 1.1//EN" "http://www.w3.org/Graphics/SVG/1.1/DTD/svg11.dtd">
<svg version="1.1" id="Calque_1" xmlns="http://www.w3.org/2000/svg" xmlns:xlink="http://www.w3.org/1999/xlink" x="0px" y="0px"
	 width="339.957px" height="219.973px" viewBox="0 0 339.957 219.973" enable-background="new 0 0 339.957 219.973"
	 xml:space="preserve">
<g>
	<path fill="#E9EAEE" d="M9.13,135.154c0.588-0.945,1.337-1.721,2.155-2.381l-11.281-9.485v36.773l11.204-12.224
		C7.497,144.757,6.514,139.364,9.13,135.154z"/>
	<path fill="#E9EAEE" d="M57.997,214.694l1.825,3.289c0.312-0.21,0.64-0.397,0.958-0.599v-2.797L57.997,214.694z"/>
	<path fill="#E9EAEE" d="M61.262,197.193l-4.686,1.737l5.048,6.705c0.495-1.4,1.295-3.014,2.552-4.643
		C63.43,199.556,62.44,198.273,61.262,197.193z"/>
	<path fill="#E9EAEE" d="M227.686,112.704l-0.131-11.694l-15.968-0.913c-0.358,1.287-0.75,2.534-1.167,3.678L227.686,112.704z"/>
	<path fill="#E9EAEE" d="M120.106,95.295l7.958,6.689c-0.558-1.79-1.109-3.823-1.585-5.862L120.106,95.295z"/>
	<polygon fill="#E9EAEE" points="18.964,197.37 13.314,191.699 0.005,183.727 0.005,215.774 20.896,214.972 	"/>
	<path fill="#E9EAEE" d="M212.332,126.264l-7.477-16.321c-0.265,1.735-0.972,5.698-2.464,10.294L212.332,126.264z"/>
	<polygon fill="#E9EAEE" points="22.176,216.071 22.606,219.987 41.5,219.987 37.027,215.5 	"/>
	<polygon fill="#E9EAEE" points="0.005,178.345 0.005,182.378 9.984,188.358 	"/>
	<polygon fill="#E9EAEE" points="0.005,216.92 0.005,219.987 21.445,219.987 21.02,216.115 	"/>
	<path fill="#E9EAEE" d="M58.862,218.636l-1.867-3.357l-8.513,0.723l-0.104,0.138l-0.885,3.848h9.44
		c0.148-0.059,0.299-0.111,0.445-0.174C57.863,219.405,58.351,219.004,58.862,218.636z"/>
	<path fill="#E9EAEE" d="M205.952,109.573l8.132,17.759l5.85,3.542c1.603-1.137,3.555-1.813,5.67-1.729
		c0.792,0.023,1.546,0.185,2.271,0.399l-0.159-14.221l-18.176-9.399C208.435,108.325,207.204,109.845,205.952,109.573z"/>
	<path fill="#E9EAEE" d="M196.672,140.365c5.735-3.965,12.843-5.403,19.612-4.073c0.066-0.285,0.174-0.547,0.262-0.815l-3.36-7.344
		l-11.17-6.774c-1.312,3.798-3.154,7.925-5.718,11.536L196.672,140.365z"/>
	<path fill="#E9EAEE" d="M213.832,87.132c0,2.406-0.751,7.25-1.938,11.828l15.113,0.859l-15.472-21.267
		c-0.164,1.017-0.331,2.041-0.521,3.109C211.013,81.661,213.832,81.26,213.832,87.132z"/>
	<path fill="#E9EAEE" d="M163.834,15.677c-2.271,0.831-4.061,2.402-5.197,4.341c0.92,0.364,2.147,0.745,3.724,1.085l2.348-3.029
		l7.098,1.521l0.927,2.531c0.429,0.007,0.835,0.02,1.284,0.02c0.937,0,1.882,0.033,2.829,0.094
		c-0.058-0.198-0.098-0.396-0.169-0.593C174.782,16.46,169.027,13.787,163.834,15.677z"/>
	<path fill="#E9EAEE" d="M200.804,151.417l4.072-5.385l14.558,1.252l0.673-1.32c-2.075-1.407-3.546-3.619-3.946-6.178l-19.163,7.101
		l0.104,2.091C197.102,148.978,198.681,150.416,200.804,151.417z"/>
	<path fill="#E9EAEE" d="M159.622,22.788c0,0-0.859-0.451-1.73-1.186c-0.13,0.348-0.246,0.702-0.336,1.063
		C158.203,22.74,158.891,22.788,159.622,22.788z"/>
	<path fill="#E9EAEE" d="M211.786,76.941l15.742,21.642l-0.502-44.584l-14.133-7.229l-1.187,0.186
		C213.385,52.492,214.097,61.688,211.786,76.941z"/>
	<path fill="#E9EAEE" d="M271.404,197.484l4.961,2.821l7.437-5.886l-2.173-19.507l-34.028-46.78l-14.501,5.369
		c0.933,1.507,1.447,3.297,1.379,5.194c-0.093,2.673-1.342,5.017-3.219,6.63c6.122,7.56,7.466,18.009,3.379,26.875l2.705,5.916
		l28.943,16.457c1.117,0.519,1.754,0.813,1.754,0.813S269.56,196.135,271.404,197.484z"/>
	<path fill="#E9EAEE" d="M216.085,138.58c-0.004-0.03-0.007-0.07-0.007-0.107c-6.702-1.381-13.793,0.212-19.276,4.499l0.136,2.706
		L216.085,138.58z"/>
	<path fill="#E9EAEE" d="M238.165,179.914l0.961,2.094c5.078,2.347,10.148,4.69,14.593,6.748L238.165,179.914z"/>
	<path fill="#E9EAEE" d="M230.061,175.651c0.06-0.078,0.11-0.17,0.172-0.255l-7.948-4.517l-1.889,2.5
		c2.522,1.156,5.356,2.461,8.362,3.846C229.212,176.723,229.646,176.199,230.061,175.651z"/>
	<path fill="#E9EAEE" d="M236.452,178.939l-4.321-2.459c-0.115,0.161-0.215,0.331-0.334,0.491c-0.315,0.418-0.654,0.807-0.989,1.198
		c2.188,1.01,4.443,2.051,6.71,3.098L236.452,178.939z"/>
	<path fill="#E9EAEE" d="M275.389,201.073l-0.236-0.134c0.055,0.064,0.107,0.129,0.16,0.194L275.389,201.073z"/>
	<path fill="#E9EAEE" d="M280.676,204.084l-4.211-2.397l-0.464,0.367c0.708,1.028,1.275,2.157,1.604,3.377L280.676,204.084z"/>
	<path fill="#E9EAEE" d="M264.719,19.395c0.083-0.054,0.177-0.099,0.269-0.153l-5.958-19.255h-9.483l-3.689,0.478L264.719,19.395z"
		/>
	<path fill="#E9EAEE" d="M340.005,37.09v-0.759l-0.263-0.018C339.818,36.575,339.918,36.831,340.005,37.09z"/>
	<path fill="#E9EAEE" d="M340.005,15.248V-0.013h-17.169l7.493,15.936C333.469,14.469,336.894,14.296,340.005,15.248z"/>
	<path fill="#E9EAEE" d="M295.127,188.919c3.136,0.498,5.539,3.08,5.785,6.284l39.093-17.157v-26.588l-44.31,35.025L295.127,188.919
		z"/>
	<path fill="#E9EAEE" d="M306.076-0.013h-0.774c0.104,0.126,0.2,0.256,0.312,0.378L306.076-0.013z"/>
	<path fill="#E9EAEE" d="M155.039,23.756c0,0-2.253-1.689-2.975-2.657c0,0,1.756,0.968,4.563,1.438
		c0.134-0.558,0.319-1.1,0.538-1.629c-0.604-0.658-1.081-1.447-1.081-2.302c0,0,0.458,0.456,1.692,1.039
		c1.237-2.163,3.212-3.918,5.736-4.837c5.677-2.075,11.97,0.845,14.044,6.522c0.119,0.326,0.191,0.656,0.277,0.984
		c13.362,1.148,26.831,8.088,26.831,16.238c0,0,3.552,0.173,6.091,5.816l0.59,0.303l15.547-2.443l-0.051-4.471
		c-1.786,0.207-3.645,0.077-5.478-0.477c-4.414-1.322-7.637-4.695-8.985-8.759L179.826,9.024L16.022,30.259
		c-0.407,2.85-1.648,5.609-3.78,7.853c-0.864,0.914-1.844,1.636-2.866,2.273l48.529,38.2c3.588-6.461,11.443-9.473,18.511-6.7
		c6.309,2.481,9.919,8.767,9.377,15.189l14.778-5.186L80.543,65.047c-6.162,3.865-14.198,4.203-20.782,0.1
		c-9.205-5.731-12.009-17.832-6.277-27.036c5.739-9.197,17.832-12.009,27.036-6.277s12.008,17.832,6.277,27.036
		c-1.183,1.898-2.685,3.45-4.326,4.779l20.633,17.348l10.437-3.665c-5.043-6.331-7.249-14.813-5.224-23.303
		c3.207-13.42,15.836-22.118,29.194-20.766c0.711-1.743,1.872-3.693,3.937-5.729C147.236,21.826,155.039,23.756,155.039,23.756z"/>
	<path fill="#E9EAEE" d="M329.354,99.904c3.15,6.577,0.507,14.389-5.862,17.793l16.513,14.894V61.308l-19.316,31.413
		C324.352,93.727,327.587,96.209,329.354,99.904z"/>
	<path fill="#E9EAEE" d="M311.56,118.105l-6.999,30.187l35.443-0.166v-13.978l-17.635-15.912
		C318.774,119.749,314.902,119.603,311.56,118.105z"/>
	<path fill="#E9EAEE" d="M320.318,0.433c0.133-0.144,0.248-0.295,0.365-0.447h-5.222l-0.421,0.455l-2.435-0.455h-4.698l-1.472,1.2
		C310.509,4.698,316.654,4.398,320.318,0.433z"/>
	<path fill="#E9EAEE" d="M0.005,42.42v33.246l3.294-33.207C2.201,42.576,1.096,42.557,0.005,42.42z"/>
	<path fill="#E9EAEE" d="M277.333,23.459l27.566-22.511c-0.28-0.309-0.534-0.632-0.772-0.962h-34.562l2.627,18.556
		C274.536,19.364,276.403,21.162,277.333,23.459z"/>
	<path fill="#E9EAEE" d="M3.422,41.215l0.373-3.75l-0.203-0.162l0.18-0.23l-3.767-0.75v4.864
		C1.136,41.342,2.284,41.358,3.422,41.215z"/>
	<path fill="#E9EAEE" d="M31.956,10.805l-8.105-1.924l-0.269,0.257l-2.531,2.436c3.219,2.666,7.687,3.68,11.927,2.236
		c5.842-1.992,9.236-7.925,8.243-13.823h-4.886l1.3,3.812L31.956,10.805z"/>
	<path fill="#E9EAEE" d="M33.354,14.901c-4.687,1.598-9.607,0.445-13.134-2.528l-7.188,6.915c2.259,2.851,3.281,6.331,3.07,9.796
		L178.227,8.067l-13.489-8.08H42.389C43.371,6.377,39.688,12.744,33.354,14.901z"/>
	<path fill="#E9EAEE" d="M269.159,18.027c0.63-0.015,1.236,0.046,1.828,0.162l-2.58-18.202h-8.172l5.788,18.717
		C266.992,18.296,268.044,18.051,269.159,18.027z"/>
	<path fill="#E9EAEE" d="M17.198,6.042c0.634,1.867,1.698,3.442,3.008,4.748l2.774-2.67l-2.678-7.848l0.231-0.286h-3.828
		C16.374,1.953,16.51,4.026,17.198,6.042z"/>
	<path fill="#E9EAEE" d="M11.704,17.751c0.219,0.208,0.373,0.445,0.577,0.667l7.091-6.829c-1.417-1.422-2.574-3.143-3.265-5.171
		c-0.73-2.143-0.886-4.339-0.566-6.432H0.005v13.982C4.133,13.437,8.445,14.661,11.704,17.751z"/>
	<polygon fill="#E9EAEE" points="240.552,-0.013 169.236,-0.013 181.924,7.587 	"/>
	<path fill="#E9EAEE" d="M317.5,97.915l4.563,0.53l3.849,8.06l-4.817,7.621l-1.797-0.206l3.311,2.979
		c6.069-3.003,8.65-10.364,5.716-16.503c-1.667-3.488-4.777-5.785-8.267-6.653L317.5,97.915z"/>
	<path fill="#E9EAEE" d="M226.525,143.589l-3.853-0.138l-0.119,0.237l-0.515,1.007l0.78,1.698c0.68,0.216,1.387,0.369,2.131,0.392
		c1.434,0.054,2.774-0.285,3.98-0.876C228.201,145.087,227.387,144.319,226.525,143.589z"/>
	<path fill="#E9EAEE" d="M298.461,61.021l14.437,9.074v16.887l-8.466,5.332l4.755,2.436c0.646-0.461,1.314-0.891,2.051-1.245
		c2.037-0.976,4.195-1.337,6.301-1.259c2.78-3.865,4.44-8.59,4.44-13.707c0-12.969-10.548-23.518-23.518-23.518
		c-8.197,0-15.427,4.233-19.638,10.618l6.301,3.772L298.461,61.021z"/>
	<path fill="#E9EAEE" d="M316.716,93.343c-1.675,0.054-3.373,0.43-4.979,1.199c-0.483,0.23-0.907,0.538-1.352,0.822l2.842,1.452
		C314.51,95.786,315.679,94.618,316.716,93.343z"/>
	<path fill="#E9EAEE" d="M252.002,125.273l51.531-19.099c-0.017-0.284,0.029-0.561,0.036-0.837l-10.955-0.623
		c-0.291,0.1-0.553,0.253-0.859,0.338c-3.436,0.999-6.931,0.538-9.888-0.953l-52.502-2.989l14.524,19.968L252.002,125.273z"/>
	<path fill="#E9EAEE" d="M282.027,124.52c5.07,0.224,9.558,2.474,12.746,5.924l10.817-17.578c-0.261-0.415-0.546-0.799-0.761-1.245
		c-0.66-1.383-0.999-2.819-1.175-4.264l-50.27,18.632l12.661,6.537C269.535,127.471,275.436,124.237,282.027,124.52z"/>
	<path fill="#E9EAEE" d="M272.255,34.76l0.015,0.323l3.497-0.553c0.177-0.792,0.276-1.598,0.253-2.443
		C275.036,33.294,273.753,34.223,272.255,34.76z"/>
	<path fill="#E9EAEE" d="M307.703,113.833c0.9,1.037,1.913,1.943,3.059,2.628l0.945-4.072l0.115,0.031l-1.422-2.974L307.703,113.833
		z"/>
	<path fill="#E9EAEE" d="M291.801,138.665l-0.423,9.688l5.801-0.03c0.49-1.46,0.86-2.981,0.929-4.595
		c0.162-3.635-0.868-7.038-2.704-9.881l-3.142,5.102L291.801,138.665z"/>
	<path fill="#E9EAEE" d="M312.713,113.151l-0.016,0.068l-0.868,3.741c2.943,1.383,6.361,1.598,9.574,0.407l-4.08-3.68
		L312.713,113.151z"/>
	<path fill="#E9EAEE" d="M275.888,31.073c-0.177-1.306-0.591-2.512-1.214-3.603l-2.405,4.002h-0.137L272.224,34
		C273.729,33.409,275.005,32.387,275.888,31.073z"/>
	<path fill="#E9EAEE" d="M272.416,22.276l2.229,3.38l2.082-1.698c-0.769-2.097-2.366-3.78-4.419-4.618l0.408,2.896L272.416,22.276z"
		/>
	<path fill="#E9EAEE" d="M276.618,29.713c0.416-0.983,0.646-2.067,0.623-3.204c-0.008-0.46-0.076-0.907-0.161-1.353l-1.813,1.483
		C275.857,27.585,276.342,28.599,276.618,29.713z"/>
	<path fill="#E9EAEE" d="M268.62,21.831l2.874-0.062l-0.399-2.789c-0.614-0.138-1.252-0.238-1.921-0.223
		c-1.045,0.023-2.028,0.253-2.936,0.646l0.669,2.151C267.492,21.6,268.06,21.693,268.62,21.831z"/>
	<path fill="#E9EAEE" d="M276.957,31.987c0.031,0.822-0.039,1.614-0.184,2.39l45.72-7.199c0.338-4.356,2.751-8.436,6.799-10.756
		l-7.629-16.234c-0.222,0.292-0.406,0.599-0.66,0.875c-4.057,4.38-10.856,4.676-15.305,0.726l-27.981,22.845
		c0.146,0.6,0.246,1.222,0.253,1.859c0.04,1.621-0.406,3.135-1.158,4.449C276.856,31.288,276.941,31.626,276.957,31.987z"/>
	<path fill="#E9EAEE" d="M331.413,35.752l-3.796-7.045l-3.979,0.623c0.146,1.628,0.606,3.25,1.428,4.778
		c2.713,5.009,8.383,7.368,13.692,6.169c-0.592-1.344-1.084-2.72-1.452-4.125L331.413,35.752z"/>
	<path fill="#E9EAEE" d="M337.866,20.463c0.478-1.421,1.061-2.812,1.783-4.149c-2.843-0.868-5.97-0.676-8.835,0.653l1.467,3.12
		L337.866,20.463z"/>
	<path fill="#E9EAEE" d="M323.645,26.994l4.44-0.699l3.196-5.647l-1.489-3.173C326.22,19.549,324.03,23.137,323.645,26.994z"/>
	<path fill="#E9EAEE" d="M301.326,94.265c-0.16,0.945-0.43,1.852-0.775,2.735l4.019,3.626c0.791-1.936,2.027-3.665,3.649-5.078
		l-4.926-2.521L301.326,94.265z"/>
	<path fill="#E9EAEE" d="M296.157,94.611l-5.44,6.108c1.536,0.538,3.135,0.922,4.802,1.129c1.575-1.207,2.804-2.774,3.643-4.541
		l-2.928-2.644L296.157,94.611z"/>
	<path fill="#E9EAEE" d="M258.986,39.509c1.905,1.883,4.533,3.027,7.414,2.92c3.719-0.146,6.853-2.335,8.466-5.417l-5.692,0.892
		l-2.873,1.967l-2.059-1.191L258.986,39.509z"/>
	<path fill="#E9EAEE" d="M236.905,28.507l-3.238-1.167l-5.734,5.009l0.034,2.82l1.355,0.814
		C232.748,34.792,235.584,32.125,236.905,28.507z"/>
	<path fill="#E9EAEE" d="M299.644,96.186c0.13-0.346,0.223-0.707,0.315-1.06l-0.876,0.545L299.644,96.186z"/>
	<path fill="#E9EAEE" d="M303.67,103.708c-0.745,0.153-1.506,0.261-2.266,0.345l2.228,0.131
		C303.646,104.023,303.646,103.861,303.67,103.708z"/>
	<path fill="#E9EAEE" d="M304.708,105.736l0.792-0.292l-0.776-0.046C304.723,105.513,304.708,105.628,304.708,105.736z"/>
	<path fill="#E9EAEE" d="M305.682,103.185c-0.246,0.077-0.499,0.13-0.744,0.199c-0.054,0.285-0.115,0.569-0.154,0.861l2.221,0.131
		L305.682,103.185z"/>
	<path fill="#E9EAEE" d="M306.95,102.77l1.675,1.514v0.008l0.085,0.069l2.06-3.265C309.555,101.763,308.272,102.309,306.95,102.77z"
		/>
	<path fill="#E9EAEE" d="M306.266,111.759l2.951-4.794l-0.501-1.037l-0.345-0.315l-3.611,1.337c0.139,1.406,0.47,2.82,1.114,4.172
		C305.99,111.352,306.144,111.543,306.266,111.759z"/>
	<path fill="#E9EAEE" d="M297.117,101.987c0.445,0.031,0.89,0.069,1.344,0.069c1.821,0,3.58-0.224,5.287-0.615l-3.681-3.326
		C299.329,99.574,298.331,100.872,297.117,101.987z"/>
	<path fill="#E9EAEE" d="M228.066,44.38l0.104,8.904l44.714,22.888c0.315-3.473,1.321-6.746,2.882-9.673l-39.168-23.464
		L228.066,44.38z"/>
	<path fill="#E9EAEE" d="M281.058,80.351c0.922-0.545,1.898-1.013,2.967-1.337v-7.567l-0.592-0.361l-5.785-3.465
		c-1.529,2.912-2.452,6.177-2.636,9.634L281.058,80.351z"/>
	<path fill="#E9EAEE" d="M281.874,98.414l-0.1-0.361c-2.504-2.136-4.58-4.748-6.116-7.691c-0.222,1.659-0.123,3.389,0.368,5.102
		c0.977,3.357,3.251,5.97,6.109,7.498l10.286,0.584c0.031-0.007,0.055-0.023,0.078-0.03c-3.766-0.899-7.216-2.605-10.135-4.956
		L281.874,98.414z"/>
	<path fill="#E9EAEE" d="M274.943,78.538c0,2.443,0.377,4.801,1.076,7.022c0.945-1.759,2.297-3.272,3.934-4.479l-5.01-2.558
		C274.943,78.531,274.943,78.538,274.943,78.538z"/>
	<polygon fill="#E9EAEE" points="233.513,41.184 227.994,37.88 228.044,42.044 	"/>
	<path fill="#E9EAEE" d="M228.181,54.591l0.515,45.329l51.141,2.912c-2.273-1.714-4.07-4.103-4.924-7.053
		c-0.698-2.404-0.646-4.84-0.068-7.107c-1.337-3.104-2.082-6.53-2.082-10.133c0-0.369,0.038-0.738,0.061-1.107L228.181,54.591z"/>
	<path fill="#E9EAEE" d="M284.025,81.873v-1.621c-0.606,0.207-1.215,0.422-1.767,0.714L284.025,81.873z"/>
	<path fill="#E9EAEE" d="M276.596,87.135c0.943,2.405,2.273,4.618,3.917,6.562l-1.121-3.857l4.633-5.202v-1.467l-2.897-1.483
		C279.092,83.04,277.54,84.938,276.596,87.135z"/>
	<path fill="#E9EAEE" d="M324.053,34.646c-0.884-1.645-1.392-3.388-1.561-5.132l-46.505,7.322c-1.644,3.688-5.239,6.354-9.55,6.516
		c-3.388,0.138-6.445-1.322-8.542-3.665l-17.741,2.788l36.793,22.035c4.587-7.014,12.508-11.663,21.513-11.663
		c14.189,0,25.692,11.501,25.692,25.692c0,1.683-0.169,3.327-0.477,4.917l16.328-26.559v-14.16
		c-0.261-0.457-0.522-0.915-0.755-1.383C333.38,42.79,327.056,40.216,324.053,34.646z"/>
	<path fill="#E9EAEE" d="M293.36,191.438h-0.008l0.076-0.307l-1.075-1.476c-0.507,0.146-0.983,0.347-1.429,0.601l-1.507,1.19
		c-1.045,1.129-1.697,2.628-1.697,4.278c0,1.737,0.707,3.312,1.844,4.457l2.389-1.054l-1.79-1.128v-4.549L293.36,191.438z"/>
	<path fill="#E9EAEE" d="M292.339,187.674l2.319-1.829l8.175-35.242l-4.826,0.023c-2.757,6.055-8.681,10.234-15.571,10.695
		l1.674,15.051L292.339,187.674z"/>
	<path fill="#E9EAEE" d="M294.235,187.636l-1.222,0.968l0.208,0.292c0.245-0.031,0.491-0.077,0.745-0.077L294.235,187.636z"/>
	<path fill="#E9EAEE" d="M296.256,150.635l-6.084,0.03v-0.499l-8.444,4.794l0.538,4.81
		C288.335,159.393,293.59,155.835,296.256,150.635z"/>
	<path fill="#E9EAEE" d="M270.941,158.264l10.433,14.344l-1.244-11.21C276.711,161.198,273.592,160.054,270.941,158.264z"/>
	<path fill="#E9EAEE" d="M290.916,136.721l2.989-4.855c-2.936-3.358-7.16-5.57-11.955-5.778c-5.954-0.261-11.31,2.62-14.521,7.161
		l4.887,2.52l9.449-5.37L290.916,136.721z"/>
	<path fill="#E9EAEE" d="M264.848,134.516l-14.398-7.438l-1.729,0.639l14.828,20.389c-0.545-1.889-0.884-3.863-0.791-5.931
		C262.882,139.402,263.65,136.828,264.848,134.516z"/>
	<path fill="#E9EAEE" d="M279.377,154.683l-8.798-6.092l0.47-10.871l-4.811-2.482c-1.098,2.112-1.805,4.464-1.913,7
		c-0.406,9.136,6.569,16.88,15.62,17.555L279.377,154.683z"/>
	<polygon fill="#E9EAEE" points="246.931,125.25 248.015,126.748 249.068,126.357 	"/>
	<path fill="#E9EAEE" d="M293.82,189.417c-0.068,0.009-0.13,0.017-0.198,0.023l0.146,0.208L293.82,189.417z"/>
	<path fill="#E9EAEE" d="M287.136,195.725c0-1.105,0.284-2.136,0.753-3.063l-1.806,1.42l0.807,7.268l2.112-0.922
		C287.859,199.191,287.136,197.546,287.136,195.725z"/>
	<path fill="#E9EAEE" d="M295.603,201.841c1.859-0.476,3.396-1.774,4.188-3.488l-4.987,2.189L295.603,201.841z"/>
	<path fill="#E9EAEE" d="M294.044,202.641c-0.969,0-1.891-0.2-2.728-0.562l-4.142,1.813l0.3,2.728l14.958,8.506l-7.729-12.547
		C294.488,202.594,294.273,202.641,294.044,202.641z"/>
	<path fill="#E9EAEE" d="M261.422,26.825c0.008,0.337,0.076,0.66,0.123,0.991l2.182-1.498L266,22.53l-0.03-0.116
		c-0.114,0-0.229-0.022-0.345-0.015c-1.184,0.046-2.29,0.33-3.335,0.753C261.737,24.259,261.398,25.503,261.422,26.825z"/>
	<path fill="#E9EAEE" d="M294.674,190.893l0.176,0.246l-0.275,0.2l3.356,2.112v3.057l2.429-1.067
		c-0.139-3.035-2.412-5.5-5.364-5.946L294.674,190.893z"/>
	<polygon fill="#E9EAEE" points="283.947,195.772 277.441,200.911 281.989,203.5 284.677,202.325 	"/>
	<polygon fill="#E9EAEE" points="284.371,178.678 285.93,192.737 291.431,188.389 	"/>
	<polygon fill="#E9EAEE" points="284.639,205.006 285.001,205.214 284.962,204.861 	"/>
	<path fill="#E9EAEE" d="M294.365,202.026l-0.621-1.014l-1.621,0.714c0.607,0.191,1.244,0.33,1.921,0.33
		C294.159,202.056,294.259,202.026,294.365,202.026z"/>
	<path fill="#E9EAEE" d="M228.874,115.922l0.161,14.03c1.313,0.592,2.439,1.498,3.338,2.597l14.521-5.386l-2.244-3.088
		L228.874,115.922z"/>
	<polygon fill="#E9EAEE" points="214.833,46.462 227.01,52.693 226.918,44.557 	"/>
	<path fill="#E9EAEE" d="M223.093,133.086l4.823,0.185l-0.03-2.896c-0.733-0.245-1.494-0.422-2.305-0.452
		c-1.816-0.069-3.511,0.46-4.929,1.391l2.57,1.559L223.093,133.086z"/>
	<polygon fill="#E9EAEE" points="220.871,30.92 226.802,34.477 226.784,32.695 	"/>
	<path fill="#E9EAEE" d="M263.073,21.892c0.691-0.192,1.407-0.315,2.144-0.369l-0.913-0.914
		C263.85,20.993,263.435,21.424,263.073,21.892z"/>
	<path fill="#E9EAEE" d="M218.425,136.813c0.403,0.115,0.804,0.23,1.202,0.36l2.478-3.632l-2.432-1.477
		c-0.892,0.791-1.613,1.768-2.105,2.873L218.425,136.813z"/>
	<path fill="#E9EAEE" d="M221.693,36.175c1.409,0.422,2.832,0.53,4.222,0.46l-11.861-7.106
		C215.51,32.617,218.175,35.122,221.693,36.175z"/>
	<path fill="#E9EAEE" d="M229.161,11.244c7.076,2.12,11.109,9.48,9.196,16.564l16.856,6.077c-0.046-0.354-0.13-0.684-0.146-1.044
		c-0.177-4.741,2.69-8.843,6.839-10.534c0.49-0.845,1.138-1.583,1.882-2.213L244.42,0.653l-60.898,7.894l28.228,16.911
		c-0.151-1.667-0.016-3.389,0.495-5.086C214.394,13.172,221.97,9.092,229.161,11.244z"/>
	<path fill="#E9EAEE" d="M233.955,26.218l3.312,1.198c1.69-6.453-2.005-13.145-8.429-15.066c-6.575-1.971-13.521,1.775-15.488,8.344
		c-0.556,1.859-0.611,3.733-0.319,5.532l5.56,3.326l-2.205-7.952l6.792-5.931l8.559,2.559L233.955,26.218z"/>
	<path fill="#E9EAEE" d="M221.427,143.365l0.27-0.53l-1.879-3.257c-0.049-0.023-0.103-0.047-0.157-0.068L221.427,143.365z"/>
	<path fill="#E9EAEE" d="M229.403,134.878l2.146,3.71l-2.766,4.056c0.711,0.653,1.368,1.354,1.986,2.067
		c1.705-1.476,2.836-3.611,2.923-6.046c0.07-1.79-0.441-3.474-1.352-4.879L229.403,134.878z"/>
	<path fill="#E9EAEE" d="M224.921,147.569c-0.577-0.022-1.13-0.114-1.672-0.229l10.148,22.164
		c2.816-7.759,1.326-16.548-3.964-22.971C228.078,147.223,226.552,147.631,224.921,147.569z"/>
	<path fill="#E9EAEE" d="M229.042,130.827l0.034,2.943l2.532-0.938C230.893,132.011,230.025,131.327,229.042,130.827z"/>
	<path fill="#E9EAEE" d="M232.78,175.519l2.85,1.622l-1.658-3.627C233.606,174.198,233.21,174.865,232.78,175.519z"/>
	<path fill="#E9EAEE" d="M218.958,131.634l-4.021-2.442l2.221,4.84C217.634,133.141,218.228,132.318,218.958,131.634z"/>
	<path fill="#E9EAEE" d="M221.756,146.846c-0.224-0.091-0.443-0.184-0.657-0.292l-0.427,0.839l1.19,0.1l6.047,15.95l-4.921,6.508
		l7.895,4.494c0.745-1.131,1.382-2.291,1.912-3.489L221.756,146.846z"/>
	<path fill="#E9EAEE" d="M218.178,139.033l-1.253,0.469c0.323,2.375,1.637,4.448,3.535,5.771l0.299-0.601L218.178,139.033z"/>
	<path fill="#E9EAEE" d="M23.486,139.832l0.48,0.131l2.401,0.646c0.058-2.021-0.557-4.025-1.794-5.662l-2.262,2.473L23.486,139.832z
		"/>
	<path fill="#E9EAEE" d="M85.39,57.987c5.232-8.405,2.659-19.5-5.754-24.739C71.231,28,60.137,30.582,54.898,38.994
		c-5.24,8.405-2.666,19.499,5.747,24.739c5.847,3.649,12.965,3.435,18.542,0.177l-4.728-3.972l0.115-0.138l-11.517,0.054
		l-5.686-11.724l6.823-10.948l13.03-0.053l5.686,11.724l-6.204,9.95l4.479,3.772C82.794,61.313,84.249,59.815,85.39,57.987z"/>
	<polygon fill="#E9EAEE" points="35.925,214.396 20.271,198.684 22.053,214.925 	"/>
	<path fill="#E9EAEE" d="M73.674,154.591l-3.561-0.968c-0.261,2.351,0.13,4.794,1.287,7.046c3.135,6.092,10.649,8.505,16.749,5.369
		c2.62-1.344,4.505-3.519,5.62-6.022l-4.456-1.199l-2.608,4.402l-8.989-0.776L73.674,154.591z"/>
	<path fill="#E9EAEE" d="M65.461,99.766c-2.093-0.823-3.868-2.09-5.328-3.619l-34.995,38.184c1.452,1.867,2.158,4.172,2.043,6.501
		l34.031,9.195l9.77-2.228c1.256-2.013,3.003-3.741,5.266-4.909c0.299-0.154,0.611-0.23,0.915-0.354l-4.718-41.873
		C70.144,100.903,67.762,100.673,65.461,99.766z"/>
	<path fill="#E9EAEE" d="M40.273,214.227l5.997-0.231l-4.056-5.386l-0.177,0.292l-0.5-0.292l-3.154-1.89
		c-0.022,0.562-0.077,1.114-0.027,1.689C38.537,210.546,39.243,212.497,40.273,214.227z"/>
	<path fill="#E9EAEE" d="M72.634,147.423l4.955-1.129l-0.292-2.582c-0.173,0.077-0.35,0.115-0.519,0.2
		C75.092,144.781,73.717,146.009,72.634,147.423z"/>
	<polygon fill="#E9EAEE" points="80.097,90.301 80.024,90.085 79.805,90.063 79.809,90.032 78.031,91.345 82.898,91.622 
		80.393,90.193 	"/>
	<path fill="#E9EAEE" d="M72.971,95.072l0.473,4.187c3.811-0.714,7.218-3.027,9.265-6.491l-6.135-0.354L72.971,95.072z"/>
	<path fill="#E9EAEE" d="M69.433,76.195l9.166,3.596l1.702,9.027l0.204,0.116l3.991-1.398c0.757-6.07-2.597-12.131-8.547-14.467
		c-6.519-2.566-13.794,0.284-17.029,6.315l2.993,2.351L69.433,76.195z"/>
	<path fill="#E9EAEE" d="M58.02,90.201l4.998,0.284l-1.448-7.637l-0.042,0.054l-3.149-2.473c-0.058,0.138-0.146,0.253-0.2,0.392
		C56.948,83.947,57.014,87.243,58.02,90.201z"/>
	<path fill="#E9EAEE" d="M37.089,208.509c-0.073-0.859-0.031-1.705,0.042-2.541l-15.273-9.151l16.591,16.648
		C37.746,211.937,37.238,210.284,37.089,208.509z"/>
	<path fill="#E9EAEE" d="M98.779,92.521l-13.745-1.782c-0.065,0.184-0.084,0.376-0.158,0.561c-0.012,0.031-0.034,0.062-0.046,0.092
		l0.657,0.376L98.779,92.521z"/>
	<path fill="#E9EAEE" d="M83.719,90.762c0.027-0.062,0.031-0.124,0.054-0.185l-0.496-0.069L83.719,90.762z"/>
	<path fill="#E9EAEE" d="M84.089,89.455c0.058-0.208,0.126-0.415,0.172-0.622l-1.333,0.468L84.089,89.455z"/>
	<path fill="#E9EAEE" d="M101.594,82.749l-15.892,5.577c-0.077,0.438-0.238,0.861-0.353,1.291l28.88,3.75L101.594,82.749z"/>
	<path fill="#E9EAEE" d="M70.34,152.493l3.856,1.045l3.623-6.122l-6.135,1.396C71.031,149.958,70.605,151.203,70.34,152.493z"/>
	<path fill="#E9EAEE" d="M63.579,150.665l5.643,1.529c0.223-1.062,0.558-2.075,1.022-3.051L63.579,150.665z"/>
	<path fill="#E9EAEE" d="M15.231,134.693l5.747-0.023l0.795,1.637l2.044-2.236c-0.484-0.492-1.018-0.952-1.633-1.337
		c-2.919-1.82-6.473-1.712-9.258-0.092l2.358,1.982L15.231,134.693z"/>
	<path fill="#E9EAEE" d="M62.711,91.622l-4.287-0.238c0.468,1.052,1.106,2.013,1.824,2.927L62.711,91.622z"/>
	<path fill="#E9EAEE" d="M8.739,21.823l2.662-2.559c-0.188-0.207-0.337-0.438-0.542-0.63c-3.018-2.86-7.03-3.964-10.854-3.426v4.157
		l8.542,1.705L8.739,21.823z"/>
	<path fill="#E9EAEE" d="M25.057,145.079c0.645-1.037,1.048-2.158,1.233-3.296l-2.789-0.753l-3.093,4.948l-5.916,0.03l0.312,2.859
		C18.599,150.043,22.856,148.607,25.057,145.079z"/>
	<path fill="#E9EAEE" d="M22.621,132.026c0.661,0.408,1.233,0.898,1.759,1.43l35.004-38.199c-0.98-1.206-1.779-2.52-2.343-3.957
		L0.005,88.052v33.728l12.241,10.292C15.323,130.145,19.337,129.976,22.621,132.026z"/>
	<path fill="#E9EAEE" d="M4.878,38.319l-0.276,2.758c0.907-0.2,1.79-0.508,2.647-0.891L4.878,38.319z"/>
	<path fill="#E9EAEE" d="M72.303,99.405l-0.472-4.187l-7.975-3.135l-0.154,0.169l-2.704,2.95c1.344,1.429,2.984,2.62,4.932,3.388
		C68.028,99.412,70.198,99.62,72.303,99.405z"/>
	<polygon fill="#E9EAEE" points="18.538,193.483 15.054,161.729 0.005,165.165 0.005,174.887 18.523,193.474 	"/>
	<path fill="#E9EAEE" d="M25.756,145.518c-2.343,3.757-6.795,5.332-10.852,4.233l1.16,10.571l42.751-9.749l-31.73-8.574
		C26.878,143.212,26.448,144.41,25.756,145.518z"/>
	<path fill="#E9EAEE" d="M12.68,147.931c0.007,0,0.016,0.007,0.023,0.016c0.284,0.176,0.587,0.291,0.883,0.437l-0.142-1.29
		L12.68,147.931z"/>
	<path fill="#E9EAEE" d="M11.93,133.31c-0.799,0.63-1.524,1.375-2.093,2.289c-2.405,3.85-1.483,8.812,1.932,11.624l1.509-1.65
		l-0.008-0.078l0.084-0.007l0.196-0.215l-2.485-5.117l3.096-4.964l-0.061-0.054L11.93,133.31z"/>
	<path fill="#E9EAEE" d="M13.694,149.352c-0.484-0.2-0.967-0.415-1.428-0.699c-0.054-0.031-0.093-0.076-0.146-0.115L0.005,161.758
		v2.223l14.923-3.404L13.694,149.352z"/>
	<path fill="#E9EAEE" d="M78.83,146.785l8.382,0.73l4.088,7.944l-1.376,2.327l4.303,1.16c1.041-3.074,0.899-6.546-0.699-9.658
		c-2.862-5.568-9.365-8.006-15.12-6.016l0.369,3.289L78.83,146.785z"/>
	<path fill="#E9EAEE" d="M237.989,28.898c-1.337,3.65-4.081,6.393-7.44,7.822l6.526,3.903l19.329-3.043
		c-0.406-0.753-0.743-1.544-0.967-2.389L237.989,28.898z"/>
	<path fill="#E9EAEE" d="M129.907,106.826c-0.073-0.136-0.151-0.306-0.228-0.468l-13.819-11.617l-1.241-0.162l-26.878-1.528
		l48.85,27.778c-1.694-4.172-3.107-8.368-3.107-10.776C133.486,110.053,131.715,110.197,129.907,106.826z"/>
	<polygon fill="#E9EAEE" points="306.782,219.987 308.651,219.987 305.775,218.352 	"/>
	<path fill="#E9EAEE" d="M128.216,82.106l-0.644-6.662l-1.327-1.354l-9.553,3.357c2.428,2.583,5.424,4.672,8.857,6.047
		C126.151,82.002,127.238,82.106,128.216,82.106z"/>
	<path fill="#E9EAEE" d="M305.715,100.903c2.342-0.769,4.524-1.898,6.482-3.311l-2.887-1.483
		C307.703,97.407,306.498,99.059,305.715,100.903z"/>
	<path fill="#E9EAEE" d="M283.317,205.583l-5.387,2.364c0,5.121,0,8.956,0,10.806l1.89,1.233h6.822l-1.48-13.358L283.317,205.583z"
		/>
	<path fill="#E9EAEE" d="M125.117,85.786c-4.26-1.624-7.926-4.233-10.789-7.509l-10.203,3.58l13.999,11.771l7.907,0.449
		c-0.568-2.754-0.951-5.353-0.951-7.147C125.08,86.509,125.095,86.137,125.117,85.786z"/>
	<path fill="#E9EAEE" d="M300.543,198.024c-0.745,2.104-2.459,3.719-4.625,4.332l8.597,13.953l6.469,3.678h29.021v-39.278
		L300.543,198.024z"/>
	<polygon fill="#E9EAEE" points="287.635,208.041 288.964,219.987 305.426,219.987 303.692,217.169 	"/>
	<path fill="#E9EAEE" d="M60.833,209.031l-2.324,4.496l2.271-0.087v-3.575C60.78,209.865,60.779,209.55,60.833,209.031z"/>
	<polygon fill="#E9EAEE" points="228.719,102.178 228.846,113.303 241.615,119.903 	"/>
	<path fill="#E9EAEE" d="M255.998,32.802c0.022,0.492,0.114,0.968,0.206,1.436l3.781,1.368l-0.254-6.554l1.137-0.776
		c-0.092-0.468-0.16-0.938-0.177-1.429c-0.021-1.137,0.185-2.213,0.562-3.211C258.01,25.403,255.844,28.868,255.998,32.802z"/>
	<path fill="#E9EAEE" d="M127.71,169.19l-32.815-8.867c-1.203,2.804-3.292,5.24-6.216,6.746c-6.676,3.427-14.866,0.798-18.3-5.871
		c-1.299-2.527-1.725-5.262-1.402-7.881l-7.798-2.105l-44.992,10.256l3.596,32.761l17.521,10.494
		c1.125-6.561,6.511-11.815,13.453-12.399c4.126-0.354,8.002,1.005,10.933,3.487l42.213-15.646
		c11.772-5.589,22.022-10.516,22.022-10.516S126.669,169.645,127.71,169.19z"/>
	<polygon fill="#E9EAEE" points="260.37,36.958 261.053,36.851 260.514,36.543 	"/>
	<polygon fill="#E9EAEE" points="228.881,133.839 228.803,133.839 228.82,133.863 	"/>
	<path fill="#E9EAEE" d="M256.559,35.591c0.222,0.646,0.498,1.26,0.836,1.836l2.951-0.469L256.559,35.591z"/>
	<path fill="#E9EAEE" d="M134.288,152.44c0,0,7.463-2.023,7.463-4.31c0-2.287,0.581-14.811,0.581-14.811s-2.628-5.123-5.02-10.759
		L85.156,92.906l-1.072-0.062c-2.201,4.133-6.1,6.883-10.499,7.683l4.687,41.572c6.234-2.036,13.188,0.653,16.276,6.669
		c1.736,3.381,1.913,7.145,0.807,10.486l33.752,9.117C131.472,166.614,134.288,162.428,134.288,152.44z"/>
	<path fill="#E9EAEE" d="M72.522,194.743c4.004-1.731,11.363-5.141,19.361-8.901l-29.315,10.866
		c0.962,0.963,1.794,2.058,2.476,3.251C66.759,198.058,69.141,196.205,72.522,194.743z"/>
	<polygon fill="#E9EAEE" points="296.11,184.694 339.441,150.435 304.023,150.596 	"/>
	<path fill="#E9EAEE" d="M9.069,23.106l1.706,6.669l0.069-0.008l4.026-0.522c0.25-3.211-0.654-6.454-2.716-9.112L9.069,23.106z"/>
	<path fill="#E9EAEE" d="M307.082,114.855l-10.795,17.556c2.259,3.228,3.572,7.145,3.389,11.387c-0.07,1.582-0.392,3.072-0.83,4.518
		l4.525-0.016l7.121-30.685C309.218,116.907,308.088,115.962,307.082,114.855z"/>
	<path fill="#E9EAEE" d="M41.01,215.347c1.048,1.422,2.351,2.621,3.85,3.543l2.45-3.258l0.046-0.191l-0.246-0.332L41.01,215.347z"/>
	<path fill="#E9EAEE" d="M46.4,199.283l9.22-0.785l-0.146-0.392l0.545-0.198l4.218-1.561c-2.605-1.967-5.877-3.058-9.373-2.759
		c-6.508,0.554-11.566,5.593-12.412,11.825l3.649,2.182L46.4,199.283z"/>
	<path fill="#E9EAEE" d="M10.406,30.881l-5.497,5.793l0.126,0.015l-0.023,0.262l3.327,2.62c1.083-0.623,2.116-1.345,3.02-2.297
		c1.863-1.967,3-4.364,3.418-6.853l-4.356,0.561L10.406,30.881z"/>
	<path fill="#E9EAEE" d="M4.478,42.321L0.053,86.905l56.604,3.219c-0.941-3.104-0.941-6.515,0.338-9.773
		c0.1-0.261,0.257-0.476,0.369-0.722L8.285,41C7.068,41.614,5.796,42.068,4.478,42.321z"/>
	<path fill="#E9EAEE" d="M135.575,39.881c0.635-0.75,0.687-2.306,1.196-4.342c-12.018-0.955-23.32,6.938-26.21,19.028
		c-1.917,8.037,0.33,16.088,5.313,21.942l9.484-3.326l-7.514-7.676L122,48.098l4.719-1.599c0.298-0.756,0.665-1.455,1.136-2.035
		C130.991,40.603,134.249,41.448,135.575,39.881z"/>
	<path fill="#E9EAEE" d="M46.385,219.681l0.295-1.292l-0.803,1.068C46.043,219.542,46.216,219.604,46.385,219.681z"/>
	<polygon fill="#FFFFFF" points="315.462,-0.013 312.606,-0.013 315.041,0.442 	"/>
	<path fill="#FFFFFF" d="M163.511,14.808c-2.523,0.918-4.499,2.674-5.736,4.837c0.255,0.121,0.536,0.245,0.862,0.373
		c1.136-1.939,2.926-3.51,5.197-4.341c5.193-1.89,10.948,0.784,12.845,5.969c0.071,0.197,0.111,0.396,0.169,0.593
		c0.327,0.021,0.656,0.048,0.985,0.076c-0.086-0.329-0.158-0.659-0.277-0.984C175.481,15.654,169.188,12.734,163.511,14.808z"/>
	<path fill="#FFFFFF" d="M157.555,22.665c0.091-0.361,0.206-0.714,0.336-1.063c-0.249-0.209-0.497-0.442-0.728-0.694
		c-0.218,0.529-0.404,1.071-0.538,1.629C156.924,22.587,157.235,22.629,157.555,22.665z"/>
	<path fill="#FFFFFF" d="M277.93,219.987h1.89l-1.89-1.233C277.93,219.551,277.93,219.987,277.93,219.987z"/>
	<path fill="#FFFFFF" d="M164.709,18.073l-2.348,3.029c2.473,0.534,5.85,0.953,10.373,1.022l-0.927-2.531L164.709,18.073z"/>
	<path fill="#FFFFFF" d="M295.918,202.356c2.166-0.613,3.88-2.229,4.625-4.332l39.462-17.315v-2.662l-39.093,17.157
		c-0.246-3.204-2.649-5.786-5.785-6.284l0.568-2.436l44.31-35.025v-3.333l-35.443,0.166l6.999-30.187
		c3.342,1.498,7.214,1.645,10.81,0.131l17.635,15.912v-1.557l-16.513-14.894c6.369-3.404,9.013-11.217,5.862-17.793
		c-1.768-3.695-5.002-6.177-8.666-7.183l19.316-31.413v-4.411l-16.328,26.559c0.308-1.59,0.477-3.234,0.477-4.917
		c0-14.191-11.503-25.692-25.692-25.692c-9.005,0-16.926,4.649-21.513,11.663l-36.793-22.035l17.741-2.788
		c2.097,2.343,5.154,3.803,8.542,3.665c4.311-0.162,7.906-2.828,9.55-6.516l46.505-7.322c0.169,1.744,0.677,3.488,1.561,5.132
		c3.003,5.57,9.326,8.144,15.196,6.708c0.232,0.469,0.494,0.926,0.755,1.383V37.09c-0.087-0.259-0.187-0.515-0.263-0.777
		l0.263,0.018V15.248c-3.11-0.952-6.536-0.778-9.676,0.675l-7.493-15.936h-2.152c-0.117,0.152-0.232,0.303-0.365,0.447
		c-3.664,3.965-9.81,4.265-13.882,0.753l1.472-1.2h-1.832l-0.463,0.378c-0.111-0.122-0.207-0.252-0.312-0.378h-1.175
		c0.238,0.33,0.492,0.653,0.772,0.962l-27.566,22.511c-0.93-2.297-2.797-4.095-5.141-4.917l-2.627-18.556h-1.158l2.58,18.202
		c-0.592-0.115-1.198-0.177-1.828-0.162c-1.115,0.023-2.167,0.269-3.136,0.677l-5.788-18.717h-1.206l5.958,19.255
		c-0.092,0.054-0.186,0.1-0.269,0.153l-18.862-18.93l3.689-0.478h-8.993l-58.629,7.6l-12.688-7.6h-4.498l13.489,8.08L16.103,29.083
		c0.211-3.465-0.811-6.945-3.07-9.796l7.188-6.915c3.526,2.973,8.447,4.125,13.134,2.528c6.333-2.157,10.017-8.524,9.035-14.914
		H41.22c0.993,5.898-2.4,11.832-8.243,13.823c-4.241,1.444-8.708,0.43-11.927-2.236l2.531-2.436l0.269-0.257l8.105,1.924
		l5.678-7.007l-1.3-3.812H20.532l-0.231,0.286l2.678,7.848l-2.774,2.67c-1.31-1.306-2.374-2.881-3.008-4.748
		c-0.688-2.017-0.824-4.089-0.493-6.056h-1.164c-0.32,2.093-0.164,4.289,0.566,6.432c0.691,2.028,1.848,3.75,3.265,5.171
		l-7.091,6.829c-0.204-0.222-0.357-0.46-0.577-0.667c-3.259-3.09-7.571-4.314-11.699-3.782v1.239
		c3.824-0.538,7.836,0.566,10.854,3.426c0.204,0.192,0.354,0.423,0.542,0.63l-2.662,2.559L8.547,21.07l-8.542-1.705v16.958
		l3.767,0.75l-0.18,0.23l0.203,0.162l-0.373,3.75c-1.137,0.144-2.285,0.127-3.417-0.027v1.233c1.092,0.137,2.196,0.156,3.294,0.039
		L0.005,75.666v12.386L57.041,91.3c0.564,1.437,1.363,2.75,2.343,3.957l-35.004,38.199c-0.526-0.531-1.098-1.021-1.759-1.43
		c-3.284-2.05-7.299-1.881-10.376,0.047L0.005,121.781v1.507l11.281,9.485c-0.818,0.66-1.567,1.436-2.155,2.381
		c-2.616,4.21-1.633,9.604,2.079,12.684L0.005,160.061v1.697l12.114-13.221c0.054,0.039,0.092,0.084,0.146,0.115
		c0.461,0.284,0.944,0.499,1.428,0.699l1.234,11.225l-14.923,3.404v1.185l15.049-3.437l3.484,31.754l-0.015-0.009L0.005,174.887
		v3.458l9.979,10.013l-9.979-5.979v1.349l13.309,7.973l5.65,5.671l1.932,17.602l-20.892,0.802v1.146l21.015-0.805l0.425,3.871h1.161
		l-0.43-3.916l14.851-0.57l4.474,4.486h5.994l0.885-3.848l0.104-0.138l8.513-0.723l1.867,3.357
		c-0.511,0.368-0.999,0.769-1.482,1.177c-0.146,0.063-0.297,0.115-0.445,0.174h3.846v-2.603c-0.318,0.201-0.646,0.389-0.958,0.599
		l-1.825-3.289l2.783-0.106v-1.147l-2.271,0.087l2.324-4.496c0.077-0.749,0.282-1.952,0.792-3.396l-5.048-6.705l4.686-1.737
		c1.177,1.08,2.168,2.363,2.915,3.8c0.266-0.346,0.557-0.689,0.867-1.033c-0.681-1.193-1.513-2.288-2.476-3.251l29.315-10.866
		c3.96-1.86,8.073-3.806,12.019-5.679L61.689,195.81c-2.931-2.482-6.807-3.841-10.933-3.487
		c-6.941,0.584-12.327,5.839-13.453,12.399l-17.521-10.494l-3.596-32.761l44.992-10.256l7.798,2.105
		c-0.323,2.619,0.104,5.354,1.402,7.881c3.434,6.669,11.624,9.298,18.3,5.871c2.924-1.506,5.013-3.942,6.216-6.746l32.815,8.867
		c0.426-0.185,0.901-0.449,1.398-0.818l-33.752-9.117c1.106-3.342,0.929-7.105-0.807-10.486c-3.088-6.016-10.042-8.705-16.276-6.669
		l-4.687-41.572c4.399-0.799,8.298-3.55,10.499-7.683l1.072,0.062l52.156,29.655c-0.243-0.573-0.484-1.152-0.72-1.731l-48.85-27.778
		l26.878,1.528l1.241,0.162l13.819,11.617c-0.495-1.04-1.056-2.574-1.616-4.374l-7.958-6.689l6.373,0.827
		c-0.16-0.686-0.308-1.369-0.448-2.046l-7.907-0.449l-13.999-11.771l10.203-3.58c2.863,3.276,6.529,5.885,10.789,7.509
		c0.065-1.018,0.216-1.76,0.431-2.292c-3.433-1.375-6.429-3.464-8.857-6.047l9.553-3.357l1.327,1.354l-1.77-18.313
		c0,0-0.772-6.353,0.917-10.632L122,48.098l-4.156,17.41l7.514,7.676l-9.484,3.326c-4.983-5.854-7.229-13.906-5.313-21.942
		c2.891-12.091,14.193-19.983,26.21-19.028c0.176-0.705,0.411-1.466,0.74-2.275c-13.358-1.352-25.987,7.345-29.194,20.766
		c-2.024,8.49,0.181,16.972,5.224,23.303l-10.437,3.665L82.471,63.649c1.641-1.329,3.143-2.881,4.326-4.779
		c5.731-9.204,2.927-21.305-6.277-27.036s-21.297-2.919-27.036,6.277c-5.731,9.204-2.927,21.304,6.277,27.036
		c6.584,4.103,14.621,3.765,20.782-0.1l20.029,16.841l-14.778,5.186c0.542-6.423-3.068-12.708-9.377-15.189
		c-7.068-2.773-14.923,0.239-18.511,6.7l-48.529-38.2c1.021-0.637,2.001-1.359,2.866-2.273c2.132-2.244,3.373-5.002,3.78-7.853
		L179.826,9.024l32.552,19.499c1.349,4.064,4.571,7.437,8.985,8.759c1.833,0.553,3.691,0.684,5.478,0.477l0.051,4.471l-15.547,2.443
		l-0.59-0.303c0.34,0.757,0.659,1.62,0.952,2.586l1.187-0.186l14.133,7.229l0.502,44.584l-15.742-21.642
		c-0.08,0.53-0.163,1.066-0.251,1.611l15.472,21.267l-15.113-0.859c-0.098,0.382-0.201,0.761-0.306,1.137l15.968,0.913l0.131,11.694
		l-17.266-8.929c-0.282,0.772-0.577,1.491-0.881,2.15l18.176,9.399l0.159,14.221c-0.726-0.215-1.479-0.376-2.271-0.399
		c-2.115-0.085-4.067,0.592-5.67,1.729l-5.85-3.542l-8.132-17.759c-0.322-0.07-0.644-0.245-0.967-0.567c0,0-0.039,0.335-0.13,0.937
		l7.477,16.321l-9.94-6.026c-0.12,0.37-0.245,0.743-0.376,1.12l11.17,6.774l3.36,7.344c-0.088,0.269-0.195,0.53-0.262,0.815
		c-6.77-1.33-13.877,0.108-19.612,4.073l0.13,2.607c5.483-4.287,12.574-5.88,19.276-4.499c0,0.037,0.003,0.077,0.007,0.107
		l-19.147,7.098l0.061,1.209l19.163-7.101c0.4,2.559,1.871,4.771,3.946,6.178l-0.673,1.32l-14.558-1.252l-4.072,5.385
		c1.13,0.532,2.411,0.944,3.696,0.944c0,0-3.617,12.14,8.442,17.61c1.847,0.838,4.422,2.015,7.453,3.407l1.889-2.5l7.948,4.517
		c-0.062,0.085-0.112,0.177-0.172,0.255c-0.415,0.549-0.85,1.072-1.303,1.574c0.674,0.312,1.358,0.627,2.049,0.944
		c0.335-0.392,0.674-0.78,0.989-1.198c0.119-0.16,0.219-0.33,0.334-0.491l4.321,2.459l1.065,2.328
		c0.537,0.247,1.072,0.495,1.608,0.741l-0.961-2.094l15.554,8.842c5.601,2.59,10.194,4.718,12.568,5.817l-28.943-16.457
		l-2.705-5.916c4.087-8.866,2.743-19.315-3.379-26.875c1.877-1.613,3.126-3.957,3.219-6.63c0.068-1.897-0.446-3.688-1.379-5.194
		l14.501-5.369l34.028,46.78l2.173,19.507l-7.437,5.886l-4.961-2.821c1.226,0.896,2.582,2.061,3.749,3.455l0.236,0.134l-0.076,0.061
		c0.24,0.297,0.469,0.604,0.688,0.921l0.464-0.367l4.211,2.397l-3.07,1.347c0.195,0.726,0.325,1.476,0.325,2.263
		c0,0.088,0,0.168,0,0.254l5.387-2.364l1.845,1.045l1.48,13.358h2.321l-1.328-11.945l16.057,9.128l1.733,2.817h1.356l-1.007-1.635
		l2.876,1.635h2.332l-6.469-3.678L295.918,202.356z M46.385,219.681c-0.169-0.077-0.342-0.139-0.507-0.224l0.803-1.068
		L46.385,219.681z M47.31,215.632l-2.45,3.258c-1.499-0.922-2.801-2.121-3.85-3.543l6.101-0.238l0.246,0.332L47.31,215.632z
		 M50.864,193.589c3.496-0.299,6.768,0.792,9.373,2.759l-4.218,1.561l-0.545,0.198l0.146,0.392l-9.22,0.785l-4.299,8.313
		l-3.649-2.182C39.298,199.182,44.356,194.143,50.864,193.589z M38.383,206.72l3.154,1.89l0.5,0.292l0.177-0.292l4.056,5.386
		l-5.997,0.231c-1.029-1.729-1.736-3.681-1.917-5.817C38.306,207.834,38.36,207.281,38.383,206.72z M37.131,205.968
		c-0.073,0.836-0.115,1.682-0.042,2.541c0.149,1.775,0.657,3.428,1.36,4.956l-16.591-16.648L37.131,205.968z M35.925,214.396
		l-13.872,0.529l-1.782-16.241L35.925,214.396z M76.705,58.801l6.204-9.95l-5.686-11.724l-13.03,0.053l-6.823,10.948l5.686,11.724
		L74.573,59.8l-0.115,0.138l4.728,3.972c-5.577,3.258-12.695,3.473-18.542-0.177c-8.413-5.24-10.986-16.333-5.747-24.739
		c5.24-8.413,16.333-10.995,24.739-5.747c8.413,5.24,10.986,16.334,5.754,24.739c-1.141,1.829-2.596,3.326-4.206,4.586
		L76.705,58.801z M4.878,38.319l2.371,1.867c-0.857,0.383-1.74,0.691-2.647,0.891L4.878,38.319z M58.424,91.384l4.287,0.238
		l-2.463,2.689C59.53,93.397,58.892,92.436,58.424,91.384z M63.702,92.252l0.154-0.169l7.975,3.135l0.472,4.187
		c-2.105,0.215-4.275,0.008-6.373-0.814c-1.948-0.769-3.588-1.959-4.932-3.388L63.702,92.252z M24.573,134.947
		c1.238,1.637,1.852,3.642,1.794,5.662l-2.401-0.646l-0.48-0.131l-1.175-2.413L24.573,134.947z M22.183,132.733
		c0.615,0.385,1.149,0.845,1.633,1.337l-2.044,2.236l-0.795-1.637l-5.747,0.023l0.053-0.069l-2.358-1.982
		C15.711,131.021,19.264,130.912,22.183,132.733z M12.703,147.947c-0.007-0.009-0.016-0.016-0.023-0.016l0.764-0.838l0.142,1.29
		C13.29,148.238,12.987,148.122,12.703,147.947z M11.066,140.156l2.485,5.117l-0.196,0.215l-0.084,0.007l0.008,0.078l-1.509,1.65
		c-3.416-2.813-4.337-7.774-1.932-11.624c0.568-0.914,1.294-1.659,2.093-2.289l2.171,1.828l0.061,0.054L11.066,140.156z
		 M14.493,146.009l5.916-0.03l3.093-4.948l2.789,0.753c-0.185,1.138-0.588,2.259-1.233,3.296c-2.201,3.527-6.458,4.964-10.252,3.789
		L14.493,146.009z M16.064,160.323l-1.16-10.571c4.057,1.099,8.509-0.477,10.852-4.233c0.692-1.107,1.122-2.306,1.329-3.519
		l31.73,8.574L16.064,160.323z M63.579,150.665l6.665-1.521c-0.464,0.976-0.799,1.989-1.022,3.051L63.579,150.665z M93.527,149.289
		c1.598,3.112,1.74,6.584,0.699,9.658l-4.303-1.16l1.376-2.327l-4.088-7.944l-8.382-0.73l-0.054-0.223l-0.369-3.289
		C84.162,141.283,90.665,143.721,93.527,149.289z M86.705,163.219l2.608-4.402l4.456,1.199c-1.114,2.504-3,4.679-5.62,6.022
		c-6.1,3.136-13.614,0.723-16.749-5.369c-1.156-2.252-1.548-4.695-1.287-7.046l3.561,0.968l4.042,7.852L86.705,163.219z
		 M74.197,153.538l-3.856-1.045c0.265-1.29,0.691-2.535,1.345-3.681l6.135-1.396L74.197,153.538z M77.589,146.294l-4.955,1.129
		c1.083-1.414,2.458-2.643,4.145-3.511c0.168-0.085,0.345-0.123,0.519-0.2L77.589,146.294z M77.163,142.537
		c-0.303,0.123-0.615,0.199-0.915,0.354c-2.263,1.168-4.01,2.896-5.266,4.909l-9.77,2.228l-34.031-9.195
		c0.115-2.329-0.592-4.634-2.043-6.501l34.995-38.184c1.46,1.528,3.235,2.796,5.328,3.619c2.301,0.906,4.683,1.137,6.983,0.898
		L77.163,142.537z M73.444,99.259l-0.473-4.187l3.603-2.658l6.135,0.354C80.662,96.232,77.255,98.545,73.444,99.259z M78.031,91.345
		l1.779-1.313l-0.004,0.031l0.219,0.022l0.073,0.215l0.296-0.107l2.504,1.429L78.031,91.345z M83.719,90.762l-0.442-0.254
		l0.496,0.069C83.75,90.638,83.747,90.7,83.719,90.762z M84.089,89.455l-1.16-0.154l1.333-0.468
		C84.215,89.041,84.146,89.248,84.089,89.455z M85.702,88.326l15.892-5.577l12.635,10.618l-28.88-3.75
		C85.464,89.187,85.625,88.764,85.702,88.326z M84.876,91.3c0.073-0.184,0.092-0.376,0.158-0.561l13.745,1.782l-13.292-0.753
		l-0.657-0.376C84.842,91.361,84.865,91.33,84.876,91.3z M75.948,73.068c5.951,2.336,9.304,8.397,8.547,14.467l-3.991,1.398
		l-0.204-0.116l-1.702-9.027l-9.166-3.596l-7.521,5.54l-2.993-2.351C62.155,73.352,69.429,70.501,75.948,73.068z M58.178,80.82
		c0.054-0.138,0.142-0.253,0.2-0.392l3.149,2.473l0.042-0.054l1.448,7.637l-4.998-0.284C57.014,87.243,56.948,83.947,58.178,80.82z
		 M57.364,79.629c-0.111,0.246-0.269,0.461-0.369,0.722c-1.279,3.258-1.279,6.669-0.338,9.773L0.053,86.905l4.425-44.584
		c1.318-0.253,2.59-0.707,3.807-1.321L57.364,79.629z M11.359,37.273c-0.903,0.953-1.936,1.675-3.02,2.297l-3.327-2.62l0.023-0.262
		l-0.126-0.015l5.497-5.793l0.015,0.1l4.356-0.561C14.358,32.909,13.221,35.306,11.359,37.273z M14.87,29.244l-4.026,0.522
		l-0.069,0.008l-1.706-6.669l3.084-2.973C14.216,22.791,15.119,26.033,14.87,29.244z M295.603,201.841l-0.8-1.299l4.987-2.189
		C298.999,200.067,297.463,201.365,295.603,201.841z M300.359,195.441l-2.429,1.067v-3.057l-3.356-2.112l0.275-0.2l-0.176-0.246
		l0.321-1.398C297.947,189.941,300.22,192.406,300.359,195.441z M339.441,150.435l-43.331,34.259l7.913-34.098L339.441,150.435z
		 M303.371,148.299l-4.525,0.016c0.438-1.445,0.76-2.936,0.83-4.518c0.184-4.242-1.13-8.159-3.389-11.387l10.795-17.556
		c1.006,1.107,2.136,2.053,3.41,2.76L303.371,148.299z M228.719,102.178l12.896,17.724l-12.769-6.6L228.719,102.178z
		 M228.881,133.839l-0.061,0.023l-0.017-0.023H228.881z M227.967,35.168l-0.034-2.82l5.734-5.009l3.238,1.167
		c-1.321,3.619-4.157,6.285-7.583,7.476L227.967,35.168z M233.513,41.184l-5.47,0.86l-0.05-4.164L233.513,41.184z M228.93,145.909
		c-1.206,0.591-2.547,0.93-3.98,0.876c-0.744-0.022-1.451-0.176-2.131-0.392l-0.78-1.698l0.515-1.007l0.119-0.237l3.853,0.138
		C227.387,144.319,228.201,145.087,228.93,145.909z M274.844,88.672c-0.577,2.267-0.63,4.703,0.068,7.107
		c0.854,2.95,2.65,5.339,4.924,7.053l-51.141-2.912l-0.515-45.329l44.642,22.841c-0.022,0.369-0.061,0.738-0.061,1.107
		C272.762,82.142,273.508,85.568,274.844,88.672z M312.197,97.592c-1.958,1.413-4.141,2.542-6.482,3.311
		c0.783-1.844,1.988-3.496,3.596-4.794L312.197,97.592z M310.385,95.364c0.444-0.284,0.868-0.592,1.352-0.822
		c1.605-0.769,3.304-1.145,4.979-1.199c-1.036,1.275-2.205,2.443-3.488,3.473L310.385,95.364z M305.5,105.444l-0.792,0.292
		c0-0.107,0.016-0.223,0.016-0.338L305.5,105.444z M304.784,104.245c0.039-0.292,0.101-0.576,0.154-0.861
		c0.245-0.069,0.498-0.123,0.744-0.199l1.322,1.191L304.784,104.245z M308.372,105.613l0.345,0.315l0.501,1.037l-2.951,4.794
		c-0.122-0.216-0.276-0.407-0.392-0.638c-0.645-1.352-0.976-2.766-1.114-4.172L308.372,105.613z M308.71,104.36l-0.085-0.069v-0.008
		l-1.675-1.514c1.322-0.461,2.605-1.006,3.819-1.675L308.71,104.36z M304.569,100.627L300.551,97
		c0.346-0.883,0.615-1.79,0.775-2.735l1.967-1.237l4.926,2.521C306.596,96.962,305.36,98.691,304.569,100.627z M303.748,101.441
		c-1.707,0.392-3.466,0.615-5.287,0.615c-0.454,0-0.898-0.039-1.344-0.069c1.214-1.114,2.212-2.413,2.95-3.872L303.748,101.441z
		 M303.67,103.708c-0.023,0.153-0.023,0.315-0.038,0.476l-2.228-0.131C302.164,103.969,302.925,103.861,303.67,103.708z
		 M299.644,96.186l-0.561-0.515l0.876-0.545C299.867,95.479,299.774,95.84,299.644,96.186z M299.161,97.308
		c-0.839,1.767-2.067,3.333-3.643,4.541c-1.667-0.208-3.266-0.592-4.802-1.129l5.44-6.108l0.076,0.053L299.161,97.308z
		 M292.5,103.515c-0.023,0.007-0.047,0.023-0.078,0.03l-10.286-0.584c-2.858-1.528-5.133-4.141-6.109-7.498
		c-0.491-1.713-0.59-3.442-0.368-5.102c1.536,2.943,3.612,5.555,6.116,7.691l0.1,0.361l0.491,0.146
		C285.284,100.91,288.734,102.616,292.5,103.515z M284.025,81.873l-1.767-0.907c0.552-0.292,1.16-0.508,1.767-0.714V81.873z
		 M284.025,83.171v1.467l-4.633,5.202l1.121,3.857c-1.644-1.944-2.974-4.156-3.917-6.562c0.943-2.197,2.495-4.095,4.531-5.447
		L284.025,83.171z M276.019,85.56c-0.699-2.221-1.076-4.579-1.076-7.022c0,0,0-0.008,0-0.015l5.01,2.558
		C278.316,82.288,276.965,83.801,276.019,85.56z M229.365,101.111l52.502,2.989c2.957,1.49,6.452,1.951,9.888,0.953
		c0.307-0.085,0.568-0.238,0.859-0.338l10.955,0.623c-0.007,0.276-0.053,0.553-0.036,0.837l-51.531,19.099l-8.112-4.194
		L229.365,101.111z M303.655,107.357c0.176,1.444,0.515,2.881,1.175,4.264c0.215,0.446,0.5,0.83,0.761,1.245l-10.817,17.578
		c-3.188-3.45-7.676-5.7-12.746-5.924c-6.591-0.283-12.492,2.951-15.98,8.006l-12.661-6.537L303.655,107.357z M295.403,133.847
		c1.836,2.843,2.866,6.246,2.704,9.881c-0.068,1.613-0.438,3.135-0.929,4.595l-5.801,0.03l0.423-9.688l0.461,0.283L295.403,133.847z
		 M311.707,112.389l-0.945,4.072c-1.146-0.685-2.158-1.591-3.059-2.628l2.697-4.387l1.422,2.974L311.707,112.389z M311.829,116.96
		l0.868-3.741l0.016-0.068l4.61,0.537l4.08,3.68C318.19,118.558,314.772,118.343,311.829,116.96z M328.324,100.396
		c2.935,6.139,0.354,13.5-5.716,16.503l-3.311-2.979l1.797,0.206l4.817-7.621l-3.849-8.06l-4.563-0.53l2.558-4.172
		C323.547,94.611,326.657,96.908,328.324,100.396z M298.461,55.021c12.97,0,23.518,10.548,23.518,23.518
		c0,5.116-1.66,9.842-4.44,13.707c-2.105-0.078-4.264,0.284-6.301,1.259c-0.736,0.354-1.405,0.784-2.051,1.245l-4.755-2.436
		l8.466-5.332V70.095l-14.437-9.074l-13.337,8.389l-6.301-3.772C283.034,59.254,290.263,55.021,298.461,55.021z M277.648,67.621
		l5.785,3.465l0.592,0.361v7.567c-1.068,0.324-2.045,0.792-2.967,1.337l-6.046-3.096C275.196,73.798,276.119,70.532,277.648,67.621z
		 M275.766,66.499c-1.561,2.927-2.566,6.2-2.882,9.673l-44.714-22.888l-0.104-8.904l8.532-1.345L275.766,66.499z M237.075,40.623
		l-6.526-3.903c3.359-1.429,6.104-4.172,7.44-7.822l17.448,6.293c0.224,0.844,0.561,1.636,0.967,2.389L237.075,40.623z
		 M260.868,28.277l-1.137,0.776l0.254,6.554l-3.781-1.368c-0.092-0.468-0.184-0.944-0.206-1.436
		c-0.154-3.934,2.013-7.399,5.255-9.166c-0.377,0.999-0.583,2.075-0.562,3.211C260.708,27.339,260.776,27.808,260.868,28.277z
		 M261.053,36.851l-0.684,0.107l0.145-0.415L261.053,36.851z M257.395,37.427c-0.338-0.576-0.614-1.191-0.836-1.836l3.787,1.368
		L257.395,37.427z M275.766,34.531l-3.497,0.553l-0.015-0.323c1.498-0.537,2.781-1.467,3.765-2.673
		C276.043,32.932,275.943,33.739,275.766,34.531z M325.066,34.108c-0.821-1.529-1.282-3.15-1.428-4.778l3.979-0.623l3.796,7.045
		l5.894,0.4c0.368,1.406,0.86,2.781,1.452,4.125C333.449,41.476,327.779,39.117,325.066,34.108z M339.649,16.314
		c-0.723,1.337-1.306,2.728-1.783,4.149l-5.585-0.376l-1.467-3.12C333.679,15.638,336.806,15.446,339.649,16.314z M331.282,20.647
		l-3.196,5.647l-4.44,0.699c0.385-3.857,2.575-7.445,6.147-9.52L331.282,20.647z M277.717,24.635l27.981-22.845
		c4.448,3.95,11.248,3.654,15.305-0.726c0.254-0.276,0.438-0.584,0.66-0.875l7.629,16.234c-4.048,2.32-6.461,6.399-6.799,10.756
		l-45.72,7.199c0.145-0.776,0.215-1.567,0.184-2.39c-0.016-0.361-0.101-0.699-0.146-1.044c0.752-1.314,1.198-2.828,1.158-4.449
		C277.963,25.856,277.863,25.235,277.717,24.635z M277.241,26.51c0.022,1.137-0.207,2.22-0.623,3.204
		c-0.276-1.114-0.761-2.128-1.352-3.073l1.813-1.483C277.165,25.603,277.233,26.049,277.241,26.51z M276.726,23.959l-2.082,1.698
		l-2.229-3.38l0.3-0.039l-0.408-2.896C274.36,20.179,275.958,21.862,276.726,23.959z M272.269,31.472l2.405-4.002
		c0.623,1.091,1.037,2.297,1.214,3.603c-0.884,1.314-2.159,2.336-3.664,2.927l-0.092-2.528H272.269z M269.174,18.757
		c0.669-0.015,1.307,0.085,1.921,0.223l0.399,2.789l-2.874,0.062c-0.56-0.138-1.128-0.231-1.713-0.277l-0.669-2.151
		C267.145,19.01,268.129,18.781,269.174,18.757z M266.301,39.87l2.873-1.967l5.692-0.892c-1.613,3.081-4.747,5.271-8.466,5.417
		c-2.881,0.107-5.509-1.037-7.414-2.92l5.256-0.829L266.301,39.87z M265.969,22.414L266,22.53l-2.273,3.788l-2.182,1.498
		c-0.047-0.331-0.115-0.653-0.123-0.991c-0.023-1.322,0.315-2.566,0.868-3.673c1.045-0.423,2.151-0.707,3.335-0.753
		C265.74,22.392,265.855,22.414,265.969,22.414z M265.217,21.523c-0.736,0.054-1.452,0.177-2.144,0.369
		c0.362-0.468,0.777-0.899,1.23-1.283L265.217,21.523z M212.244,20.371c-0.511,1.698-0.646,3.419-0.495,5.086L183.521,8.547
		l60.898-7.894l19.368,19.441c-0.744,0.63-1.392,1.368-1.882,2.213c-4.148,1.69-7.016,5.793-6.839,10.534
		c0.017,0.361,0.101,0.691,0.146,1.044l-16.856-6.077c1.913-7.084-2.12-14.444-9.196-16.564
		C221.97,9.092,214.394,13.172,212.244,20.371z M221.693,36.175c-3.519-1.053-6.184-3.558-7.64-6.646l11.861,7.106
		C224.525,36.705,223.102,36.597,221.693,36.175z M220.871,30.92l5.913,1.775l0.019,1.782L220.871,30.92z M214.833,46.462
		l12.085-1.905l0.093,8.136L214.833,46.462z M223.177,15.669l-6.792,5.931l2.205,7.952l-5.56-3.326
		c-0.292-1.798-0.236-3.672,0.319-5.532c1.967-6.569,8.913-10.315,15.488-8.344c6.424,1.921,10.119,8.613,8.429,15.066l-3.312-1.198
		l-2.22-7.99L223.177,15.669z M225.581,129.922c0.811,0.03,1.571,0.207,2.305,0.452l0.03,2.896l-4.823-0.185l0.13-0.215l-2.57-1.559
		C222.07,130.382,223.764,129.853,225.581,129.922z M219.673,132.065l2.432,1.477l-2.478,3.632c-0.398-0.13-0.799-0.245-1.202-0.36
		l-0.857-1.875C218.059,133.832,218.781,132.856,219.673,132.065z M221.697,142.835l-0.27,0.53l-1.767-3.855
		c0.055,0.021,0.108,0.045,0.157,0.068L221.697,142.835z M214.936,129.192l4.021,2.442c-0.729,0.684-1.324,1.507-1.801,2.397
		L214.936,129.192z M216.926,139.502l1.253-0.469l2.581,5.639l-0.299,0.601C218.562,143.95,217.249,141.877,216.926,139.502z
		 M230.883,174.445l-7.895-4.494l4.921-6.508l-6.047-15.95l-1.19-0.1l0.427-0.839c0.214,0.108,0.434,0.201,0.657,0.292
		l11.039,24.109C232.264,172.154,231.628,173.314,230.883,174.445z M235.63,177.141l-2.85-1.622c0.43-0.653,0.826-1.321,1.191-2.005
		L235.63,177.141z M233.397,169.503l-10.148-22.164c0.542,0.115,1.095,0.207,1.672,0.229c1.632,0.063,3.157-0.346,4.513-1.036
		C234.723,152.955,236.214,161.744,233.397,169.503z M233.693,138.665c-0.087,2.435-1.218,4.57-2.923,6.046
		c-0.618-0.714-1.275-1.414-1.986-2.067l2.766-4.056l-2.146-3.71l2.938-1.092C233.252,135.192,233.763,136.875,233.693,138.665z
		 M229.042,130.827c0.983,0.5,1.852,1.184,2.566,2.006l-2.532,0.938L229.042,130.827z M232.373,132.549
		c-0.898-1.099-2.024-2.005-3.338-2.597l-0.161-14.03l15.775,8.153l2.244,3.088L232.373,132.549z M246.931,125.25l2.137,1.106
		l-1.053,0.392L246.931,125.25z M248.721,127.717l1.729-0.639l14.398,7.438c-1.198,2.313-1.967,4.886-2.09,7.659
		c-0.093,2.067,0.246,4.042,0.791,5.931L248.721,127.717z M264.325,142.238c0.108-2.536,0.815-4.888,1.913-7l4.811,2.482
		l-0.47,10.871l8.798,6.092l0.568,5.109C270.894,159.117,263.919,151.373,264.325,142.238z M270.941,158.264
		c2.65,1.79,5.77,2.934,9.188,3.134l1.244,11.21L270.941,158.264z M272.316,135.768l-4.887-2.52
		c3.211-4.541,8.566-7.422,14.521-7.161c4.795,0.208,9.02,2.42,11.955,5.778l-2.989,4.855l-9.15-6.323L272.316,135.768z
		 M281.727,154.96l8.444-4.794v0.499l6.084-0.03c-2.666,5.2-7.921,8.758-13.99,9.135L281.727,154.96z M282.435,161.322
		c6.891-0.461,12.814-4.641,15.571-10.695l4.826-0.023l-8.175,35.242l-2.319,1.829l-8.229-11.302L282.435,161.322z M291.953,199.128
		l-2.389,1.054c-1.137-1.146-1.844-2.72-1.844-4.457c0-1.65,0.652-3.149,1.697-4.278l1.507-1.19
		c0.445-0.254,0.922-0.454,1.429-0.601l1.075,1.476l-0.076,0.307h0.008l-3.197,2.014V198L291.953,199.128z M293.221,188.896
		l-0.208-0.292l1.222-0.968l-0.269,1.183C293.713,188.819,293.467,188.865,293.221,188.896z M293.82,189.417l-0.053,0.231
		l-0.146-0.208C293.69,189.434,293.752,189.426,293.82,189.417z M293.744,201.012l0.621,1.014c-0.106,0-0.206,0.03-0.321,0.03
		c-0.677,0-1.313-0.139-1.921-0.33L293.744,201.012z M281.989,203.5l-4.548-2.589l6.506-5.14l0.73,6.554L281.989,203.5z
		 M284.639,205.006l0.322-0.146l0.039,0.354L284.639,205.006z M284.371,178.678l7.061,9.711l-5.501,4.348L284.371,178.678z
		 M286.084,194.081l1.806-1.42c-0.469,0.928-0.753,1.958-0.753,3.063c0,1.821,0.723,3.466,1.866,4.702l-2.112,0.922L286.084,194.081
		z M287.474,206.619l-0.3-2.728l4.142-1.813c0.837,0.361,1.759,0.562,2.728,0.562c0.229,0,0.444-0.047,0.66-0.063l7.729,12.547
		L287.474,206.619z"/>
	<path fill="#FFFFFF" d="M277.93,207.948c0-0.086,0-0.166,0-0.254c0-0.787-0.13-1.537-0.325-2.263
		c-0.329-1.22-0.896-2.349-1.604-3.377c-0.219-0.316-0.447-0.624-0.688-0.921c-0.053-0.065-0.105-0.13-0.16-0.194
		c-1.167-1.395-2.523-2.56-3.749-3.455c-1.844-1.349-3.363-2.098-3.363-2.098s-0.637-0.294-1.754-0.813
		c-2.374-1.1-6.968-3.228-12.568-5.817c-4.444-2.058-9.515-4.401-14.593-6.748c-0.536-0.246-1.071-0.494-1.608-0.741
		c-2.267-1.047-4.521-2.088-6.71-3.098c-0.69-0.317-1.375-0.633-2.049-0.944c-3.006-1.385-5.84-2.689-8.362-3.846
		c-3.031-1.393-5.606-2.569-7.453-3.407c-12.06-5.471-8.442-17.61-8.442-17.61c-1.285,0-2.566-0.412-3.696-0.944
		c-2.123-1.001-3.702-2.439-3.702-2.439l-0.104-2.091l-0.061-1.209l-0.136-2.706l-0.13-2.607l-0.374-7.471
		c2.563-3.611,4.406-7.738,5.718-11.536c0.131-0.377,0.256-0.75,0.376-1.12c1.492-4.597,2.199-8.56,2.464-10.294
		c0.091-0.602,0.13-0.937,0.13-0.937c0.323,0.322,0.645,0.497,0.967,0.567c1.252,0.272,2.483-1.248,3.588-3.647
		c0.304-0.659,0.599-1.378,0.881-2.15c0.417-1.144,0.809-2.391,1.167-3.678c0.104-0.376,0.208-0.755,0.306-1.137
		c1.188-4.579,1.938-9.422,1.938-11.828c0-5.873-2.818-5.471-2.818-5.471c0.19-1.068,0.357-2.092,0.521-3.109
		c0.088-0.545,0.171-1.081,0.251-1.611c2.312-15.253,1.6-24.449-0.079-29.986c-0.293-0.966-0.612-1.83-0.952-2.586
		c-2.539-5.643-6.091-5.816-6.091-5.816c0-8.15-13.469-15.089-26.831-16.238c-0.329-0.028-0.658-0.056-0.985-0.076
		c-0.947-0.062-1.893-0.094-2.829-0.094c-0.449,0-0.855-0.013-1.284-0.02c-4.523-0.07-7.9-0.489-10.373-1.022
		c-1.577-0.34-2.804-0.721-3.724-1.085c-0.326-0.128-0.606-0.252-0.862-0.373c-1.234-0.583-1.692-1.039-1.692-1.039
		c0,0.855,0.478,1.644,1.081,2.302c0.231,0.252,0.479,0.485,0.728,0.694c0.871,0.735,1.73,1.186,1.73,1.186
		c-0.731,0-1.419-0.048-2.067-0.123c-0.32-0.037-0.632-0.079-0.929-0.128c-2.807-0.47-4.563-1.438-4.563-1.438
		c0.722,0.967,2.975,2.657,2.975,2.657s-7.803-1.93-13.591,3.779c-2.065,2.036-3.226,3.986-3.937,5.729
		c-0.33,0.809-0.564,1.57-0.74,2.275c-0.509,2.037-0.561,3.592-1.196,4.342c-1.326,1.566-4.584,0.722-7.72,4.583
		c-0.471,0.58-0.837,1.279-1.136,2.035c-1.689,4.28-0.917,10.632-0.917,10.632l1.77,18.313l0.644,6.662
		c-0.978,0-2.064-0.104-2.667,1.388c-0.215,0.532-0.366,1.274-0.431,2.292c-0.022,0.351-0.037,0.722-0.037,1.143
		c0,1.794,0.382,4.393,0.951,7.147c0.14,0.677,0.288,1.36,0.448,2.046c0.476,2.039,1.027,4.072,1.585,5.862
		c0.56,1.8,1.121,3.334,1.616,4.374c0.077,0.162,0.154,0.332,0.228,0.468c1.807,3.37,3.578,3.227,3.578,3.227
		c0,2.408,1.413,6.604,3.107,10.776c0.236,0.579,0.477,1.158,0.72,1.731c2.392,5.636,5.02,10.759,5.02,10.759
		s-0.581,12.523-0.581,14.811c0,2.286-7.463,4.31-7.463,4.31c0,9.988-2.816,14.174-5.181,15.932
		c-0.497,0.369-0.972,0.634-1.398,0.818c-1.041,0.455-1.785,0.458-1.785,0.458s-10.25,4.927-22.022,10.516
		c-3.946,1.873-8.059,3.818-12.019,5.679c-7.998,3.761-15.357,7.17-19.361,8.901c-3.381,1.462-5.764,3.314-7.478,5.216
		c-0.31,0.344-0.601,0.688-0.867,1.033c-1.257,1.629-2.057,3.242-2.552,4.643c-0.51,1.443-0.715,2.646-0.792,3.396
		c-0.054,0.52-0.053,0.834-0.053,0.834v3.575v1.147v2.797v2.603h217.15c0,0,0-0.436,0-1.233
		C277.93,216.904,277.93,213.069,277.93,207.948z"/>
</g>
</svg>
