<?xml version="1.0" encoding="utf-8"?>
<!-- Generator: Adobe Illustrator 15.0.2, SVG Export Plug-In . SVG Version: 6.00 Build 0)  -->
<!DOCTYPE svg PUBLIC "-//W3C//DTD SVG 1.1//EN" "http://www.w3.org/Graphics/SVG/1.1/DTD/svg11.dtd">
<svg version="1.1" id="Calque_1" xmlns="http://www.w3.org/2000/svg" xmlns:xlink="http://www.w3.org/1999/xlink" x="0px" y="0px"
	 width="205px" height="205px" viewBox="0 0 205 205" enable-background="new 0 0 205 205" xml:space="preserve">
<g>
	<path fill="#FFFBFF" d="M102.845,67.189H34.461c-2.541,0-4.621,2.085-4.621,4.626v58.681c0,2.546,2.08,4.623,4.621,4.623h46.82
		l14.401,19.402v-19.402h7.164c2.543,0,4.621-2.077,4.621-4.623V71.815C107.466,69.274,105.389,67.189,102.845,67.189z"/>
	<path opacity="0.25" fill="#FFFBFF" d="M102.151,48.479h68.384c2.546,0,4.626,2.079,4.626,4.619v58.679
		c0,2.547-2.08,4.627-4.626,4.627h-5.245l-14.397,19.401v-19.401h-48.742c-2.543,0-4.621-2.08-4.621-4.627V53.098
		C97.53,50.558,99.607,48.479,102.151,48.479z"/>
</g>
</svg>
