<?xml version="1.0" encoding="utf-8"?>
<!-- Generator: Adobe Illustrator 15.0.2, SVG Export Plug-In . SVG Version: 6.00 Build 0)  -->
<!DOCTYPE svg PUBLIC "-//W3C//DTD SVG 1.1//EN" "http://www.w3.org/Graphics/SVG/1.1/DTD/svg11.dtd">
<svg version="1.1" id="Calque_1" xmlns="http://www.w3.org/2000/svg" xmlns:xlink="http://www.w3.org/1999/xlink" x="0px" y="0px"
	 width="92px" height="56px" viewBox="0 0 92 56" enable-background="new 0 0 92 56" xml:space="preserve">
<g>
	<path fill="#FFFBFF" d="M46.111,16.999H24.186c-0.814,0-1.481,0.668-1.481,1.483v18.814c0,0.816,0.667,1.482,1.481,1.482h15.012
		L43.814,45v-6.221h2.297c0.815,0,1.481-0.666,1.481-1.482V18.482C47.593,17.667,46.927,16.999,46.111,16.999z"/>
	<path opacity="0.25" fill="#FFFBFF" d="M45.889,11h21.926c0.816,0,1.483,0.667,1.483,1.481v18.814c0,0.816-0.667,1.483-1.483,1.483
		h-1.682l-4.616,6.221v-6.221H45.889c-0.815,0-1.481-0.667-1.481-1.483V12.481C44.407,11.667,45.073,11,45.889,11z"/>
</g>
</svg>
