<?xml version="1.0" encoding="utf-8"?>
<!-- Generator: Adobe Illustrator 15.0.2, SVG Export Plug-In . SVG Version: 6.00 Build 0)  -->
<!DOCTYPE svg PUBLIC "-//W3C//DTD SVG 1.1//EN" "http://www.w3.org/Graphics/SVG/1.1/DTD/svg11.dtd">
<svg version="1.1" id="Calque_1" xmlns="http://www.w3.org/2000/svg" xmlns:xlink="http://www.w3.org/1999/xlink" x="0px" y="0px"
	 width="80px" height="80px" viewBox="0 0 80 80" enable-background="new 0 0 80 80" xml:space="preserve">
<g>
	<path fill="#FFFBFF" d="M40.141,25.833H11.908c-1.048,0-1.907,0.86-1.907,1.91v24.228c0,1.05,0.859,1.908,1.907,1.908h19.33
		l5.945,8.013v-8.011h2.958c1.049,0,1.907-0.857,1.907-1.909V27.743C42.048,26.693,41.192,25.833,40.141,25.833z"/>
	<path opacity="0.25" fill="#FFFBFF" enable-background="new    " d="M39.855,18.108H68.09c1.052,0,1.91,0.86,1.91,1.907v24.229
		c0,1.051-0.858,1.909-1.91,1.909h-2.165l-5.944,8.012v-8.013H39.855c-1.049,0-1.907-0.858-1.907-1.909V20.016
		C37.948,18.967,38.804,18.108,39.855,18.108z"/>
</g>
</svg>
