<?xml version="1.0" encoding="utf-8"?>
<!-- Generator: Adobe Illustrator 15.0.2, SVG Export Plug-In . SVG Version: 6.00 Build 0)  -->
<!DOCTYPE svg PUBLIC "-//W3C//DTD SVG 1.1//EN" "http://www.w3.org/Graphics/SVG/1.1/DTD/svg11.dtd">
<svg version="1.1" id="Calque_1" xmlns="http://www.w3.org/2000/svg" xmlns:xlink="http://www.w3.org/1999/xlink" x="0px" y="0px"
	 width="80px" height="80px" viewBox="0 0 80 80" enable-background="new 0 0 80 80" xml:space="preserve">
<g>
	<path fill="#FFFBFF" d="M40.111,13.999H18.186c-0.814,0-1.481,0.668-1.481,1.483v18.814c0,0.815,0.667,1.481,1.481,1.481h15.012
		L37.814,42v-6.221h2.297c0.815,0,1.481-0.666,1.481-1.482V15.482C41.593,14.667,40.927,13.999,40.111,13.999z"/>
	<path opacity="0.25" fill="#FFFBFF" enable-background="new    " d="M39.889,8h21.925c0.816,0,1.483,0.667,1.483,1.481v18.814
		c0,0.816-0.667,1.482-1.483,1.482h-1.682l-4.615,6.222v-6.222H39.889c-0.815,0-1.481-0.666-1.481-1.482V9.481
		C38.407,8.667,39.073,8,39.889,8z"/>
</g>
</svg>
