<?xml version="1.0" encoding="utf-8"?>
<!-- Generator: Adobe Illustrator 15.0.2, SVG Export Plug-In . SVG Version: 6.00 Build 0)  -->
<!DOCTYPE svg PUBLIC "-//W3C//DTD SVG 1.1//EN" "http://www.w3.org/Graphics/SVG/1.1/DTD/svg11.dtd">
<svg version="1.1" id="Calque_1" xmlns="http://www.w3.org/2000/svg" xmlns:xlink="http://www.w3.org/1999/xlink" x="0px" y="0px"
	 width="27.221px" height="18.047px" viewBox="0 0 27.221 18.047" enable-background="new 0 0 27.221 18.047" xml:space="preserve">
<g id="Calque_1_1_">
</g>
<g display="none">
	<polyline display="inline" fill="none" stroke="#42608C" stroke-miterlimit="10" points="450.756,551.547 446.219,547.01 
		441.682,551.547 437.145,547.01 432.615,551.547 428.073,547.01 423.537,551.547 419,547.01 414.463,551.547 	"/>
	<polyline display="inline" fill="none" stroke="#42608C" stroke-miterlimit="10" points="450.756,545.547 446.219,541.01 
		441.682,545.547 437.145,541.01 432.615,545.547 428.073,541.01 423.537,545.547 419,541.01 414.463,545.547 	"/>
	<polyline display="inline" fill="none" stroke="#42608C" stroke-miterlimit="10" points="450.756,539.547 446.219,535.01 
		441.682,539.547 437.145,535.01 432.615,539.547 428.073,535.01 423.537,539.547 419,535.01 414.463,539.547 	"/>
	<polyline display="inline" fill="none" stroke="#42608C" stroke-miterlimit="10" points="450.756,533.547 446.219,529.01 
		441.682,533.547 437.145,529.01 432.615,533.547 428.073,529.01 423.537,533.547 419,529.01 414.463,533.547 	"/>
</g>
<path opacity="0.02" fill="#2D2D2D" enable-background="new    " d="M23.186-3.452h-1h-3.537h-1h-3.537h-1H9.574h-1H5.037h-1H-0.5
	v4.537v1v3.438v1.099v3.438v1v3.537v1v4.536h4.537h1h3.537h1h3.536h1h3.537h1h3.537h1h4.537v-4.536v-1v-3.537v-1V6.622V5.523V2.085
	v-1v-4.537H23.186z M18.649-2.452h3.537v3.537h-3.537V-2.452z M22.186,5.523h-3.537V2.085h3.537V5.523z M22.186,10.061h-3.537V6.622
	h3.537V10.061z M22.186,14.598h-3.537v-3.537h3.537V14.598z M5.037,11.061h3.537v3.537H5.037V11.061z M5.037,6.622h3.537v3.438
	H5.037V6.622z M5.037,2.085h3.537v3.438H5.037V2.085z M17.649,5.523h-3.537V2.085h3.537V5.523z M17.649,10.061h-3.537V6.622h3.537
	V10.061z M9.574,6.622h3.536v3.438H9.574V6.622z M13.112,5.523H9.574V2.085h3.536L13.112,5.523L13.112,5.523z M9.574,11.061h3.536
	v3.537H9.574V11.061z M14.112,11.061h3.537v3.537h-3.537V11.061z M14.112-2.452h3.537v3.537h-3.537V-2.452z M9.574-2.452h3.536
	v3.537H9.574V-2.452z M5.037-2.452h3.537v3.537H5.037V-2.452z M0.5-2.452h3.537v3.537H0.5V-2.452z M0.5,2.085h3.537v3.438H0.5V2.085
	z M0.5,6.622h3.537v3.438H0.5V6.622z M0.5,11.061h3.537v3.537H0.5V11.061z M4.037,19.135H0.5v-3.537h3.537V19.135z M8.574,19.135
	H5.037v-3.537h3.537V19.135z M13.112,19.135H9.574v-3.537h3.536L13.112,19.135L13.112,19.135z M17.649,19.135h-3.537v-3.537h3.537
	V19.135z M22.186,19.135h-3.537v-3.537h3.537V19.135z M26.723,19.135h-3.537v-3.537h3.537V19.135z M26.723,14.598h-3.537v-3.537
	h3.537V14.598z M26.723,10.061h-3.537V6.622h3.537V10.061z M26.723,5.523h-3.537V2.085h3.537V5.523z M23.186,1.085v-3.537h3.537
	v3.537H23.186z"/>
</svg>
