<?xml version="1.0" encoding="utf-8"?>
<!-- Generator: Adobe Illustrator 15.0.2, SVG Export Plug-In . SVG Version: 6.00 Build 0)  -->
<!DOCTYPE svg PUBLIC "-//W3C//DTD SVG 1.1//EN" "http://www.w3.org/Graphics/SVG/1.1/DTD/svg11.dtd">
<svg version="1.1" id="Calque_1" xmlns="http://www.w3.org/2000/svg" xmlns:xlink="http://www.w3.org/1999/xlink" x="0px" y="0px"
	 width="80px" height="28px" viewBox="0 0 80 28" enable-background="new 0 0 80 28" xml:space="preserve">
<g id="Effet_NoPatch">
	
		<linearGradient id="SVGID_1_" gradientUnits="userSpaceOnUse" x1="674.5918" y1="-1186.5669" x2="721.3809" y2="-1186.5669" gradientTransform="matrix(1 0 0 -1 -651.5205 -1176.8555)">
		<stop  offset="0" style="stop-color:#0098C9"/>
		<stop  offset="0.0554" style="stop-color:#32ABD2"/>
		<stop  offset="0.1239" style="stop-color:#69C0DD"/>
		<stop  offset="0.1907" style="stop-color:#97D2E6"/>
		<stop  offset="0.2542" style="stop-color:#BBDFEC"/>
		<stop  offset="0.3136" style="stop-color:#D4E9F1"/>
		<stop  offset="0.3672" style="stop-color:#E4EFF4"/>
		<stop  offset="0.41" style="stop-color:#E9F1F5"/>
		<stop  offset="0.4693" style="stop-color:#E3EFF4"/>
		<stop  offset="0.547" style="stop-color:#D3E9F1"/>
		<stop  offset="0.6349" style="stop-color:#B8DEEC"/>
		<stop  offset="0.7303" style="stop-color:#92D0E5"/>
		<stop  offset="0.8318" style="stop-color:#61BEDC"/>
		<stop  offset="0.9367" style="stop-color:#27A8D1"/>
		<stop  offset="1" style="stop-color:#0099CA"/>
	</linearGradient>
	<path fill="url(#SVGID_1_)" d="M23.072,12.906c0,0,19.605-11.518,35.071-10.526c16.104,1.033,11.053,13.972,10.672,14.724
		c0,0,0.509-9.649-10.672-11.153C43.146,4.448,23.072,12.906,23.072,12.906z"/>
</g>
<g id="Calque_1_1_">
	<g>
		<path fill="#00CC00" d="M9.545,14.854l2.467,7.567l2.64-7.567h1.945l2.397,7.567l2.658-7.567h2.518l-4.776,11.315h-2.223
			l-2.188-6.604l-2.536,6.604h-2.241c0,0-2.98-8.448-3.338-9.375c-0.625-1.614-1.391-1.94-1.391-1.94H9.545z"/>
		<path fill="#00CC00" d="M42.795,14.854c0.364,0,3.941-0.071,4.324-0.071c2.9,0,5.055,0.071,6.549,1.909
			c0.955,1.16,1.111,2.658,1.111,3.48c0,2.785-1.563,4.711-3.752,5.516c-1.112,0.41-2.607,0.482-4.325,0.482h-3.907V14.854
			L42.795,14.854z M45.975,24.616h0.746c2.381,0,4.654,0,4.654-4.319c0-3.998-2.449-3.998-3.855-3.998
			c-0.435,0-1.025,0.018-1.545,0.018V24.616z"/>
		<polygon fill="#00CC00" points="63.421,16.55 63.421,17.991 58.797,17.991 58.797,20.419 62.919,20.419 62.919,21.829 
			58.797,21.829 58.797,24.637 63.611,24.637 63.611,26.17 56.098,26.17 56.098,16.55 		"/>
		<polygon fill="#00CC00" points="66.93,16.55 69.262,23.271 71.964,16.55 74.148,16.55 69.573,26.17 67.623,26.17 63.859,16.55 		
			"/>
		<path fill="#00CC00" d="M71.878,25.216c0-0.599,0.521-1.051,1.183-1.051c0.653,0,1.172,0.451,1.172,1.051
			c0,0.61-0.519,1.06-1.172,1.06C72.396,26.273,71.878,25.824,71.878,25.216z M73.061,26.484c0.787,0,1.463-0.537,1.463-1.27
			c0-0.727-0.676-1.263-1.463-1.263c-0.799,0-1.473,0.536-1.473,1.263C71.588,25.947,72.262,26.484,73.061,26.484z M72.751,25.316
			h0.293l0.44,0.631h0.283l-0.477-0.641c0.245-0.027,0.434-0.141,0.434-0.402c0-0.288-0.195-0.416-0.59-0.416H72.5v1.459h0.251
			V25.316z M72.751,25.129V24.68h0.347c0.176,0,0.363,0.032,0.363,0.213c0,0.225-0.193,0.236-0.408,0.236H72.751z"/>
		<path fill="#00CC00" d="M38.438,16.55c0.914,0,1.645,0.19,2.193,0.575c0.583,0.413,0.873,1.023,0.873,1.832
			c0,0.854-0.348,1.456-1.042,1.811c-0.228,0.123-0.566,0.241-1.02,0.359c0.53,0.098,0.957,0.255,1.283,0.471
			c0.643,0.432,0.963,1.051,0.963,1.858c0,0.993-0.408,1.728-1.221,2.207c-0.535,0.313-1.167,0.469-1.893,0.469h-4.72V16.55H38.438z
			 M36.6,20.764h0.554c0.53,0,0.915-0.088,1.152-0.266c0.157-0.122,0.285-0.313,0.385-0.574c0.1-0.261,0.151-0.545,0.151-0.847
			c0-0.994-0.505-1.492-1.51-1.492H36.6V20.764z M36.6,25.096h0.867c0.969,0,1.454-0.517,1.454-1.554
			c0-1.176-0.566-1.765-1.703-1.765H36.6V25.096z"/>
		<polygon fill="#00CC00" points="32.233,16.55 32.233,17.991 27.612,17.991 27.612,20.419 31.732,20.419 31.732,21.829 
			27.612,21.829 27.612,24.637 32.426,24.637 32.426,26.17 24.911,26.17 24.911,16.55 		"/>
	</g>
	<g>
		<path fill="#00CC00" d="M8.342,10.799v2.364H6.933V6.741c0.939-0.033,1.488-0.05,1.647-0.05c1.253,0,2.169,0.156,2.749,0.468
			c0.581,0.312,0.87,0.798,0.87,1.459c0,1.475-1.073,2.212-3.217,2.212C8.822,10.83,8.608,10.819,8.342,10.799z M8.342,7.727v2.058
			c0.238,0.02,0.426,0.031,0.563,0.031c0.643,0,1.113-0.088,1.409-0.261c0.295-0.175,0.444-0.458,0.444-0.851
			c0-0.666-0.663-1-1.989-1C8.622,7.706,8.479,7.713,8.342,7.727z"/>
		<path fill="#00CC00" d="M12.784,10.803c0-0.717,0.256-1.3,0.767-1.75c0.511-0.451,1.186-0.676,2.023-0.676
			c0.881,0,1.565,0.216,2.053,0.649c0.486,0.433,0.73,1.025,0.73,1.777c0,0.75-0.248,1.345-0.745,1.787
			c-0.497,0.442-1.176,0.663-2.039,0.663c-0.882,0-1.567-0.222-2.056-0.668C13.028,12.14,12.784,11.543,12.784,10.803z
			 M14.192,10.803c0,1.036,0.461,1.554,1.382,1.554c0.423,0,0.757-0.134,1.004-0.403c0.248-0.27,0.372-0.652,0.372-1.15
			c0-1.021-0.458-1.531-1.376-1.531c-0.423,0-0.758,0.136-1.007,0.404C14.317,9.944,14.192,10.32,14.192,10.803z"/>
		<path fill="#00CC00" d="M25.073,13.251H24.58l-1.592-2.887l-1.587,2.887h-0.498l-2.189-4.787h1.425l1.165,2.804l1.42-2.804h0.487
			l1.468,2.822l1.257-2.822h1.333L25.073,13.251z"/>
		<path fill="#00CC00" d="M33.203,11.151h-4.144c0.025,0.375,0.184,0.666,0.476,0.874s0.686,0.312,1.181,0.312
			c0.618,0,1.087-0.13,1.408-0.391l0.525,0.838c-0.476,0.313-1.188,0.469-2.134,0.469c-0.885,0-1.585-0.209-2.099-0.629
			c-0.515-0.419-0.772-1.005-0.772-1.757c0-0.74,0.283-1.341,0.847-1.799c0.564-0.458,1.243-0.688,2.034-0.688
			c0.842,0,1.517,0.202,2.026,0.609c0.509,0.407,0.764,0.924,0.764,1.554C33.316,10.674,33.278,10.877,33.203,11.151z
			 M29.107,10.324h2.85c-0.095-0.686-0.564-1.03-1.409-1.03C29.775,9.293,29.295,9.638,29.107,10.324z"/>
		<path fill="#00CC00" d="M37.752,9.486c-0.241-0.128-0.507-0.193-0.796-0.193c-0.314,0-0.594,0.116-0.837,0.347
			c-0.243,0.231-0.365,0.513-0.365,0.847v2.675H34.4V8.465h1.354v0.431c0.379-0.346,0.883-0.517,1.511-0.517
			c0.462,0,0.816,0.056,1.062,0.17L37.752,9.486z"/>
		<path fill="#00CC00" d="M44.273,11.151h-4.145c0.025,0.375,0.185,0.666,0.477,0.874c0.293,0.208,0.688,0.312,1.182,0.312
			c0.617,0,1.087-0.13,1.408-0.391l0.525,0.838c-0.479,0.313-1.188,0.469-2.137,0.469c-0.884,0-1.584-0.209-2.099-0.629
			c-0.515-0.419-0.772-1.005-0.772-1.757c0-0.74,0.282-1.341,0.848-1.799c0.564-0.459,1.241-0.688,2.033-0.688
			c0.842,0,1.516,0.202,2.024,0.609c0.512,0.407,0.767,0.924,0.767,1.554C44.389,10.674,44.35,10.877,44.273,11.151z M40.179,10.324
			h2.848c-0.092-0.686-0.563-1.03-1.407-1.03C40.848,9.293,40.367,9.638,40.179,10.324z"/>
		<path fill="#00CC00" d="M49.203,13.164v-0.285c-0.112,0.1-0.303,0.187-0.569,0.261c-0.266,0.075-0.543,0.111-0.827,0.111
			c-0.812,0-1.445-0.208-1.91-0.623s-0.697-0.994-0.697-1.737c0-0.743,0.268-1.347,0.8-1.814c0.532-0.468,1.2-0.701,2.002-0.701
			c0.44,0,0.842,0.073,1.204,0.219V6.714l1.352-0.263v6.713H49.203L49.203,13.164L49.203,13.164z M49.203,9.588
			c-0.289-0.187-0.592-0.28-0.906-0.28c-0.541,0-0.957,0.133-1.25,0.402c-0.292,0.268-0.439,0.651-0.439,1.151
			c0,0.978,0.582,1.466,1.746,1.466c0.129,0,0.287-0.032,0.479-0.094c0.189-0.063,0.313-0.127,0.373-0.192L49.203,9.588
			L49.203,9.588z"/>
		<path fill="#00CC00" d="M55.598,13l-0.193,0.22h-0.486V9.06l0.861-0.167v1.396c0.229-0.113,0.48-0.171,0.75-0.171
			c0.541,0,0.979,0.139,1.309,0.415c0.331,0.277,0.496,0.63,0.496,1.063c0,0.5-0.166,0.897-0.499,1.188
			c-0.335,0.291-0.785,0.437-1.354,0.437C56.139,13.22,55.844,13.146,55.598,13z M55.779,10.885v1.56
			c0.127,0.122,0.299,0.181,0.515,0.181c0.416,0,0.71-0.079,0.883-0.24c0.175-0.16,0.263-0.416,0.263-0.768
			c0-0.607-0.358-0.91-1.075-0.91C56.107,10.71,55.913,10.769,55.779,10.885z"/>
		<path fill="#00CC00" d="M60.663,13.644c-0.093,0.2-0.29,0.366-0.595,0.496c-0.303,0.132-0.652,0.198-1.057,0.198V13.72
			c0.665,0,0.996-0.135,0.996-0.404c0-0.179-0.091-0.452-0.273-0.822l-1.156-2.32h0.895l1.006,2.066l0.906-2.066h0.893
			L60.663,13.644z"/>
	</g>
</g>
</svg>
