<?xml version="1.0" encoding="utf-8"?>
<!-- Generator: Adobe Illustrator 15.0.2, SVG Export Plug-In . SVG Version: 6.00 Build 0)  -->
<!DOCTYPE svg PUBLIC "-//W3C//DTD SVG 1.1//EN" "http://www.w3.org/Graphics/SVG/1.1/DTD/svg11.dtd">
<svg version="1.1" id="Calque_1" xmlns="http://www.w3.org/2000/svg" xmlns:xlink="http://www.w3.org/1999/xlink" x="0px" y="0px"
	 width="320px" height="24px" viewBox="0 0 320 24" enable-background="new 0 0 320 24" xml:space="preserve">
<g id="Effet_NoPatch" display="none">
</g>
<g>
	
		<linearGradient id="SVGID_1_" gradientUnits="userSpaceOnUse" x1="762.9199" y1="572.6992" x2="762.9199" y2="594.739" gradientTransform="matrix(1 0 0 1 -722.9199 -571.6992)">
		<stop  offset="0" style="stop-color:#EEEBE8"/>
		<stop  offset="1" style="stop-color:#E8C6B0"/>
	</linearGradient>
	<rect x="2" y="1" fill="url(#SVGID_1_)" width="76" height="22"/>
	<path fill="#2AEDFF" d="M77,2v20H3V2H77 M78,1H2v22h76V1L78,1z"/>
	<rect x="3" y="22" fill="#24CFDE" width="74" height="1"/>
</g>
<g>
	
		<linearGradient id="SVGID_2_" gradientUnits="userSpaceOnUse" x1="922.9199" y1="572.6992" x2="922.9199" y2="594.739" gradientTransform="matrix(1 0 0 1 -722.9199 -571.6992)">
		<stop  offset="0" style="stop-color:#EEEBE8"/>
		<stop  offset="1" style="stop-color:#E8C6B0"/>
	</linearGradient>
	<rect x="162" y="1" fill="url(#SVGID_2_)" width="76" height="22"/>
	<path fill="#2AEDFF" d="M237,2v20h-74V2H237 M238,1h-76v22h76V1L238,1z"/>
	<rect x="163" y="22" fill="#24CFDE" width="74" height="1"/>
</g>
<g opacity="0.5">
	
		<linearGradient id="SVGID_3_" gradientUnits="userSpaceOnUse" x1="1002.9199" y1="572.6992" x2="1002.9199" y2="594.739" gradientTransform="matrix(1 0 0 1 -722.9199 -571.6992)">
		<stop  offset="0" style="stop-color:#EEEBE8"/>
		<stop  offset="1" style="stop-color:#E8C6B0"/>
	</linearGradient>
	<rect x="242" y="1" fill="url(#SVGID_3_)" width="76" height="22"/>
	<path fill="#2AEDFF" d="M317,2v20h-74V2H317 M318,1h-76v22h76V1L318,1z"/>
	<rect x="243" y="22" fill="#24CFDE" width="74" height="1"/>
</g>
<linearGradient id="SVGID_4_" gradientUnits="userSpaceOnUse" x1="842.9199" y1="572.6992" x2="842.9199" y2="594.739" gradientTransform="matrix(1 0 0 1 -722.9199 -571.6992)">
	<stop  offset="0" style="stop-color:#EEEBE8"/>
	<stop  offset="1" style="stop-color:#E8C6B0"/>
</linearGradient>
<rect x="82" y="1" fill="url(#SVGID_4_)" width="76" height="22"/>
<path fill="#2AEDFF" d="M157,2v20H83V2H157 M158,1H82v22h76V1L158,1z"/>
</svg>
