<?xml version="1.0" encoding="utf-8"?>
<!-- Generator: Adobe Illustrator 15.0.2, SVG Export Plug-In . SVG Version: 6.00 Build 0)  -->
<!DOCTYPE svg PUBLIC "-//W3C//DTD SVG 1.1//EN" "http://www.w3.org/Graphics/SVG/1.1/DTD/svg11.dtd">
<svg version="1.1" id="Calque_1" xmlns="http://www.w3.org/2000/svg" xmlns:xlink="http://www.w3.org/1999/xlink" x="0px" y="0px"
	 width="37px" height="37px" viewBox="0 0 37 37" enable-background="new 0 0 37 37" xml:space="preserve">
<path fill-rule="evenodd" clip-rule="evenodd" fill="#542954" d="M18.5,14.79c-2.313,0-4.186-1.804-4.186-4.035
	s1.874-4.035,4.186-4.035s4.187,1.804,4.187,4.035S20.813,14.79,18.5,14.79z M28.122,5.481c-1.296-2.254-3.355-3.988-6.083-4.902
	C21.565,0.417,21.08,0.29,20.57,0.197C20.039,0.104,19.46,0.036,18.859,0H18.5h-0.358c-0.601,0.035-1.18,0.104-1.711,0.196
	c-0.509,0.093-0.995,0.221-1.469,0.382c-2.718,0.914-4.787,2.648-6.082,4.902c-0.891,1.55-1.479,3.48-1.342,5.841
	c0.06,1.085,0.348,2.057,0.683,2.936c0.348,0.867,0.752,1.653,1.226,2.405c1.805,2.938,4.255,5.552,5.643,8.916
	c0.705,1.71,1.33,3.491,1.861,5.388c0.52,1.872,0.995,3.862,1.191,6.034H18.5h0.358c0.197-2.172,0.672-4.162,1.19-6.034
	c0.532-1.896,1.156-3.678,1.862-5.388c1.388-3.364,3.838-5.979,5.643-8.916c0.475-0.752,0.879-1.538,1.226-2.405
	c0.334-0.879,0.623-1.851,0.683-2.936C29.6,8.961,29.01,7.031,28.122,5.481z"/>
</svg>
