<?xml version="1.0" encoding="utf-8"?>
<!-- Generator: Adobe Illustrator 15.0.2, SVG Export Plug-In . SVG Version: 6.00 Build 0)  -->
<!DOCTYPE svg PUBLIC "-//W3C//DTD SVG 1.1//EN" "http://www.w3.org/Graphics/SVG/1.1/DTD/svg11.dtd">
<svg version="1.1" id="Calque_1" xmlns="http://www.w3.org/2000/svg" xmlns:xlink="http://www.w3.org/1999/xlink" x="0px" y="0px"
	 width="37px" height="37px" viewBox="0 0 37 37" enable-background="new 0 0 37 37" xml:space="preserve">
<g>
	<path fill="#542954" d="M34.204,17.182c0.373,0,0.729,0.07,1.068,0.209c0.34,0.14,0.64,0.33,0.899,0.569s0.463,0.52,0.609,0.839
		S37,19.465,37,19.838v10.949c0,0.385-0.073,0.746-0.22,1.078s-0.35,0.623-0.609,0.869s-0.56,0.443-0.899,0.59
		s-0.695,0.219-1.068,0.219H2.797c-0.387,0-0.746-0.072-1.079-0.219s-0.629-0.344-0.889-0.59s-0.463-0.537-0.609-0.869
		C0.073,31.534,0,31.172,0,30.788V19.838c0-0.373,0.072-0.719,0.22-1.039c0.146-0.32,0.35-0.6,0.609-0.839s0.556-0.429,0.889-0.569
		c0.333-0.14,0.692-0.209,1.079-0.209h1.418v12.127h8.111V17.182h1.438V3.457h19.02v13.725H34.204z M10.949,25.333
		c0,0.373-0.07,0.723-0.21,1.049s-0.33,0.613-0.569,0.859c-0.24,0.246-0.526,0.439-0.859,0.58c-0.333,0.139-0.687,0.209-1.059,0.209
		c-0.387,0-0.746-0.07-1.079-0.209c-0.333-0.141-0.623-0.334-0.869-0.58s-0.442-0.533-0.589-0.859
		c-0.147-0.326-0.22-0.676-0.22-1.049V14.385c0-0.386,0.072-0.746,0.22-1.079c0.146-0.333,0.343-0.619,0.589-0.859
		s0.536-0.43,0.869-0.569c0.333-0.14,0.692-0.21,1.079-0.21c0.372,0,0.726,0.07,1.059,0.21c0.333,0.14,0.619,0.33,0.859,0.569
		c0.239,0.24,0.43,0.526,0.569,0.859c0.14,0.333,0.21,0.693,0.21,1.079V25.333z M16.403,17.182h13.725V6.273H16.403V17.182z
		 M20.638,21.256h-2.857v2.598h2.857V21.256z M20.638,25.293h-2.857v2.656h2.857V25.293z M24.674,21.256h-2.817v2.598h2.817V21.256z
		 M24.674,25.293h-2.817v2.656h2.817V25.293z M28.75,21.256h-2.857v2.598h2.857V21.256z M28.75,25.293h-2.857v2.656h2.857V25.293z"
		/>
</g>
</svg>
