<?xml version="1.0" encoding="utf-8"?>
<!-- Generator: Adobe Illustrator 15.0.2, SVG Export Plug-In . SVG Version: 6.00 Build 0)  -->
<!DOCTYPE svg PUBLIC "-//W3C//DTD SVG 1.1//EN" "http://www.w3.org/Graphics/SVG/1.1/DTD/svg11.dtd">
<svg version="1.1" id="Calque_1" xmlns="http://www.w3.org/2000/svg" xmlns:xlink="http://www.w3.org/1999/xlink" x="0px" y="0px"
	 width="37px" height="37px" viewBox="0 0 37 37" enable-background="new 0 0 37 37" xml:space="preserve">
<path fill="#542954" d="M28.015,4.803c0,0-0.122-2.424-0.768-3.173c-0.656-0.757-1.489-0.934-2.098-1.062
	c-0.713-0.151-2.022-0.358-4.214-0.485C19.935,0.027,19.151,0,18.388,0c-0.672,0-1.279,0.019-2.052,0.043l-0.372,0.013
	c-1.48,0.045-2.658,0.16-3.162,0.209c-0.108,0.011-0.183,0.018-0.222,0.021c-0.052,0.005-0.208,0.014-0.269,0.129
	c-0.002,0.008-0.008,0.016-0.01,0.022c-0.229,0.039-0.817,0.146-1.282,0.29c-0.775,0.242-1.201,0.552-1.571,1.148
	C9.11,2.42,9.042,3.337,9.018,3.683C9.014,3.718,9.011,3.77,9.011,3.77L8.924,30.098l0.126,2.376c0,0,0.485,2.524,0.971,3.072
	c0.441,0.498,1.022,0.795,1.885,0.961c0.093,0.018,0.18,0.035,0.265,0.052c0.649,0.13,1.162,0.232,2.949,0.326
	c0.181,0.01,0.355,0.019,0.528,0.028C16.458,36.958,17.227,37,18.253,37c0.729,0,1.534-0.021,2.465-0.063
	c3.25-0.156,4.862-0.343,5.819-1.038c0.943-0.683,1.157-1.692,1.301-2.36l0.007-0.029c0.166-0.777,0.23-3.08,0.23-3.08L28.015,4.803
	z M18.486,35.12c-0.56,0-1.013-0.455-1.013-1.013c0-0.56,0.453-1.012,1.013-1.012c0.559,0,1.013,0.452,1.013,1.012
	C19.499,34.665,19.044,35.12,18.486,35.12z M26.407,29.704H10.518V4.362h15.889V29.704z"/>
</svg>
