<?xml version="1.0" encoding="utf-8"?>
<!-- Generator: Adobe Illustrator 15.0.2, SVG Export Plug-In . SVG Version: 6.00 Build 0)  -->
<!DOCTYPE svg PUBLIC "-//W3C//DTD SVG 1.1//EN" "http://www.w3.org/Graphics/SVG/1.1/DTD/svg11.dtd">
<svg version="1.1" id="Calque_1" xmlns="http://www.w3.org/2000/svg" xmlns:xlink="http://www.w3.org/1999/xlink" x="0px" y="0px"
	 width="37px" height="37px" viewBox="0 0 37 37" enable-background="new 0 0 37 37" xml:space="preserve">
<g>
	<path fill="#542954" d="M18.52,0c1.725,0,3.379,0.222,4.963,0.666c1.583,0.444,3.061,1.068,4.432,1.873s2.613,1.776,3.727,2.916
		c1.114,1.14,2.069,2.401,2.868,3.785c0.798,1.384,1.413,2.874,1.844,4.471C36.785,15.307,37,16.975,37,18.712
		c0,1.688-0.222,3.31-0.666,4.866c-0.444,1.559-1.069,3.013-1.873,4.365c-0.805,1.352-1.774,2.584-2.907,3.697
		c-1.133,1.114-2.382,2.066-3.746,2.858s-2.832,1.406-4.402,1.845C21.834,36.781,20.207,37,18.52,37
		c-1.751,0-3.425-0.223-5.021-0.666c-1.597-0.444-3.08-1.072-4.451-1.883c-1.371-0.812-2.613-1.783-3.727-2.916
		c-1.114-1.133-2.063-2.385-2.849-3.756s-1.394-2.846-1.825-4.423S0,20.149,0,18.461c0-1.725,0.222-3.376,0.666-4.953
		s1.071-3.051,1.883-4.422s1.783-2.613,2.916-3.728C6.598,4.246,7.85,3.29,9.221,2.492c1.371-0.799,2.842-1.413,4.412-1.845
		C15.205,0.216,16.833,0,18.52,0z M18.713,2.666c-1.469,0-2.885,0.187-4.249,0.56c-1.365,0.374-2.643,0.901-3.833,1.584
		C9.44,5.492,8.355,6.312,7.377,7.271C6.399,8.23,5.562,9.289,4.867,10.448c-0.695,1.158-1.236,2.404-1.622,3.736
		c-0.387,1.333-0.579,2.72-0.579,4.162c0,1.441,0.189,2.835,0.569,4.181s0.914,2.61,1.603,3.795s1.513,2.269,2.472,3.254
		c0.959,0.984,2.021,1.831,3.187,2.539s2.411,1.258,3.737,1.651c1.325,0.393,2.696,0.589,4.112,0.589
		c1.469,0,2.885-0.188,4.249-0.561s2.639-0.9,3.824-1.583c1.184-0.683,2.266-1.5,3.244-2.453c0.978-0.952,1.814-2.011,2.51-3.176
		s1.232-2.414,1.612-3.747c0.38-1.332,0.57-2.719,0.57-4.161c0-1.43-0.193-2.816-0.579-4.162c-0.387-1.345-0.928-2.609-1.622-3.794
		c-0.695-1.185-1.526-2.27-2.491-3.254c-0.966-0.985-2.028-1.835-3.187-2.55c-1.159-0.714-2.395-1.268-3.708-1.66
		S20.103,2.666,18.713,2.666z M24.333,13.557c0.219-0.129,0.45-0.193,0.695-0.193c0.231,0,0.45,0.058,0.656,0.174
		c0.206,0.115,0.373,0.276,0.502,0.482s0.193,0.425,0.193,0.656c0,0.22-0.058,0.435-0.174,0.647
		c-0.116,0.212-0.277,0.383-0.482,0.512l-6.508,3.901c-0.143,0.09-0.28,0.151-0.415,0.183c-0.136,0.032-0.255,0.049-0.358,0.049
		c-0.128,0-0.27-0.022-0.425-0.067c-0.154-0.045-0.296-0.116-0.425-0.213s-0.238-0.223-0.328-0.377s-0.135-0.348-0.135-0.579V6.759
		c0-0.36,0.125-0.673,0.376-0.937s0.563-0.396,0.937-0.396c0.361,0,0.673,0.133,0.938,0.396c0.264,0.264,0.396,0.576,0.396,0.937
		v9.539L24.333,13.557z"/>
</g>
</svg>
